<?xml version="1.0" encoding="utf-8" standalone="no"?>
<!DOCTYPE svg PUBLIC "-//W3C//DTD SVG 1.1//EN"
  "http://www.w3.org/Graphics/SVG/1.1/DTD/svg11.dtd">
<svg xmlns:xlink="http://www.w3.org/1999/xlink" width="763.2pt" height="226.8pt" viewBox="0 0 763.2 226.8" xmlns="http://www.w3.org/2000/svg" version="1.1">
 <metadata>
  <rdf:RDF xmlns:dc="http://purl.org/dc/elements/1.1/" xmlns:cc="http://creativecommons.org/ns#" xmlns:rdf="http://www.w3.org/1999/02/22-rdf-syntax-ns#">
   <cc:Work>
    <dc:type rdf:resource="http://purl.org/dc/dcmitype/StillImage"/>
    <dc:date>2026-07-11T23:00:45.103822</dc:date>
    <dc:format>image/svg+xml</dc:format>
    <dc:creator>
     <cc:Agent>
      <dc:title>Matplotlib v3.10.8, https://matplotlib.org/</dc:title>
     </cc:Agent>
    </dc:creator>
   </cc:Work>
  </rdf:RDF>
 </metadata>
 <defs>
  <style type="text/css">*{stroke-linejoin: round; stroke-linecap: butt}</style>
 </defs>
 <g id="figure_1">
  <g id="patch_1">
   <path d="M 0 226.8 
L 763.2 226.8 
L 763.2 0 
L 0 0 
z
" style="fill: #ffffff"/>
  </g>
  <g id="axes_1">
   <g id="patch_2">
    <path d="M 10.6848 37.899763 
L 752.5152 37.899763 
L 752.5152 6.292566 
L 10.6848 6.292566 
z
" clip-path="url(#p24fa482121)" style="fill: #ede7d6"/>
   </g>
   <g id="patch_3">
    <path d="M 10.6848 211.739346 
L 752.5152 211.739346 
L 752.5152 195.935748 
L 10.6848 195.935748 
z
" clip-path="url(#p24fa482121)" style="fill: #f5f2ea"/>
   </g>
   <g id="line2d_1">
    <path d="M 10.6848 53.703361 
L 752.5152 53.703361 
" clip-path="url(#p24fa482121)" style="fill: none; stroke: #e4e2da; stroke-width: 0.5; stroke-linecap: square"/>
   </g>
   <g id="line2d_2">
    <path d="M 10.6848 69.50696 
L 752.5152 69.50696 
" clip-path="url(#p24fa482121)" style="fill: none; stroke: #e4e2da; stroke-width: 0.5; stroke-linecap: square"/>
   </g>
   <g id="line2d_3">
    <path d="M 10.6848 85.310558 
L 752.5152 85.310558 
" clip-path="url(#p24fa482121)" style="fill: none; stroke: #e4e2da; stroke-width: 0.5; stroke-linecap: square"/>
   </g>
   <g id="line2d_4">
    <path d="M 10.6848 101.114157 
L 752.5152 101.114157 
" clip-path="url(#p24fa482121)" style="fill: none; stroke: #e4e2da; stroke-width: 0.5; stroke-linecap: square"/>
   </g>
   <g id="line2d_5">
    <path d="M 10.6848 116.917755 
L 752.5152 116.917755 
" clip-path="url(#p24fa482121)" style="fill: none; stroke: #e4e2da; stroke-width: 0.5; stroke-linecap: square"/>
   </g>
   <g id="line2d_6">
    <path d="M 10.6848 132.721354 
L 752.5152 132.721354 
" clip-path="url(#p24fa482121)" style="fill: none; stroke: #e4e2da; stroke-width: 0.5; stroke-linecap: square"/>
   </g>
   <g id="line2d_7">
    <path d="M 10.6848 148.524952 
L 752.5152 148.524952 
" clip-path="url(#p24fa482121)" style="fill: none; stroke: #e4e2da; stroke-width: 0.5; stroke-linecap: square"/>
   </g>
   <g id="line2d_8">
    <path d="M 10.6848 164.328551 
L 752.5152 164.328551 
" clip-path="url(#p24fa482121)" style="fill: none; stroke: #e4e2da; stroke-width: 0.5; stroke-linecap: square"/>
   </g>
   <g id="line2d_9">
    <path d="M 10.6848 180.132149 
L 752.5152 180.132149 
" clip-path="url(#p24fa482121)" style="fill: none; stroke: #e4e2da; stroke-width: 0.5; stroke-linecap: square"/>
   </g>
   <g id="line2d_10">
    <path d="M 10.6848 195.935748 
L 752.5152 195.935748 
" clip-path="url(#p24fa482121)" style="fill: none; stroke: #e4e2da; stroke-width: 0.5; stroke-linecap: square"/>
   </g>
   <g id="line2d_11">
    <path d="M 10.6848 211.739346 
L 752.5152 211.739346 
" clip-path="url(#p24fa482121)" style="fill: none; stroke: #e4e2da; stroke-width: 0.5; stroke-linecap: square"/>
   </g>
   <g id="line2d_12">
    <path d="M 10.6848 22.096164 
L 752.5152 22.096164 
" clip-path="url(#p24fa482121)" style="fill: none; stroke: #e4e2da; stroke-width: 0.5; stroke-linecap: square"/>
   </g>
   <g id="line2d_13">
    <path d="M 99.704448 211.739346 
L 99.704448 37.899763 
" clip-path="url(#p24fa482121)" style="fill: none; stroke: #e4e2da; stroke-width: 0.4; stroke-linecap: square"/>
   </g>
   <g id="line2d_14">
    <path d="M 181.305792 211.739346 
L 181.305792 37.899763 
" clip-path="url(#p24fa482121)" style="fill: none; stroke: #e4e2da; stroke-width: 0.4; stroke-linecap: square"/>
   </g>
   <g id="line2d_15">
    <path d="M 262.907136 211.739346 
L 262.907136 37.899763 
" clip-path="url(#p24fa482121)" style="fill: none; stroke: #e4e2da; stroke-width: 0.4; stroke-linecap: square"/>
   </g>
   <g id="line2d_16">
    <path d="M 344.50848 211.739346 
L 344.50848 37.899763 
" clip-path="url(#p24fa482121)" style="fill: none; stroke: #e4e2da; stroke-width: 0.4; stroke-linecap: square"/>
   </g>
   <g id="line2d_17">
    <path d="M 507.711168 211.739346 
L 507.711168 37.899763 
" clip-path="url(#p24fa482121)" style="fill: none; stroke: #e4e2da; stroke-width: 0.4; stroke-linecap: square"/>
   </g>
   <g id="line2d_18">
    <path d="M 589.312512 211.739346 
L 589.312512 37.899763 
" clip-path="url(#p24fa482121)" style="fill: none; stroke: #e4e2da; stroke-width: 0.4; stroke-linecap: square"/>
   </g>
   <g id="line2d_19">
    <path d="M 670.913856 211.739346 
L 670.913856 37.899763 
" clip-path="url(#p24fa482121)" style="fill: none; stroke: #e4e2da; stroke-width: 0.4; stroke-linecap: square"/>
   </g>
   <g id="text_1">
    <!-- 인철과 출신 (43) -->
    <g style="fill: #1c1b19" transform="translate(234.630605 17.041771) scale(0.086 -0.086)">
     <defs>
      <path id="AppleSDGothicNeo-Regular-c778" d="M 4813 1062 
L 4813 5146 
L 4326 5146 
L 4326 1062 
L 4813 1062 
z
M 4954 -262 
L 4954 141 
L 1651 141 
L 1651 1466 
L 1165 1466 
L 1165 -262 
L 4954 -262 
z
M 1869 4774 
C 1024 4774 365 4205 365 3373 
C 365 2541 1024 1990 1875 1990 
C 2726 1990 3379 2547 3379 3379 
C 3379 4211 2720 4774 1869 4774 
z
M 1869 4352 
C 2490 4352 2918 3949 2918 3373 
C 2918 2816 2490 2419 1875 2419 
C 1286 2419 832 2816 832 3379 
C 832 3949 1280 4352 1869 4352 
z
" transform="scale(0.015625)"/>
      <path id="AppleSDGothicNeo-Regular-cca0" d="M 4998 -422 
L 4998 -32 
L 1722 -32 
L 1722 582 
L 4819 582 
L 4819 1856 
L 1210 1856 
L 1210 1466 
L 4333 1466 
L 4333 954 
L 1235 954 
L 1235 -422 
L 4998 -422 
z
M 410 3846 
L 1651 3846 
C 1606 3187 941 2586 230 2387 
L 499 2016 
C 1152 2246 1734 2752 1907 3245 
C 2163 2746 2758 2310 3258 2163 
L 3507 2541 
C 2880 2682 2202 3213 2157 3846 
L 3437 3846 
L 3437 4250 
L 410 4250 
L 410 3846 
z
M 4813 2144 
L 4813 5146 
L 4326 5146 
L 4326 3546 
L 3277 3546 
L 3277 3142 
L 4326 3142 
L 4326 2144 
L 4813 2144 
z
M 1146 4678 
L 2656 4678 
L 2656 5107 
L 1146 5107 
L 1146 4678 
z
" transform="scale(0.015625)"/>
      <path id="AppleSDGothicNeo-Regular-acfc" d="M 5485 2394 
L 5485 2810 
L 4576 2810 
L 4576 5146 
L 4090 5146 
L 4090 -448 
L 4576 -448 
L 4576 2394 
L 5485 2394 
z
M 3770 966 
L 3731 1370 
C 3232 1293 2528 1242 1856 1210 
L 1856 2963 
L 1363 2963 
L 1363 1197 
C 947 1184 448 1190 141 1190 
L 211 762 
C 678 762 1299 781 1862 806 
C 2406 838 3232 896 3770 966 
z
M 3347 4557 
L 422 4557 
L 422 4147 
L 2854 4147 
C 2880 3520 2803 2598 2682 2054 
L 3149 1990 
C 3270 2534 3360 3699 3347 4557 
z
" transform="scale(0.015625)"/>
      <path id="AppleSDGothicNeo-Regular-20" transform="scale(0.015625)"/>
      <path id="AppleSDGothicNeo-Regular-cd9c" d="M 4864 -346 
L 4864 32 
L 1350 32 
L 1350 512 
L 4659 512 
L 4659 1690 
L 3002 1690 
L 3002 2150 
L 5293 2150 
L 5293 2547 
L 243 2547 
L 243 2150 
L 2515 2150 
L 2515 1690 
L 851 1690 
L 851 1312 
L 4173 1312 
L 4173 870 
L 858 870 
L 858 -346 
L 4864 -346 
z
M 5024 3194 
C 4218 3251 3283 3526 3066 3962 
L 4742 3962 
L 4742 4358 
L 794 4358 
L 794 3962 
L 2470 3962 
C 2272 3520 1395 3245 525 3187 
L 736 2790 
C 1600 2880 2445 3168 2765 3667 
C 3098 3168 4013 2886 4813 2790 
L 5024 3194 
z
M 3661 4730 
L 3661 5120 
L 1869 5120 
L 1869 4730 
L 3661 4730 
z
" transform="scale(0.015625)"/>
      <path id="AppleSDGothicNeo-Regular-c2e0" d="M 4813 1082 
L 4813 5146 
L 4326 5146 
L 4326 1082 
L 4813 1082 
z
M 3622 2355 
C 2957 2592 2202 3283 2202 4218 
L 2202 4826 
L 1709 4826 
L 1709 4205 
C 1709 3309 986 2490 250 2163 
L 544 1779 
C 1152 2086 1798 2733 1965 3334 
C 2195 2746 2771 2214 3347 1965 
L 3622 2355 
z
M 4934 -275 
L 4934 128 
L 1690 128 
L 1690 1446 
L 1203 1446 
L 1203 -275 
L 4934 -275 
z
" transform="scale(0.015625)"/>
      <path id="AppleSDGothicNeo-Regular-28" d="M 1472 -384 
L 1914 -384 
C 1344 256 883 1235 883 2221 
L 883 2374 
C 883 3392 1344 4307 1914 4941 
L 1472 4941 
C 883 4339 365 3469 365 2330 
L 365 2227 
C 365 1094 883 218 1472 -384 
z
" transform="scale(0.015625)"/>
      <path id="AppleSDGothicNeo-Regular-34" d="M 2214 166 
L 2682 166 
L 2682 1171 
L 3398 1171 
L 3398 1587 
L 2682 1587 
L 2682 4621 
L 2285 4621 
L 186 1555 
L 186 1171 
L 2214 1171 
L 2214 166 
z
M 730 1587 
L 2214 3814 
L 2214 1587 
L 730 1587 
z
" transform="scale(0.015625)"/>
      <path id="AppleSDGothicNeo-Regular-33" d="M 1491 205 
C 2445 205 3053 730 3053 1478 
C 3053 2144 2630 2458 2074 2566 
C 2560 2726 2893 3040 2893 3571 
C 2893 4243 2368 4634 1600 4634 
C 1229 4634 723 4474 467 4301 
L 544 3891 
C 813 4045 1146 4198 1498 4198 
C 2022 4198 2362 4013 2362 3488 
C 2362 3008 1984 2726 1427 2726 
L 1043 2726 
L 1043 2291 
L 1459 2291 
C 2112 2291 2534 2029 2534 1478 
C 2534 947 2138 634 1427 634 
C 1107 634 678 755 435 915 
L 326 512 
C 563 346 992 205 1491 205 
z
" transform="scale(0.015625)"/>
      <path id="AppleSDGothicNeo-Regular-29" d="M 115 -384 
L 550 -384 
C 1146 218 1651 1088 1651 2227 
L 1651 2330 
C 1651 3462 1146 4339 550 4941 
L 115 4941 
C 678 4301 1146 3322 1146 2336 
L 1146 2176 
C 1146 1165 678 250 115 -384 
z
" transform="scale(0.015625)"/>
     </defs>
     <use xlink:href="#AppleSDGothicNeo-Regular-c778"/>
     <use xlink:href="#AppleSDGothicNeo-Regular-cca0" transform="translate(86.499985 0)"/>
     <use xlink:href="#AppleSDGothicNeo-Regular-acfc" transform="translate(172.999969 0)"/>
     <use xlink:href="#AppleSDGothicNeo-Regular-20" transform="translate(259.499954 0)"/>
     <use xlink:href="#AppleSDGothicNeo-Regular-cd9c" transform="translate(285.799942 0)"/>
     <use xlink:href="#AppleSDGothicNeo-Regular-c2e0" transform="translate(372.299927 0)"/>
     <use xlink:href="#AppleSDGothicNeo-Regular-20" transform="translate(458.799911 0)"/>
     <use xlink:href="#AppleSDGothicNeo-Regular-28" transform="translate(485.099899 0)"/>
     <use xlink:href="#AppleSDGothicNeo-Regular-34" transform="translate(516.799896 0)"/>
     <use xlink:href="#AppleSDGothicNeo-Regular-33" transform="translate(572.299881 0)"/>
     <use xlink:href="#AppleSDGothicNeo-Regular-29" transform="translate(625.899872 0)"/>
    </g>
   </g>
   <g id="text_2">
    <!-- 비인철과 출신 (27) -->
    <g style="fill: #1c1b19" transform="translate(557.608746 17.041771) scale(0.086 -0.086)">
     <defs>
      <path id="AppleSDGothicNeo-Regular-be44" d="M 4838 -448 
L 4838 5146 
L 4352 5146 
L 4352 -448 
L 4838 -448 
z
M 3187 941 
L 3187 4672 
L 2701 4672 
L 2701 3238 
L 1024 3238 
L 1024 4672 
L 544 4672 
L 544 941 
L 3187 941 
z
M 2701 1350 
L 1024 1350 
L 1024 2835 
L 2701 2835 
L 2701 1350 
z
" transform="scale(0.015625)"/>
      <path id="AppleSDGothicNeo-Regular-32" d="M 397 269 
L 3066 269 
L 3066 704 
L 1107 704 
L 1779 1382 
C 2522 2138 2970 2650 2970 3392 
C 2970 4160 2502 4640 1638 4640 
C 1152 4640 717 4422 448 4250 
L 595 3846 
C 845 4019 1190 4198 1555 4198 
C 2163 4198 2438 3917 2438 3347 
C 2438 2733 2029 2266 1421 1632 
L 397 570 
L 397 269 
z
" transform="scale(0.015625)"/>
      <path id="AppleSDGothicNeo-Regular-37" d="M 710 243 
L 1274 243 
L 2957 4218 
L 2957 4544 
L 218 4544 
L 218 4115 
L 2400 4115 
L 710 243 
z
" transform="scale(0.015625)"/>
     </defs>
     <use xlink:href="#AppleSDGothicNeo-Regular-be44"/>
     <use xlink:href="#AppleSDGothicNeo-Regular-c778" transform="translate(86.499985 0)"/>
     <use xlink:href="#AppleSDGothicNeo-Regular-cca0" transform="translate(172.999969 0)"/>
     <use xlink:href="#AppleSDGothicNeo-Regular-acfc" transform="translate(259.499954 0)"/>
     <use xlink:href="#AppleSDGothicNeo-Regular-20" transform="translate(345.999939 0)"/>
     <use xlink:href="#AppleSDGothicNeo-Regular-cd9c" transform="translate(372.299927 0)"/>
     <use xlink:href="#AppleSDGothicNeo-Regular-c2e0" transform="translate(458.799911 0)"/>
     <use xlink:href="#AppleSDGothicNeo-Regular-20" transform="translate(545.299896 0)"/>
     <use xlink:href="#AppleSDGothicNeo-Regular-28" transform="translate(571.599884 0)"/>
     <use xlink:href="#AppleSDGothicNeo-Regular-32" transform="translate(603.299881 0)"/>
     <use xlink:href="#AppleSDGothicNeo-Regular-37" transform="translate(656.599869 0)"/>
     <use xlink:href="#AppleSDGothicNeo-Regular-29" transform="translate(705.599854 0)"/>
    </g>
   </g>
   <g id="text_3">
    <!-- 구간 -->
    <g style="fill: #1c1b19" transform="translate(19.586765 24.811133) scale(0.082 -0.082)">
     <defs>
      <path id="AppleSDGothicNeo-Regular-ad6c" d="M 4634 4730 
L 838 4730 
L 838 4326 
L 4128 4326 
C 4128 3776 4096 2854 3942 2253 
L 243 2253 
L 243 1843 
L 2522 1843 
L 2522 -448 
L 3008 -448 
L 3008 1843 
L 5293 1843 
L 5293 2253 
L 4429 2253 
C 4614 3117 4634 3968 4634 4730 
z
" transform="scale(0.015625)"/>
      <path id="AppleSDGothicNeo-Regular-ac04" d="M 5395 2982 
L 5395 3392 
L 4544 3392 
L 4544 5146 
L 4058 5146 
L 4058 960 
L 4544 960 
L 4544 2982 
L 5395 2982 
z
M 4717 -307 
L 4717 96 
L 1510 96 
L 1510 1421 
L 1024 1421 
L 1024 -307 
L 4717 -307 
z
M 435 4653 
L 435 4243 
L 2451 4243 
C 2310 3213 1408 2323 205 2016 
L 454 1606 
C 1882 2061 2918 3130 2982 4653 
L 435 4653 
z
" transform="scale(0.015625)"/>
     </defs>
     <use xlink:href="#AppleSDGothicNeo-Regular-ad6c"/>
     <use xlink:href="#AppleSDGothicNeo-Regular-ac04" transform="translate(86.499985 0)"/>
    </g>
   </g>
   <g id="text_4">
    <!-- 활동 -->
    <g style="fill: #1c1b19" transform="translate(133.58512 32.646714) scale(0.08 -0.08)">
     <defs>
      <path id="AppleSDGothicNeo-Regular-d65c" d="M 3219 3187 
C 3219 3674 2650 3898 1926 3898 
C 1210 3898 653 3674 653 3181 
C 653 2752 1094 2528 1709 2490 
L 1709 2189 
C 1139 2170 550 2170 147 2170 
L 224 1766 
C 621 1766 1350 1792 1978 1830 
C 2643 1862 3360 1939 3770 1984 
L 3725 2342 
C 3392 2291 2784 2246 2195 2214 
L 2195 2490 
C 2784 2541 3219 2765 3219 3187 
z
M 4762 -429 
L 4762 -58 
L 1414 -58 
L 1414 390 
L 4557 390 
L 4557 1504 
L 909 1504 
L 909 1139 
L 4064 1139 
L 4064 736 
L 928 736 
L 928 -429 
L 4762 -429 
z
M 5402 3078 
L 5402 3482 
L 4557 3482 
L 4557 5146 
L 4064 5146 
L 4064 1805 
L 4557 1805 
L 4557 3078 
L 5402 3078 
z
M 3571 4070 
L 3571 4448 
L 301 4448 
L 301 4070 
L 3571 4070 
z
M 2758 3187 
C 2758 2963 2381 2842 1926 2842 
C 1478 2842 1107 2957 1107 3187 
C 1107 3418 1466 3533 1926 3533 
C 2381 3533 2758 3418 2758 3187 
z
M 2707 4723 
L 2707 5120 
L 1165 5120 
L 1165 4723 
L 2707 4723 
z
" transform="scale(0.015625)"/>
      <path id="AppleSDGothicNeo-Regular-b3d9" d="M 4691 531 
C 4691 1165 3994 1504 2765 1504 
C 1542 1504 851 1139 851 531 
C 851 -90 1542 -448 2765 -448 
C 3994 -448 4691 -96 4691 531 
z
M 4685 3027 
L 4685 3430 
L 1350 3430 
L 1350 4474 
L 4659 4474 
L 4659 4877 
L 858 4877 
L 858 3027 
L 2522 3027 
L 2522 2317 
L 243 2317 
L 243 1914 
L 5293 1914 
L 5293 2317 
L 3008 2317 
L 3008 3027 
L 4685 3027 
z
M 2765 1107 
C 3654 1107 4192 890 4192 531 
C 4192 160 3654 -45 2765 -45 
C 1888 -45 1350 160 1350 531 
C 1350 890 1888 1107 2765 1107 
z
" transform="scale(0.015625)"/>
     </defs>
     <use xlink:href="#AppleSDGothicNeo-Regular-d65c"/>
     <use xlink:href="#AppleSDGothicNeo-Regular-b3d9" transform="translate(86.499985 0)"/>
    </g>
   </g>
   <g id="text_5">
    <!-- 유입 -->
    <g style="fill: #1c1b19" transform="translate(215.186464 32.646714) scale(0.08 -0.08)">
     <defs>
      <path id="AppleSDGothicNeo-Regular-c720" d="M 4755 3674 
C 4755 4403 4006 4890 2765 4890 
C 1530 4890 781 4403 781 3674 
C 781 2950 1530 2464 2765 2464 
C 4006 2464 4755 2957 4755 3674 
z
M 2035 -448 
L 2035 1536 
L 3482 1536 
L 3482 -448 
L 3968 -448 
L 3968 1536 
L 5293 1536 
L 5293 1946 
L 243 1946 
L 243 1536 
L 1549 1536 
L 1549 -448 
L 2035 -448 
z
M 2765 4461 
C 3706 4461 4275 4154 4275 3674 
C 4275 3200 3706 2893 2765 2893 
C 1837 2893 1261 3200 1261 3674 
C 1261 4154 1837 4461 2765 4461 
z
" transform="scale(0.015625)"/>
      <path id="AppleSDGothicNeo-Regular-c785" d="M 4813 2150 
L 4813 5146 
L 4326 5146 
L 4326 2150 
L 4813 2150 
z
M 4819 -371 
L 4819 1843 
L 4333 1843 
L 4333 1133 
L 1696 1133 
L 1696 1843 
L 1210 1843 
L 1210 -371 
L 4819 -371 
z
M 4333 26 
L 1696 26 
L 1696 736 
L 4333 736 
L 4333 26 
z
M 1830 4870 
C 1043 4870 390 4346 390 3558 
C 390 2765 1050 2266 1830 2266 
C 2618 2266 3264 2765 3264 3565 
C 3264 4358 2618 4870 1830 4870 
z
M 1830 4448 
C 2406 4448 2778 4083 2778 3558 
C 2778 3027 2400 2669 1830 2669 
C 1280 2669 877 3027 877 3565 
C 877 4090 1280 4448 1830 4448 
z
" transform="scale(0.015625)"/>
     </defs>
     <use xlink:href="#AppleSDGothicNeo-Regular-c720"/>
     <use xlink:href="#AppleSDGothicNeo-Regular-c785" transform="translate(86.499985 0)"/>
    </g>
   </g>
   <g id="text_6">
    <!-- 이탈 -->
    <g style="fill: #1c1b19" transform="translate(296.787808 32.646714) scale(0.08 -0.08)">
     <defs>
      <path id="AppleSDGothicNeo-Regular-c774" d="M 4845 -448 
L 4845 5146 
L 4358 5146 
L 4358 -448 
L 4845 -448 
z
M 429 2752 
C 429 1562 954 768 1869 768 
C 2797 768 3315 1562 3315 2746 
C 3315 3930 2797 4723 1869 4723 
C 954 4723 429 3930 429 2752 
z
M 2854 2746 
C 2854 1830 2464 1190 1869 1190 
C 1280 1190 890 1830 890 2746 
C 890 3667 1280 4301 1869 4301 
C 2464 4301 2854 3667 2854 2746 
z
" transform="scale(0.015625)"/>
      <path id="AppleSDGothicNeo-Regular-d0c8" d="M 4749 -397 
L 4749 13 
L 1478 13 
L 1478 602 
L 4538 602 
L 4538 1894 
L 966 1894 
L 966 1491 
L 4051 1491 
L 4051 973 
L 992 973 
L 992 -397 
L 4749 -397 
z
M 915 2790 
L 915 3456 
L 2944 3456 
L 2944 3840 
L 915 3840 
L 915 4410 
L 3027 4410 
L 3027 4806 
L 429 4806 
L 429 2394 
L 1203 2400 
C 2080 2406 2963 2464 3539 2566 
L 3482 2950 
C 2854 2822 1837 2790 1120 2790 
L 915 2790 
z
M 5389 3469 
L 5389 3872 
L 4538 3872 
L 4538 5146 
L 4051 5146 
L 4051 2189 
L 4538 2189 
L 4538 3469 
L 5389 3469 
z
" transform="scale(0.015625)"/>
     </defs>
     <use xlink:href="#AppleSDGothicNeo-Regular-c774"/>
     <use xlink:href="#AppleSDGothicNeo-Regular-d0c8" transform="translate(86.499985 0)"/>
    </g>
   </g>
   <g id="text_7">
    <!-- 증감 -->
    <g style="fill: #1c1b19" transform="translate(378.389152 32.610464) scale(0.08 -0.08)">
     <defs>
      <path id="AppleSDGothicNeo-Regular-c99d" d="M 4730 589 
C 4730 1222 4019 1562 2765 1562 
C 1517 1562 813 1197 813 589 
C 813 -32 1517 -390 2765 -390 
C 4019 -390 4730 -38 4730 589 
z
M 5043 3232 
C 4262 3302 3200 3757 3046 4435 
L 4832 4435 
L 4832 4838 
L 704 4838 
L 704 4435 
L 2502 4435 
C 2355 3763 1382 3309 506 3226 
L 730 2816 
C 1715 2963 2547 3462 2765 3974 
C 3046 3469 3885 2970 4819 2822 
L 5043 3232 
z
M 2765 1165 
C 3674 1165 4237 960 4237 589 
C 4237 211 3674 6 2765 6 
C 1862 6 1306 211 1306 589 
C 1306 960 1862 1165 2765 1165 
z
M 5293 2022 
L 5293 2432 
L 243 2432 
L 243 2022 
L 5293 2022 
z
" transform="scale(0.015625)"/>
      <path id="AppleSDGothicNeo-Regular-ac10" d="M 5395 3270 
L 5395 3674 
L 4544 3674 
L 4544 5146 
L 4058 5146 
L 4058 1914 
L 4544 1914 
L 4544 3270 
L 5395 3270 
z
M 4544 -371 
L 4544 1626 
L 1030 1626 
L 1030 -371 
L 4544 -371 
z
M 4058 32 
L 1517 32 
L 1517 1222 
L 4058 1222 
L 4058 32 
z
M 461 4717 
L 461 4307 
L 2490 4307 
C 2355 3296 1286 2496 186 2266 
L 410 1862 
C 1837 2272 2957 3181 3040 4717 
L 461 4717 
z
" transform="scale(0.015625)"/>
     </defs>
     <use xlink:href="#AppleSDGothicNeo-Regular-c99d"/>
     <use xlink:href="#AppleSDGothicNeo-Regular-ac10" transform="translate(86.499985 0)"/>
    </g>
   </g>
   <g id="text_8">
    <!-- 활동 -->
    <g style="fill: #1c1b19" transform="translate(459.990496 32.646714) scale(0.08 -0.08)">
     <use xlink:href="#AppleSDGothicNeo-Regular-d65c"/>
     <use xlink:href="#AppleSDGothicNeo-Regular-b3d9" transform="translate(86.499985 0)"/>
    </g>
   </g>
   <g id="text_9">
    <!-- 유입 -->
    <g style="fill: #1c1b19" transform="translate(541.59184 32.646714) scale(0.08 -0.08)">
     <use xlink:href="#AppleSDGothicNeo-Regular-c720"/>
     <use xlink:href="#AppleSDGothicNeo-Regular-c785" transform="translate(86.499985 0)"/>
    </g>
   </g>
   <g id="text_10">
    <!-- 이탈 -->
    <g style="fill: #1c1b19" transform="translate(623.193184 32.646714) scale(0.08 -0.08)">
     <use xlink:href="#AppleSDGothicNeo-Regular-c774"/>
     <use xlink:href="#AppleSDGothicNeo-Regular-d0c8" transform="translate(86.499985 0)"/>
    </g>
   </g>
   <g id="text_11">
    <!-- 증감 -->
    <g style="fill: #1c1b19" transform="translate(704.794528 32.610464) scale(0.08 -0.08)">
     <use xlink:href="#AppleSDGothicNeo-Regular-c99d"/>
     <use xlink:href="#AppleSDGothicNeo-Regular-ac10" transform="translate(86.499985 0)"/>
    </g>
   </g>
   <g id="text_12">
    <!-- 1989–92 -->
    <g style="fill: #1c1b19" transform="translate(19.586765 48.540093) scale(0.084 -0.084)">
     <defs>
      <path id="AppleSDGothicNeo-Regular-31" d="M 1146 243 
L 1632 243 
L 1632 4634 
L 1363 4634 
L 352 4160 
L 352 3866 
L 1146 4051 
L 1146 243 
z
" transform="scale(0.015625)"/>
      <path id="AppleSDGothicNeo-Regular-39" d="M 1696 4634 
C 826 4634 307 3949 307 3142 
C 307 2323 896 1798 1619 1798 
C 2093 1798 2445 2010 2675 2272 
C 2630 1069 2227 621 1523 621 
C 1178 621 832 723 646 832 
L 506 461 
C 704 326 1107 192 1549 192 
C 2586 192 3187 979 3187 2477 
L 3187 2758 
C 3187 3974 2656 4634 1696 4634 
z
M 1702 4211 
C 2387 4211 2675 3686 2675 2886 
L 2675 2765 
C 2496 2515 2131 2227 1722 2227 
C 1203 2227 813 2515 813 3187 
C 813 3782 1146 4211 1702 4211 
z
" transform="scale(0.015625)"/>
      <path id="AppleSDGothicNeo-Regular-38" d="M 1837 186 
C 2765 186 3341 723 3341 1408 
C 3341 2054 2829 2362 2298 2534 
C 2739 2765 3168 3066 3168 3584 
C 3168 4250 2624 4640 1818 4640 
C 992 4640 461 4179 461 3558 
C 461 3008 838 2682 1299 2502 
C 826 2317 339 1926 339 1363 
C 339 659 922 186 1837 186 
z
M 1830 608 
C 1261 608 851 909 851 1382 
C 851 1856 1280 2163 1702 2310 
C 2445 2074 2797 1882 2797 1357 
C 2797 915 2381 608 1830 608 
z
M 1920 2720 
C 1350 2867 1005 3130 1005 3571 
C 1005 3981 1331 4218 1824 4218 
C 2355 4218 2637 3942 2637 3565 
C 2637 3155 2323 2899 1920 2720 
z
" transform="scale(0.015625)"/>
      <path id="AppleSDGothicNeo-Regular-2013" d="M 2112 2566 
L 352 2566 
L 352 2214 
L 2112 2214 
L 2112 2566 
z
" transform="scale(0.015625)"/>
     </defs>
     <use xlink:href="#AppleSDGothicNeo-Regular-31"/>
     <use xlink:href="#AppleSDGothicNeo-Regular-39" transform="translate(35.699997 0)"/>
     <use xlink:href="#AppleSDGothicNeo-Regular-38" transform="translate(91.099991 0)"/>
     <use xlink:href="#AppleSDGothicNeo-Regular-39" transform="translate(148.599976 0)"/>
     <use xlink:href="#AppleSDGothicNeo-Regular-2013" transform="translate(203.999969 0)"/>
     <use xlink:href="#AppleSDGothicNeo-Regular-39" transform="translate(242.499954 0)"/>
     <use xlink:href="#AppleSDGothicNeo-Regular-32" transform="translate(297.899948 0)"/>
    </g>
   </g>
   <g id="text_13">
    <!-- 0 -->
    <g style="fill: #1c1b19" transform="translate(137.85912 48.540093) scale(0.084 -0.084)">
     <defs>
      <path id="AppleSDGothicNeo-Regular-30" d="M 2022 192 
C 2893 192 3558 787 3558 2240 
L 3558 2630 
C 3558 4122 2867 4634 2029 4634 
C 1184 4634 448 4122 448 2605 
L 448 2246 
C 448 794 1139 192 2022 192 
z
M 2022 614 
C 1350 614 992 1126 992 2195 
L 992 2669 
C 992 3744 1357 4211 2029 4211 
C 2688 4211 3040 3718 3040 2637 
L 3040 2163 
C 3040 1062 2682 614 2022 614 
z
" transform="scale(0.015625)"/>
     </defs>
     <use xlink:href="#AppleSDGothicNeo-Regular-30"/>
    </g>
   </g>
   <g id="text_14">
    <!-- 0 -->
    <g style="fill: #1c1b19" transform="translate(219.460464 48.540093) scale(0.084 -0.084)">
     <use xlink:href="#AppleSDGothicNeo-Regular-30"/>
    </g>
   </g>
   <g id="text_15">
    <!-- 0 -->
    <g style="fill: #1c1b19" transform="translate(301.061808 48.540093) scale(0.084 -0.084)">
     <use xlink:href="#AppleSDGothicNeo-Regular-30"/>
    </g>
   </g>
   <g id="text_16">
    <!-- 0 -->
    <g style="fill: #1c1b19" transform="translate(382.663152 48.540093) scale(0.084 -0.084)">
     <use xlink:href="#AppleSDGothicNeo-Regular-30"/>
    </g>
   </g>
   <g id="text_17">
    <!-- 0 -->
    <g style="fill: #1c1b19" transform="translate(464.264496 48.540093) scale(0.084 -0.084)">
     <use xlink:href="#AppleSDGothicNeo-Regular-30"/>
    </g>
   </g>
   <g id="text_18">
    <!-- 0 -->
    <g style="fill: #1c1b19" transform="translate(545.86584 48.540093) scale(0.084 -0.084)">
     <use xlink:href="#AppleSDGothicNeo-Regular-30"/>
    </g>
   </g>
   <g id="text_19">
    <!-- 0 -->
    <g style="fill: #1c1b19" transform="translate(627.467184 48.540093) scale(0.084 -0.084)">
     <use xlink:href="#AppleSDGothicNeo-Regular-30"/>
    </g>
   </g>
   <g id="text_20">
    <!-- 0 -->
    <g style="fill: #1c1b19" transform="translate(709.068528 48.540093) scale(0.084 -0.084)">
     <use xlink:href="#AppleSDGothicNeo-Regular-30"/>
    </g>
   </g>
   <g id="text_21">
    <!-- 1993–96 -->
    <g style="fill: #1c1b19" transform="translate(19.586765 64.343692) scale(0.084 -0.084)">
     <defs>
      <path id="AppleSDGothicNeo-Regular-36" d="M 1837 192 
C 2707 192 3232 826 3232 1645 
C 3232 2464 2656 2957 1939 2957 
C 1459 2957 1107 2733 877 2496 
C 941 3834 1350 4205 2080 4205 
C 2355 4205 2733 4096 2886 4006 
L 3034 4378 
C 2854 4486 2458 4634 2029 4634 
C 1037 4634 365 3968 365 2451 
L 365 2118 
C 365 896 877 192 1837 192 
z
M 1830 614 
C 1146 614 877 1139 877 1939 
L 877 1984 
C 1056 2240 1427 2528 1837 2528 
C 2355 2528 2720 2266 2720 1594 
C 2720 979 2387 614 1830 614 
z
" transform="scale(0.015625)"/>
     </defs>
     <use xlink:href="#AppleSDGothicNeo-Regular-31"/>
     <use xlink:href="#AppleSDGothicNeo-Regular-39" transform="translate(35.699997 0)"/>
     <use xlink:href="#AppleSDGothicNeo-Regular-39" transform="translate(91.099991 0)"/>
     <use xlink:href="#AppleSDGothicNeo-Regular-33" transform="translate(146.499985 0)"/>
     <use xlink:href="#AppleSDGothicNeo-Regular-2013" transform="translate(200.099976 0)"/>
     <use xlink:href="#AppleSDGothicNeo-Regular-39" transform="translate(238.59996 0)"/>
     <use xlink:href="#AppleSDGothicNeo-Regular-36" transform="translate(293.999954 0)"/>
    </g>
   </g>
   <g id="text_22">
    <!-- 7 -->
    <g style="fill: #1c1b19" transform="translate(138.44712 64.343692) scale(0.084 -0.084)">
     <use xlink:href="#AppleSDGothicNeo-Regular-37"/>
    </g>
   </g>
   <g id="text_23">
    <!-- 7 -->
    <g style="fill: #1c1b19" transform="translate(220.048464 64.343692) scale(0.084 -0.084)">
     <use xlink:href="#AppleSDGothicNeo-Regular-37"/>
    </g>
   </g>
   <g id="text_24">
    <!-- 0 -->
    <g style="fill: #1c1b19" transform="translate(301.061808 64.343692) scale(0.084 -0.084)">
     <use xlink:href="#AppleSDGothicNeo-Regular-30"/>
    </g>
   </g>
   <g id="text_25">
    <!-- +7 -->
    <g style="fill: #1c1b19" transform="translate(380.970683 64.343692) scale(0.084 -0.084)">
     <defs>
      <path id="AppleSDGothicNeo-Regular-2b" d="M 1562 883 
L 2016 883 
L 2016 2125 
L 3206 2125 
L 3206 2554 
L 2016 2554 
L 2016 3808 
L 1562 3808 
L 1562 2554 
L 346 2554 
L 346 2125 
L 1562 2125 
L 1562 883 
z
" transform="scale(0.015625)"/>
     </defs>
     <use xlink:href="#AppleSDGothicNeo-Regular-2b"/>
     <use xlink:href="#AppleSDGothicNeo-Regular-37" transform="translate(54.299988 0)"/>
    </g>
   </g>
   <g id="text_26">
    <!-- 1 -->
    <g style="fill: #1c1b19" transform="translate(465.410965 64.343692) scale(0.084 -0.084)">
     <use xlink:href="#AppleSDGothicNeo-Regular-31"/>
    </g>
   </g>
   <g id="text_27">
    <!-- 1 -->
    <g style="fill: #1c1b19" transform="translate(547.012309 64.343692) scale(0.084 -0.084)">
     <use xlink:href="#AppleSDGothicNeo-Regular-31"/>
    </g>
   </g>
   <g id="text_28">
    <!-- 0 -->
    <g style="fill: #1c1b19" transform="translate(627.467184 64.343692) scale(0.084 -0.084)">
     <use xlink:href="#AppleSDGothicNeo-Regular-30"/>
    </g>
   </g>
   <g id="text_29">
    <!-- +1 -->
    <g style="fill: #1c1b19" transform="translate(707.934528 64.343692) scale(0.084 -0.084)">
     <use xlink:href="#AppleSDGothicNeo-Regular-2b"/>
     <use xlink:href="#AppleSDGothicNeo-Regular-31" transform="translate(54.299988 0)"/>
    </g>
   </g>
   <g id="text_30">
    <!-- 1997–00 -->
    <g style="fill: #1c1b19" transform="translate(19.586765 80.14729) scale(0.084 -0.084)">
     <use xlink:href="#AppleSDGothicNeo-Regular-31"/>
     <use xlink:href="#AppleSDGothicNeo-Regular-39" transform="translate(35.699997 0)"/>
     <use xlink:href="#AppleSDGothicNeo-Regular-39" transform="translate(91.099991 0)"/>
     <use xlink:href="#AppleSDGothicNeo-Regular-37" transform="translate(146.499985 0)"/>
     <use xlink:href="#AppleSDGothicNeo-Regular-2013" transform="translate(195.499969 0)"/>
     <use xlink:href="#AppleSDGothicNeo-Regular-30" transform="translate(233.999954 0)"/>
     <use xlink:href="#AppleSDGothicNeo-Regular-30" transform="translate(296.999939 0)"/>
    </g>
   </g>
   <g id="text_31">
    <!-- 9 -->
    <g style="fill: #1c1b19" transform="translate(138.178057 80.14729) scale(0.084 -0.084)">
     <use xlink:href="#AppleSDGothicNeo-Regular-39"/>
    </g>
   </g>
   <g id="text_32">
    <!-- 3 -->
    <g style="fill: #1c1b19" transform="translate(219.855526 80.14729) scale(0.084 -0.084)">
     <use xlink:href="#AppleSDGothicNeo-Regular-33"/>
    </g>
   </g>
   <g id="text_33">
    <!-- 0 -->
    <g style="fill: #1c1b19" transform="translate(301.061808 80.14729) scale(0.084 -0.084)">
     <use xlink:href="#AppleSDGothicNeo-Regular-30"/>
    </g>
   </g>
   <g id="text_34">
    <!-- +3 -->
    <g style="fill: #1c1b19" transform="translate(380.777746 80.14729) scale(0.084 -0.084)">
     <use xlink:href="#AppleSDGothicNeo-Regular-2b"/>
     <use xlink:href="#AppleSDGothicNeo-Regular-33" transform="translate(54.299988 0)"/>
    </g>
   </g>
   <g id="text_35">
    <!-- 0 -->
    <g style="fill: #1c1b19" transform="translate(464.264496 80.14729) scale(0.084 -0.084)">
     <use xlink:href="#AppleSDGothicNeo-Regular-30"/>
    </g>
   </g>
   <g id="text_36">
    <!-- 0 -->
    <g style="fill: #1c1b19" transform="translate(545.86584 80.14729) scale(0.084 -0.084)">
     <use xlink:href="#AppleSDGothicNeo-Regular-30"/>
    </g>
   </g>
   <g id="text_37">
    <!-- 0 -->
    <g style="fill: #1c1b19" transform="translate(627.467184 80.14729) scale(0.084 -0.084)">
     <use xlink:href="#AppleSDGothicNeo-Regular-30"/>
    </g>
   </g>
   <g id="text_38">
    <!-- 0 -->
    <g style="fill: #1c1b19" transform="translate(709.068528 80.14729) scale(0.084 -0.084)">
     <use xlink:href="#AppleSDGothicNeo-Regular-30"/>
    </g>
   </g>
   <g id="text_39">
    <!-- 2001–04 -->
    <g style="fill: #1c1b19" transform="translate(19.586765 95.950889) scale(0.084 -0.084)">
     <use xlink:href="#AppleSDGothicNeo-Regular-32"/>
     <use xlink:href="#AppleSDGothicNeo-Regular-30" transform="translate(53.299988 0)"/>
     <use xlink:href="#AppleSDGothicNeo-Regular-30" transform="translate(116.299973 0)"/>
     <use xlink:href="#AppleSDGothicNeo-Regular-31" transform="translate(179.299957 0)"/>
     <use xlink:href="#AppleSDGothicNeo-Regular-2013" transform="translate(214.999954 0)"/>
     <use xlink:href="#AppleSDGothicNeo-Regular-30" transform="translate(253.499939 0)"/>
     <use xlink:href="#AppleSDGothicNeo-Regular-34" transform="translate(316.499924 0)"/>
    </g>
   </g>
   <g id="text_40">
    <!-- 11 -->
    <g style="fill: #1c1b19" transform="translate(137.506057 95.950889) scale(0.084 -0.084)">
     <use xlink:href="#AppleSDGothicNeo-Regular-31"/>
     <use xlink:href="#AppleSDGothicNeo-Regular-31" transform="translate(35.699997 0)"/>
    </g>
   </g>
   <g id="text_41">
    <!-- 4 -->
    <g style="fill: #1c1b19" transform="translate(219.775464 95.950889) scale(0.084 -0.084)">
     <use xlink:href="#AppleSDGothicNeo-Regular-34"/>
    </g>
   </g>
   <g id="text_42">
    <!-- 0 -->
    <g style="fill: #1c1b19" transform="translate(301.061808 95.950889) scale(0.084 -0.084)">
     <use xlink:href="#AppleSDGothicNeo-Regular-30"/>
    </g>
   </g>
   <g id="text_43">
    <!-- +4 -->
    <g style="fill: #1c1b19" transform="translate(380.697683 95.950889) scale(0.084 -0.084)">
     <use xlink:href="#AppleSDGothicNeo-Regular-2b"/>
     <use xlink:href="#AppleSDGothicNeo-Regular-34" transform="translate(54.299988 0)"/>
    </g>
   </g>
   <g id="text_44">
    <!-- 1 -->
    <g style="fill: #1c1b19" transform="translate(465.410965 95.950889) scale(0.084 -0.084)">
     <use xlink:href="#AppleSDGothicNeo-Regular-31"/>
    </g>
   </g>
   <g id="text_45">
    <!-- 0 -->
    <g style="fill: #1c1b19" transform="translate(545.86584 95.950889) scale(0.084 -0.084)">
     <use xlink:href="#AppleSDGothicNeo-Regular-30"/>
    </g>
   </g>
   <g id="text_46">
    <!-- 0 -->
    <g style="fill: #1c1b19" transform="translate(627.467184 95.950889) scale(0.084 -0.084)">
     <use xlink:href="#AppleSDGothicNeo-Regular-30"/>
    </g>
   </g>
   <g id="text_47">
    <!-- 0 -->
    <g style="fill: #1c1b19" transform="translate(709.068528 95.950889) scale(0.084 -0.084)">
     <use xlink:href="#AppleSDGothicNeo-Regular-30"/>
    </g>
   </g>
   <g id="text_48">
    <!-- 2005–08 -->
    <g style="fill: #1c1b19" transform="translate(19.586765 111.754487) scale(0.084 -0.084)">
     <defs>
      <path id="AppleSDGothicNeo-Regular-35" d="M 1395 192 
C 2342 192 2906 838 2906 1606 
C 2906 2509 2374 2918 1510 2918 
C 1331 2918 1069 2874 896 2829 
L 986 4134 
L 2752 4134 
L 2752 4570 
L 576 4570 
L 422 2317 
C 621 2406 1024 2528 1318 2528 
C 1990 2528 2374 2266 2374 1613 
C 2374 1005 1978 621 1299 621 
C 947 621 525 768 288 928 
L 192 518 
C 448 333 896 192 1395 192 
z
" transform="scale(0.015625)"/>
     </defs>
     <use xlink:href="#AppleSDGothicNeo-Regular-32"/>
     <use xlink:href="#AppleSDGothicNeo-Regular-30" transform="translate(53.299988 0)"/>
     <use xlink:href="#AppleSDGothicNeo-Regular-30" transform="translate(116.299973 0)"/>
     <use xlink:href="#AppleSDGothicNeo-Regular-35" transform="translate(179.299957 0)"/>
     <use xlink:href="#AppleSDGothicNeo-Regular-2013" transform="translate(229.199951 0)"/>
     <use xlink:href="#AppleSDGothicNeo-Regular-30" transform="translate(267.699936 0)"/>
     <use xlink:href="#AppleSDGothicNeo-Regular-38" transform="translate(330.699921 0)"/>
    </g>
   </g>
   <g id="text_49">
    <!-- 15 -->
    <g style="fill: #1c1b19" transform="translate(136.909526 111.754487) scale(0.084 -0.084)">
     <use xlink:href="#AppleSDGothicNeo-Regular-31"/>
     <use xlink:href="#AppleSDGothicNeo-Regular-35" transform="translate(35.699997 0)"/>
    </g>
   </g>
   <g id="text_50">
    <!-- 6 -->
    <g style="fill: #1c1b19" transform="translate(219.779401 111.754487) scale(0.084 -0.084)">
     <use xlink:href="#AppleSDGothicNeo-Regular-36"/>
    </g>
   </g>
   <g id="text_51">
    <!-- 1 -->
    <g style="fill: #1c1b19" transform="translate(302.208277 111.754487) scale(0.084 -0.084)">
     <use xlink:href="#AppleSDGothicNeo-Regular-31"/>
    </g>
   </g>
   <g id="text_52">
    <!-- +5 -->
    <g style="fill: #1c1b19" transform="translate(380.932621 111.754487) scale(0.084 -0.084)">
     <use xlink:href="#AppleSDGothicNeo-Regular-2b"/>
     <use xlink:href="#AppleSDGothicNeo-Regular-35" transform="translate(54.299988 0)"/>
    </g>
   </g>
   <g id="text_53">
    <!-- 5 -->
    <g style="fill: #1c1b19" transform="translate(464.814433 111.754487) scale(0.084 -0.084)">
     <use xlink:href="#AppleSDGothicNeo-Regular-35"/>
    </g>
   </g>
   <g id="text_54">
    <!-- 4 -->
    <g style="fill: #1c1b19" transform="translate(546.18084 111.754487) scale(0.084 -0.084)">
     <use xlink:href="#AppleSDGothicNeo-Regular-34"/>
    </g>
   </g>
   <g id="text_55">
    <!-- 0 -->
    <g style="fill: #1c1b19" transform="translate(627.467184 111.754487) scale(0.084 -0.084)">
     <use xlink:href="#AppleSDGothicNeo-Regular-30"/>
    </g>
   </g>
   <g id="text_56">
    <!-- +4 -->
    <g style="fill: #1c1b19" transform="translate(707.103059 111.754487) scale(0.084 -0.084)">
     <use xlink:href="#AppleSDGothicNeo-Regular-2b"/>
     <use xlink:href="#AppleSDGothicNeo-Regular-34" transform="translate(54.299988 0)"/>
    </g>
   </g>
   <g id="text_57">
    <!-- 2009–12 -->
    <g style="fill: #1c1b19" transform="translate(19.586765 127.558086) scale(0.084 -0.084)">
     <use xlink:href="#AppleSDGothicNeo-Regular-32"/>
     <use xlink:href="#AppleSDGothicNeo-Regular-30" transform="translate(53.299988 0)"/>
     <use xlink:href="#AppleSDGothicNeo-Regular-30" transform="translate(116.299973 0)"/>
     <use xlink:href="#AppleSDGothicNeo-Regular-39" transform="translate(179.299957 0)"/>
     <use xlink:href="#AppleSDGothicNeo-Regular-2013" transform="translate(234.699951 0)"/>
     <use xlink:href="#AppleSDGothicNeo-Regular-31" transform="translate(273.199936 0)"/>
     <use xlink:href="#AppleSDGothicNeo-Regular-32" transform="translate(308.899933 0)"/>
    </g>
   </g>
   <g id="text_58">
    <!-- 17 -->
    <g style="fill: #1c1b19" transform="translate(136.947589 127.558086) scale(0.084 -0.084)">
     <use xlink:href="#AppleSDGothicNeo-Regular-31"/>
     <use xlink:href="#AppleSDGothicNeo-Regular-37" transform="translate(35.699997 0)"/>
    </g>
   </g>
   <g id="text_59">
    <!-- 5 -->
    <g style="fill: #1c1b19" transform="translate(220.010401 127.558086) scale(0.084 -0.084)">
     <use xlink:href="#AppleSDGothicNeo-Regular-35"/>
    </g>
   </g>
   <g id="text_60">
    <!-- 6 -->
    <g style="fill: #1c1b19" transform="translate(301.380745 127.558086) scale(0.084 -0.084)">
     <use xlink:href="#AppleSDGothicNeo-Regular-36"/>
    </g>
   </g>
   <g id="text_61">
    <!-- -1 -->
    <g style="fill: #1c1b19" transform="translate(381.995089 127.558086) scale(0.084 -0.084)">
     <defs>
      <path id="AppleSDGothicNeo-Regular-2d" d="M 333 2138 
L 2445 2138 
L 2445 2560 
L 333 2560 
L 333 2138 
z
" transform="scale(0.015625)"/>
     </defs>
     <use xlink:href="#AppleSDGothicNeo-Regular-2d"/>
     <use xlink:href="#AppleSDGothicNeo-Regular-31" transform="translate(43.199997 0)"/>
    </g>
   </g>
   <g id="text_62">
    <!-- 11 -->
    <g style="fill: #1c1b19" transform="translate(463.911433 127.558086) scale(0.084 -0.084)">
     <use xlink:href="#AppleSDGothicNeo-Regular-31"/>
     <use xlink:href="#AppleSDGothicNeo-Regular-31" transform="translate(35.699997 0)"/>
    </g>
   </g>
   <g id="text_63">
    <!-- 7 -->
    <g style="fill: #1c1b19" transform="translate(546.45384 127.558086) scale(0.084 -0.084)">
     <use xlink:href="#AppleSDGothicNeo-Regular-37"/>
    </g>
   </g>
   <g id="text_64">
    <!-- 0 -->
    <g style="fill: #1c1b19" transform="translate(627.467184 127.558086) scale(0.084 -0.084)">
     <use xlink:href="#AppleSDGothicNeo-Regular-30"/>
    </g>
   </g>
   <g id="text_65">
    <!-- +7 -->
    <g style="fill: #1c1b19" transform="translate(707.376059 127.558086) scale(0.084 -0.084)">
     <use xlink:href="#AppleSDGothicNeo-Regular-2b"/>
     <use xlink:href="#AppleSDGothicNeo-Regular-37" transform="translate(54.299988 0)"/>
    </g>
   </g>
   <g id="text_66">
    <!-- 2013–16 -->
    <g style="fill: #1c1b19" transform="translate(19.586765 143.361684) scale(0.084 -0.084)">
     <use xlink:href="#AppleSDGothicNeo-Regular-32"/>
     <use xlink:href="#AppleSDGothicNeo-Regular-30" transform="translate(53.299988 0)"/>
     <use xlink:href="#AppleSDGothicNeo-Regular-31" transform="translate(116.299973 0)"/>
     <use xlink:href="#AppleSDGothicNeo-Regular-33" transform="translate(151.999969 0)"/>
     <use xlink:href="#AppleSDGothicNeo-Regular-2013" transform="translate(205.59996 0)"/>
     <use xlink:href="#AppleSDGothicNeo-Regular-31" transform="translate(244.099945 0)"/>
     <use xlink:href="#AppleSDGothicNeo-Regular-36" transform="translate(279.799942 0)"/>
    </g>
   </g>
   <g id="text_67">
    <!-- 25 -->
    <g style="fill: #1c1b19" transform="translate(136.170589 143.361684) scale(0.084 -0.084)">
     <use xlink:href="#AppleSDGothicNeo-Regular-32"/>
     <use xlink:href="#AppleSDGothicNeo-Regular-35" transform="translate(53.299988 0)"/>
    </g>
   </g>
   <g id="text_68">
    <!-- 11 -->
    <g style="fill: #1c1b19" transform="translate(219.107401 143.361684) scale(0.084 -0.084)">
     <use xlink:href="#AppleSDGothicNeo-Regular-31"/>
     <use xlink:href="#AppleSDGothicNeo-Regular-31" transform="translate(35.699997 0)"/>
    </g>
   </g>
   <g id="text_69">
    <!-- 2 -->
    <g style="fill: #1c1b19" transform="translate(301.469339 143.361684) scale(0.084 -0.084)">
     <use xlink:href="#AppleSDGothicNeo-Regular-32"/>
    </g>
   </g>
   <g id="text_70">
    <!-- +9 -->
    <g style="fill: #1c1b19" transform="translate(380.701621 143.361684) scale(0.084 -0.084)">
     <use xlink:href="#AppleSDGothicNeo-Regular-2b"/>
     <use xlink:href="#AppleSDGothicNeo-Regular-39" transform="translate(54.299988 0)"/>
    </g>
   </g>
   <g id="text_71">
    <!-- 7 -->
    <g style="fill: #1c1b19" transform="translate(464.852496 143.361684) scale(0.084 -0.084)">
     <use xlink:href="#AppleSDGothicNeo-Regular-37"/>
    </g>
   </g>
   <g id="text_72">
    <!-- 2 -->
    <g style="fill: #1c1b19" transform="translate(546.273371 143.361684) scale(0.084 -0.084)">
     <use xlink:href="#AppleSDGothicNeo-Regular-32"/>
    </g>
   </g>
   <g id="text_73">
    <!-- 6 -->
    <g style="fill: #1c1b19" transform="translate(627.786121 143.361684) scale(0.084 -0.084)">
     <use xlink:href="#AppleSDGothicNeo-Regular-36"/>
    </g>
   </g>
   <g id="text_74">
    <!-- -4 -->
    <g style="fill: #1c1b19" transform="translate(707.568997 143.361684) scale(0.084 -0.084)">
     <use xlink:href="#AppleSDGothicNeo-Regular-2d"/>
     <use xlink:href="#AppleSDGothicNeo-Regular-34" transform="translate(43.199997 0)"/>
    </g>
   </g>
   <g id="text_75">
    <!-- 2017–20 -->
    <g style="fill: #1c1b19" transform="translate(19.586765 159.165283) scale(0.084 -0.084)">
     <use xlink:href="#AppleSDGothicNeo-Regular-32"/>
     <use xlink:href="#AppleSDGothicNeo-Regular-30" transform="translate(53.299988 0)"/>
     <use xlink:href="#AppleSDGothicNeo-Regular-31" transform="translate(116.299973 0)"/>
     <use xlink:href="#AppleSDGothicNeo-Regular-37" transform="translate(151.999969 0)"/>
     <use xlink:href="#AppleSDGothicNeo-Regular-2013" transform="translate(200.999954 0)"/>
     <use xlink:href="#AppleSDGothicNeo-Regular-32" transform="translate(239.499939 0)"/>
     <use xlink:href="#AppleSDGothicNeo-Regular-30" transform="translate(292.799927 0)"/>
    </g>
   </g>
   <g id="text_76">
    <!-- 25 -->
    <g style="fill: #1c1b19" transform="translate(136.170589 159.165283) scale(0.084 -0.084)">
     <use xlink:href="#AppleSDGothicNeo-Regular-32"/>
     <use xlink:href="#AppleSDGothicNeo-Regular-35" transform="translate(53.299988 0)"/>
    </g>
   </g>
   <g id="text_77">
    <!-- 6 -->
    <g style="fill: #1c1b19" transform="translate(219.779401 159.165283) scale(0.084 -0.084)">
     <use xlink:href="#AppleSDGothicNeo-Regular-36"/>
    </g>
   </g>
   <g id="text_78">
    <!-- 8 -->
    <g style="fill: #1c1b19" transform="translate(301.292808 159.165283) scale(0.084 -0.084)">
     <use xlink:href="#AppleSDGothicNeo-Regular-38"/>
    </g>
   </g>
   <g id="text_79">
    <!-- -2 -->
    <g style="fill: #1c1b19" transform="translate(381.256152 159.165283) scale(0.084 -0.084)">
     <use xlink:href="#AppleSDGothicNeo-Regular-2d"/>
     <use xlink:href="#AppleSDGothicNeo-Regular-32" transform="translate(43.199997 0)"/>
    </g>
   </g>
   <g id="text_80">
    <!-- 12 -->
    <g style="fill: #1c1b19" transform="translate(463.172496 159.165283) scale(0.084 -0.084)">
     <use xlink:href="#AppleSDGothicNeo-Regular-31"/>
     <use xlink:href="#AppleSDGothicNeo-Regular-32" transform="translate(35.699997 0)"/>
    </g>
   </g>
   <g id="text_81">
    <!-- 7 -->
    <g style="fill: #1c1b19" transform="translate(546.45384 159.165283) scale(0.084 -0.084)">
     <use xlink:href="#AppleSDGothicNeo-Regular-37"/>
    </g>
   </g>
   <g id="text_82">
    <!-- 3 -->
    <g style="fill: #1c1b19" transform="translate(627.862246 159.165283) scale(0.084 -0.084)">
     <use xlink:href="#AppleSDGothicNeo-Regular-33"/>
    </g>
   </g>
   <g id="text_83">
    <!-- +4 -->
    <g style="fill: #1c1b19" transform="translate(707.103059 159.165283) scale(0.084 -0.084)">
     <use xlink:href="#AppleSDGothicNeo-Regular-2b"/>
     <use xlink:href="#AppleSDGothicNeo-Regular-34" transform="translate(54.299988 0)"/>
    </g>
   </g>
   <g id="text_84">
    <!-- 2021–24 -->
    <g style="fill: #1c1b19" transform="translate(19.586765 174.968881) scale(0.084 -0.084)">
     <use xlink:href="#AppleSDGothicNeo-Regular-32"/>
     <use xlink:href="#AppleSDGothicNeo-Regular-30" transform="translate(53.299988 0)"/>
     <use xlink:href="#AppleSDGothicNeo-Regular-32" transform="translate(116.299973 0)"/>
     <use xlink:href="#AppleSDGothicNeo-Regular-31" transform="translate(169.59996 0)"/>
     <use xlink:href="#AppleSDGothicNeo-Regular-2013" transform="translate(205.299957 0)"/>
     <use xlink:href="#AppleSDGothicNeo-Regular-32" transform="translate(243.799942 0)"/>
     <use xlink:href="#AppleSDGothicNeo-Regular-34" transform="translate(297.09993 0)"/>
    </g>
   </g>
   <g id="text_85">
    <!-- 14 -->
    <g style="fill: #1c1b19" transform="translate(136.674589 174.968881) scale(0.084 -0.084)">
     <use xlink:href="#AppleSDGothicNeo-Regular-31"/>
     <use xlink:href="#AppleSDGothicNeo-Regular-34" transform="translate(35.699997 0)"/>
    </g>
   </g>
   <g id="text_86">
    <!-- 1 -->
    <g style="fill: #1c1b19" transform="translate(220.606933 174.968881) scale(0.084 -0.084)">
     <use xlink:href="#AppleSDGothicNeo-Regular-31"/>
    </g>
   </g>
   <g id="text_87">
    <!-- 11 -->
    <g style="fill: #1c1b19" transform="translate(300.708745 174.968881) scale(0.084 -0.084)">
     <use xlink:href="#AppleSDGothicNeo-Regular-31"/>
     <use xlink:href="#AppleSDGothicNeo-Regular-31" transform="translate(35.699997 0)"/>
    </g>
   </g>
   <g id="text_88">
    <!-- -10 -->
    <g style="fill: #1c1b19" transform="translate(379.349089 174.968881) scale(0.084 -0.084)">
     <use xlink:href="#AppleSDGothicNeo-Regular-2d"/>
     <use xlink:href="#AppleSDGothicNeo-Regular-31" transform="translate(43.199997 0)"/>
     <use xlink:href="#AppleSDGothicNeo-Regular-30" transform="translate(78.899994 0)"/>
    </g>
   </g>
   <g id="text_89">
    <!-- 7 -->
    <g style="fill: #1c1b19" transform="translate(464.852496 174.968881) scale(0.084 -0.084)">
     <use xlink:href="#AppleSDGothicNeo-Regular-37"/>
    </g>
   </g>
   <g id="text_90">
    <!-- 5 -->
    <g style="fill: #1c1b19" transform="translate(546.415777 174.968881) scale(0.084 -0.084)">
     <use xlink:href="#AppleSDGothicNeo-Regular-35"/>
    </g>
   </g>
   <g id="text_91">
    <!-- 10 -->
    <g style="fill: #1c1b19" transform="translate(625.967653 174.968881) scale(0.084 -0.084)">
     <use xlink:href="#AppleSDGothicNeo-Regular-31"/>
     <use xlink:href="#AppleSDGothicNeo-Regular-30" transform="translate(35.699997 0)"/>
    </g>
   </g>
   <g id="text_92">
    <!-- -5 -->
    <g style="fill: #1c1b19" transform="translate(707.803934 174.968881) scale(0.084 -0.084)">
     <use xlink:href="#AppleSDGothicNeo-Regular-2d"/>
     <use xlink:href="#AppleSDGothicNeo-Regular-35" transform="translate(43.199997 0)"/>
    </g>
   </g>
   <g id="text_93">
    <!-- 2025–26 -->
    <g style="fill: #1c1b19" transform="translate(19.586765 190.77248) scale(0.084 -0.084)">
     <use xlink:href="#AppleSDGothicNeo-Regular-32"/>
     <use xlink:href="#AppleSDGothicNeo-Regular-30" transform="translate(53.299988 0)"/>
     <use xlink:href="#AppleSDGothicNeo-Regular-32" transform="translate(116.299973 0)"/>
     <use xlink:href="#AppleSDGothicNeo-Regular-35" transform="translate(169.59996 0)"/>
     <use xlink:href="#AppleSDGothicNeo-Regular-2013" transform="translate(219.499954 0)"/>
     <use xlink:href="#AppleSDGothicNeo-Regular-32" transform="translate(257.999939 0)"/>
     <use xlink:href="#AppleSDGothicNeo-Regular-36" transform="translate(311.299927 0)"/>
    </g>
   </g>
   <g id="text_94">
    <!-- 6 -->
    <g style="fill: #1c1b19" transform="translate(138.178057 190.77248) scale(0.084 -0.084)">
     <use xlink:href="#AppleSDGothicNeo-Regular-36"/>
    </g>
   </g>
   <g id="text_95">
    <!-- 0 -->
    <g style="fill: #1c1b19" transform="translate(219.460464 190.77248) scale(0.084 -0.084)">
     <use xlink:href="#AppleSDGothicNeo-Regular-30"/>
    </g>
   </g>
   <g id="text_96">
    <!-- 9 -->
    <g style="fill: #1c1b19" transform="translate(301.380745 190.77248) scale(0.084 -0.084)">
     <use xlink:href="#AppleSDGothicNeo-Regular-39"/>
    </g>
   </g>
   <g id="text_97">
    <!-- -9 -->
    <g style="fill: #1c1b19" transform="translate(381.167558 190.77248) scale(0.084 -0.084)">
     <use xlink:href="#AppleSDGothicNeo-Regular-2d"/>
     <use xlink:href="#AppleSDGothicNeo-Regular-39" transform="translate(43.199997 0)"/>
    </g>
   </g>
   <g id="text_98">
    <!-- 2 -->
    <g style="fill: #1c1b19" transform="translate(464.672027 190.77248) scale(0.084 -0.084)">
     <use xlink:href="#AppleSDGothicNeo-Regular-32"/>
    </g>
   </g>
   <g id="text_99">
    <!-- 1 -->
    <g style="fill: #1c1b19" transform="translate(547.012309 190.77248) scale(0.084 -0.084)">
     <use xlink:href="#AppleSDGothicNeo-Regular-31"/>
    </g>
   </g>
   <g id="text_100">
    <!-- 6 -->
    <g style="fill: #1c1b19" transform="translate(627.786121 190.77248) scale(0.084 -0.084)">
     <use xlink:href="#AppleSDGothicNeo-Regular-36"/>
    </g>
   </g>
   <g id="text_101">
    <!-- -5 -->
    <g style="fill: #1c1b19" transform="translate(707.803934 190.77248) scale(0.084 -0.084)">
     <use xlink:href="#AppleSDGothicNeo-Regular-2d"/>
     <use xlink:href="#AppleSDGothicNeo-Regular-35" transform="translate(43.199997 0)"/>
    </g>
   </g>
   <g id="text_102">
    <!-- 합계 -->
    <g style="fill: #1c1b19" transform="translate(19.586765 206.618734) scale(0.084 -0.084)">
     <defs>
      <path id="AppleSDGothicNeo-Regular-d569" d="M 5395 3155 
L 5395 3565 
L 4544 3565 
L 4544 5146 
L 4058 5146 
L 4058 1901 
L 4544 1901 
L 4544 3155 
L 5395 3155 
z
M 4544 -410 
L 4544 1632 
L 4058 1632 
L 4058 1030 
L 1510 1030 
L 1510 1626 
L 1024 1626 
L 1024 -410 
L 4544 -410 
z
M 4058 0 
L 1510 0 
L 1510 627 
L 4058 627 
L 4058 0 
z
M 2656 4659 
L 2656 5069 
L 1043 5069 
L 1043 4659 
L 2656 4659 
z
M 3475 3872 
L 3475 4269 
L 218 4269 
L 218 3872 
L 3475 3872 
z
M 3149 2739 
C 3149 3302 2605 3648 1850 3648 
C 1075 3648 550 3302 550 2739 
C 550 2189 1088 1837 1850 1837 
C 2605 1837 3149 2189 3149 2739 
z
M 2656 2739 
C 2656 2419 2285 2221 1850 2221 
C 1421 2221 1030 2419 1030 2739 
C 1030 3066 1414 3258 1850 3258 
C 2285 3258 2656 3066 2656 2739 
z
" transform="scale(0.015625)"/>
      <path id="AppleSDGothicNeo-Regular-acc4" d="M 3898 -166 
L 3898 5011 
L 3424 5011 
L 3424 3610 
L 2598 3610 
L 2598 3200 
L 3424 3200 
L 3424 2176 
L 2470 2176 
L 2470 1773 
L 3424 1773 
L 3424 -166 
L 3898 -166 
z
M 4960 -448 
L 4960 5146 
L 4480 5146 
L 4480 -448 
L 4960 -448 
z
M 2534 4448 
L 416 4448 
L 416 4038 
L 2048 4038 
C 1971 2874 1370 1747 205 1114 
L 525 749 
C 1818 1574 2496 2739 2534 4448 
z
" transform="scale(0.015625)"/>
     </defs>
     <use xlink:href="#AppleSDGothicNeo-Regular-d569"/>
     <use xlink:href="#AppleSDGothicNeo-Regular-acc4" transform="translate(86.499985 0)"/>
    </g>
   </g>
   <g id="text_103">
    <!-- – -->
    <g style="fill: #1c1b19" transform="translate(138.88812 206.576078) scale(0.084 -0.084)">
     <use xlink:href="#AppleSDGothicNeo-Regular-2013"/>
    </g>
   </g>
   <g id="text_104">
    <!-- 43 -->
    <g style="fill: #1c1b19" transform="translate(217.524526 206.576078) scale(0.084 -0.084)">
     <use xlink:href="#AppleSDGothicNeo-Regular-34"/>
     <use xlink:href="#AppleSDGothicNeo-Regular-33" transform="translate(55.499985 0)"/>
    </g>
   </g>
   <g id="text_105">
    <!-- 37 -->
    <g style="fill: #1c1b19" transform="translate(299.39887 206.576078) scale(0.084 -0.084)">
     <use xlink:href="#AppleSDGothicNeo-Regular-33"/>
     <use xlink:href="#AppleSDGothicNeo-Regular-37" transform="translate(53.599991 0)"/>
    </g>
   </g>
   <g id="text_106">
    <!-- +6 -->
    <g style="fill: #1c1b19" transform="translate(380.701621 206.576078) scale(0.084 -0.084)">
     <use xlink:href="#AppleSDGothicNeo-Regular-2b"/>
     <use xlink:href="#AppleSDGothicNeo-Regular-36" transform="translate(54.299988 0)"/>
    </g>
   </g>
   <g id="text_107">
    <!-- – -->
    <g style="fill: #1c1b19" transform="translate(465.293496 206.576078) scale(0.084 -0.084)">
     <use xlink:href="#AppleSDGothicNeo-Regular-2013"/>
    </g>
   </g>
   <g id="text_108">
    <!-- 27 -->
    <g style="fill: #1c1b19" transform="translate(544.215371 206.576078) scale(0.084 -0.084)">
     <use xlink:href="#AppleSDGothicNeo-Regular-32"/>
     <use xlink:href="#AppleSDGothicNeo-Regular-37" transform="translate(53.299988 0)"/>
    </g>
   </g>
   <g id="text_109">
    <!-- 25 -->
    <g style="fill: #1c1b19" transform="translate(625.778653 206.576078) scale(0.084 -0.084)">
     <use xlink:href="#AppleSDGothicNeo-Regular-32"/>
     <use xlink:href="#AppleSDGothicNeo-Regular-35" transform="translate(53.299988 0)"/>
    </g>
   </g>
   <g id="text_110">
    <!-- +2 -->
    <g style="fill: #1c1b19" transform="translate(707.19559 206.576078) scale(0.084 -0.084)">
     <use xlink:href="#AppleSDGothicNeo-Regular-2b"/>
     <use xlink:href="#AppleSDGothicNeo-Regular-32" transform="translate(54.299988 0)"/>
    </g>
   </g>
   <g id="line2d_20">
    <path d="M 426.109824 211.739346 
L 426.109824 6.292566 
" clip-path="url(#p24fa482121)" style="fill: none; stroke: #6e675c; stroke-linecap: square"/>
   </g>
   <g id="line2d_21">
    <path d="M 10.6848 6.292566 
L 752.5152 6.292566 
" clip-path="url(#p24fa482121)" style="fill: none; stroke: #6e675c; stroke-linecap: square"/>
   </g>
   <g id="line2d_22">
    <path d="M 10.6848 37.899763 
L 752.5152 37.899763 
" clip-path="url(#p24fa482121)" style="fill: none; stroke: #6e675c; stroke-linecap: square"/>
   </g>
   <g id="line2d_23">
    <path d="M 10.6848 211.739346 
L 752.5152 211.739346 
" clip-path="url(#p24fa482121)" style="fill: none; stroke: #6e675c; stroke-linecap: square"/>
   </g>
   <g id="line2d_24">
    <path d="M 10.6848 195.935748 
L 752.5152 195.935748 
" clip-path="url(#p24fa482121)" style="fill: none; stroke: #6e675c; stroke-width: 0.9; stroke-linecap: square"/>
   </g>
  </g>
  <g id="text_111">
   <!-- 활동 = 그 구간 게재한 핵심 필자 수 · 유입 = 3편째 게재 · 이탈 = 이전 구간 마지막 게재 후 미게재 · 증감 = 유입 - 이탈 · 주저자 기준 · 2025–26 부분(잠정) -->
   <g style="fill: #6e675c" transform="translate(10.6848 222.264) scale(0.066 -0.066)">
    <defs>
     <path id="AppleSDGothicNeo-Regular-3d" d="M 422 2816 
L 2970 2816 
L 2970 3226 
L 422 3226 
L 422 2816 
z
M 422 1542 
L 2970 1542 
L 2970 1952 
L 422 1952 
L 422 1542 
z
" transform="scale(0.015625)"/>
     <path id="AppleSDGothicNeo-Regular-adf8" d="M 5293 378 
L 5293 787 
L 243 787 
L 243 378 
L 5293 378 
z
M 4570 4518 
L 768 4518 
L 768 4115 
L 4070 4115 
C 4070 3200 3987 1984 3834 1274 
L 4320 1210 
C 4493 2067 4570 3232 4570 4518 
z
" transform="scale(0.015625)"/>
     <path id="AppleSDGothicNeo-Regular-ac8c" d="M 4960 -448 
L 4960 5146 
L 4480 5146 
L 4480 -448 
L 4960 -448 
z
M 3872 -166 
L 3872 5011 
L 3405 5011 
L 3405 2970 
L 2464 2970 
L 2464 2560 
L 3405 2560 
L 3405 -166 
L 3872 -166 
z
M 2605 4493 
L 403 4493 
L 403 4083 
L 2106 4083 
C 2048 2944 1357 1766 186 1107 
L 518 749 
C 1837 1600 2566 2829 2605 4493 
z
" transform="scale(0.015625)"/>
     <path id="AppleSDGothicNeo-Regular-c7ac" d="M 4960 -448 
L 4960 5146 
L 4480 5146 
L 4480 2899 
L 3789 2899 
L 3789 5011 
L 3322 5011 
L 3322 -166 
L 3789 -166 
L 3789 2496 
L 4480 2496 
L 4480 -448 
L 4960 -448 
z
M 3059 1261 
C 2470 1626 1882 2413 1882 3520 
L 1882 4070 
L 2957 4070 
L 2957 4474 
L 288 4474 
L 288 4070 
L 1402 4070 
L 1402 3501 
C 1402 2419 813 1536 154 1114 
L 480 768 
C 1024 1158 1530 1818 1645 2438 
C 1805 1850 2355 1178 2752 902 
L 3059 1261 
z
" transform="scale(0.015625)"/>
     <path id="AppleSDGothicNeo-Regular-d55c" d="M 5395 2842 
L 5395 3251 
L 4544 3251 
L 4544 5146 
L 4058 5146 
L 4058 1018 
L 4544 1018 
L 4544 2842 
L 5395 2842 
z
M 4762 -269 
L 4762 141 
L 1523 141 
L 1523 1165 
L 1037 1165 
L 1037 -269 
L 4762 -269 
z
M 2630 4518 
L 2630 4947 
L 1018 4947 
L 1018 4518 
L 2630 4518 
z
M 3494 3693 
L 3494 4096 
L 218 4096 
L 218 3693 
L 3494 3693 
z
M 3174 2413 
C 3174 3014 2611 3392 1856 3392 
C 1107 3392 544 3014 544 2413 
C 544 1824 1114 1434 1856 1434 
C 2611 1434 3174 1824 3174 2413 
z
M 2714 2413 
C 2714 2048 2310 1824 1856 1824 
C 1408 1824 1005 2048 1005 2413 
C 1005 2784 1408 3008 1856 3008 
C 2310 3008 2714 2784 2714 2413 
z
" transform="scale(0.015625)"/>
     <path id="AppleSDGothicNeo-Regular-d575" d="M 4960 1690 
L 4960 5146 
L 4474 5146 
L 4474 3539 
L 3795 3539 
L 3795 5043 
L 3322 5043 
L 3322 1747 
L 3795 1747 
L 3795 3136 
L 4474 3136 
L 4474 1690 
L 4960 1690 
z
M 2810 2669 
C 2810 3206 2310 3526 1651 3526 
C 986 3526 486 3206 486 2669 
C 486 2125 986 1805 1651 1805 
C 2310 1805 2810 2125 2810 2669 
z
M 4960 -448 
L 4960 1408 
L 1203 1408 
L 1203 1011 
L 4467 1011 
L 4467 -448 
L 4960 -448 
z
M 3059 3763 
L 3059 4160 
L 218 4160 
L 218 3763 
L 3059 3763 
z
M 2349 2669 
C 2349 2374 2042 2195 1651 2195 
C 1254 2195 954 2374 954 2669 
C 954 2963 1254 3136 1651 3136 
C 2035 3136 2349 2963 2349 2669 
z
M 2362 4557 
L 2362 4966 
L 928 4966 
L 928 4557 
L 2362 4557 
z
" transform="scale(0.015625)"/>
     <path id="AppleSDGothicNeo-Regular-c2ec" d="M 4832 1965 
L 4832 5146 
L 4346 5146 
L 4346 1965 
L 4832 1965 
z
M 3571 2560 
C 2938 2784 2182 3475 2182 4371 
L 2182 4883 
L 1690 4883 
L 1690 4352 
C 1690 3462 1056 2752 275 2394 
L 576 2016 
C 1280 2400 1779 2918 1952 3494 
C 2170 2931 2752 2432 3283 2170 
L 3571 2560 
z
M 4838 -371 
L 4838 1626 
L 1152 1626 
L 1152 -371 
L 4838 -371 
z
M 4352 32 
L 1645 32 
L 1645 1222 
L 4352 1222 
L 4352 32 
z
" transform="scale(0.015625)"/>
     <path id="AppleSDGothicNeo-Regular-d544" d="M 5024 -410 
L 5024 -6 
L 1722 -6 
L 1722 608 
L 4819 608 
L 4819 1926 
L 1216 1926 
L 1216 1530 
L 4333 1530 
L 4333 979 
L 1235 979 
L 1235 -410 
L 5024 -410 
z
M 3782 2944 
C 3565 2906 3232 2874 2835 2854 
L 2976 4070 
L 2496 4128 
L 2400 2835 
C 2349 2829 2298 2829 2253 2829 
C 2022 2816 1786 2803 1542 2797 
L 1453 4115 
L 960 4058 
L 1101 2790 
C 845 2784 576 2784 326 2784 
L 397 2368 
C 896 2368 1530 2387 2144 2419 
C 2758 2458 3418 2502 3827 2566 
L 3782 2944 
z
M 4813 2202 
L 4813 5146 
L 4326 5146 
L 4326 2202 
L 4813 2202 
z
M 3520 4384 
L 3520 4781 
L 480 4781 
L 480 4384 
L 3520 4384 
z
" transform="scale(0.015625)"/>
     <path id="AppleSDGothicNeo-Regular-c790" d="M 3558 1229 
C 2790 1664 2106 2541 2106 3584 
L 2106 4147 
L 3398 4147 
L 3398 4557 
L 307 4557 
L 307 4147 
L 1600 4147 
L 1600 3571 
C 1600 2566 954 1581 128 1094 
L 448 730 
C 1120 1197 1664 1888 1856 2566 
C 2054 1901 2739 1197 3264 864 
L 3558 1229 
z
M 5453 2464 
L 5453 2874 
L 4544 2874 
L 4544 5146 
L 4058 5146 
L 4058 -448 
L 4544 -448 
L 4544 2464 
L 5453 2464 
z
" transform="scale(0.015625)"/>
     <path id="AppleSDGothicNeo-Regular-c218" d="M 3002 -454 
L 3002 1574 
L 5293 1574 
L 5293 1984 
L 243 1984 
L 243 1574 
L 2515 1574 
L 2515 -454 
L 3002 -454 
z
M 5088 2995 
C 4102 3117 3027 3834 3027 4595 
L 3027 4954 
L 2515 4954 
L 2515 4595 
C 2515 3834 1530 3123 454 2982 
L 691 2566 
C 1542 2733 2496 3277 2765 3930 
C 3104 3277 4019 2752 4858 2579 
L 5088 2995 
z
" transform="scale(0.015625)"/>
     <path id="AppleSDGothicNeo-Regular-b7" d="M 640 2131 
L 1267 2131 
L 1267 2784 
L 640 2784 
L 640 2131 
z
" transform="scale(0.015625)"/>
     <path id="AppleSDGothicNeo-Regular-d3b8" d="M 2848 3930 
L 2362 3987 
L 2227 2189 
C 2157 2189 2080 2182 2010 2182 
C 1811 2170 1619 2163 1421 2163 
L 1306 3974 
L 819 3917 
L 979 2163 
C 749 2157 499 2163 243 2163 
L 326 1728 
C 826 1728 1446 1747 2022 1766 
C 2624 1798 3046 1837 3456 1894 
L 3411 2278 
C 3219 2253 2963 2227 2656 2208 
L 2848 3930 
z
M 3328 3642 
L 4326 3642 
L 4326 2950 
L 3328 2950 
L 3328 2547 
L 4326 2547 
L 4326 1062 
L 4813 1062 
L 4813 5146 
L 4326 5146 
L 4326 4038 
L 3328 4038 
L 3328 3642 
z
M 4928 -288 
L 4928 122 
L 1658 122 
L 1658 1389 
L 1171 1389 
L 1171 -288 
L 4928 -288 
z
M 3360 4275 
L 3360 4678 
L 390 4678 
L 390 4275 
L 3360 4275 
z
" transform="scale(0.015625)"/>
     <path id="AppleSDGothicNeo-Regular-c9f8" d="M 5030 -448 
L 5030 5146 
L 4557 5146 
L 4557 2854 
L 3974 2854 
L 3974 5011 
L 3514 5011 
L 3514 -166 
L 3974 -166 
L 3974 2445 
L 4557 2445 
L 4557 -448 
L 5030 -448 
z
M 3418 1536 
C 2989 1862 2656 2522 2656 3507 
L 2656 4038 
L 3219 4038 
L 3219 4442 
L 1869 4442 
L 1869 4038 
L 2202 4038 
L 2202 3507 
C 2202 2426 1811 1517 1312 1050 
L 1651 730 
C 2054 1126 2368 1824 2451 2298 
C 2541 1875 2854 1421 3162 1171 
L 3418 1536 
z
M 1837 2150 
C 1587 2374 1370 2682 1370 3507 
L 1370 4038 
L 1709 4038 
L 1709 4442 
L 339 4442 
L 339 4038 
L 915 4038 
L 915 3494 
C 915 2624 608 1824 102 1363 
L 422 1062 
C 787 1370 1082 2003 1165 2394 
C 1248 2138 1453 1882 1587 1773 
L 1837 2150 
z
" transform="scale(0.015625)"/>
     <path id="AppleSDGothicNeo-Regular-c804" d="M 403 4243 
L 1664 4243 
C 1664 3994 1664 3872 1658 3795 
C 1632 3059 928 2349 224 2074 
L 506 1696 
C 1107 1958 1754 2566 1907 3085 
C 2138 2579 2733 2048 3264 1830 
L 3539 2221 
C 2899 2432 2208 3072 2163 3789 
C 2157 3872 2157 3987 2157 4243 
L 3411 4243 
L 3411 4653 
L 403 4653 
L 403 4243 
z
M 4813 1050 
L 4813 5146 
L 4326 5146 
L 4326 3590 
L 3213 3590 
L 3213 3181 
L 4326 3181 
L 4326 1050 
L 4813 1050 
z
M 4934 -262 
L 4934 147 
L 1651 147 
L 1651 1459 
L 1165 1459 
L 1165 -262 
L 4934 -262 
z
" transform="scale(0.015625)"/>
     <path id="AppleSDGothicNeo-Regular-b9c8" d="M 3034 960 
L 3034 4570 
L 416 4570 
L 416 960 
L 3034 960 
z
M 2547 1363 
L 902 1363 
L 902 4166 
L 2547 4166 
L 2547 1363 
z
M 5459 2483 
L 5459 2893 
L 4544 2893 
L 4544 5146 
L 4058 5146 
L 4058 -448 
L 4544 -448 
L 4544 2483 
L 5459 2483 
z
" transform="scale(0.015625)"/>
     <path id="AppleSDGothicNeo-Regular-c9c0" d="M 3699 1248 
C 2931 1664 2221 2566 2221 3610 
L 2221 4179 
L 3526 4179 
L 3526 4582 
L 410 4582 
L 410 4179 
L 1715 4179 
L 1715 3603 
C 1715 2547 1043 1594 224 1114 
L 525 755 
C 1171 1171 1786 1888 1971 2586 
C 2163 1926 2874 1222 3398 883 
L 3699 1248 
z
M 4346 5146 
L 4346 -448 
L 4832 -448 
L 4832 5146 
L 4346 5146 
z
" transform="scale(0.015625)"/>
     <path id="AppleSDGothicNeo-Regular-b9c9" d="M 4550 -448 
L 4550 1562 
L 941 1562 
L 941 1158 
L 4058 1158 
L 4058 -448 
L 4550 -448 
z
M 5395 3264 
L 5395 3674 
L 4544 3674 
L 4544 5146 
L 4058 5146 
L 4058 1856 
L 4544 1856 
L 4544 3264 
L 5395 3264 
z
M 3110 2285 
L 3110 4730 
L 442 4730 
L 442 2285 
L 3110 2285 
z
M 2624 2688 
L 928 2688 
L 928 4326 
L 2624 4326 
L 2624 2688 
z
" transform="scale(0.015625)"/>
     <path id="AppleSDGothicNeo-Regular-d6c4" d="M 4493 2714 
C 4493 3302 3763 3571 2771 3571 
C 1786 3571 1050 3302 1050 2714 
C 1050 2138 1786 1862 2771 1862 
C 3763 1862 4493 2138 4493 2714 
z
M 3008 -454 
L 3008 1146 
L 5293 1146 
L 5293 1555 
L 243 1555 
L 243 1146 
L 2522 1146 
L 2522 -454 
L 3008 -454 
z
M 5024 3814 
L 5024 4224 
L 531 4224 
L 531 3814 
L 5024 3814 
z
M 3987 2714 
C 3987 2387 3334 2266 2771 2266 
C 2221 2266 1555 2387 1555 2714 
C 1555 3059 2221 3168 2771 3168 
C 3334 3168 3987 3059 3987 2714 
z
M 3706 4646 
L 3706 5062 
L 1837 5062 
L 1837 4646 
L 3706 4646 
z
" transform="scale(0.015625)"/>
     <path id="AppleSDGothicNeo-Regular-bbf8" d="M 4800 -448 
L 4800 5146 
L 4314 5146 
L 4314 -448 
L 4800 -448 
z
M 3194 992 
L 3194 4570 
L 550 4570 
L 550 992 
L 3194 992 
z
M 2707 1395 
L 1043 1395 
L 1043 4166 
L 2707 4166 
L 2707 1395 
z
" transform="scale(0.015625)"/>
     <path id="AppleSDGothicNeo-Regular-c8fc" d="M 5056 2893 
C 4198 2989 3053 3558 3027 4346 
L 4826 4346 
L 4826 4749 
L 704 4749 
L 704 4346 
L 2515 4346 
C 2490 3565 1408 2976 493 2880 
L 717 2470 
C 1670 2630 2541 3206 2765 3731 
C 3021 3206 3910 2643 4826 2483 
L 5056 2893 
z
M 3002 -448 
L 3002 1555 
L 5293 1555 
L 5293 1965 
L 243 1965 
L 243 1555 
L 2515 1555 
L 2515 -448 
L 3002 -448 
z
" transform="scale(0.015625)"/>
     <path id="AppleSDGothicNeo-Regular-c800" d="M 3654 1152 
C 2880 1574 2170 2464 2170 3507 
L 2170 4147 
L 3456 4147 
L 3456 4557 
L 352 4557 
L 352 4147 
L 1664 4147 
L 1664 3494 
C 1664 2483 986 1510 160 1024 
L 486 659 
C 1152 1120 1734 1811 1920 2490 
C 2138 1824 2822 1114 3354 768 
L 3654 1152 
z
M 4326 2714 
L 4326 -448 
L 4813 -448 
L 4813 5146 
L 4326 5146 
L 4326 3130 
L 3155 3130 
L 3155 2714 
L 4326 2714 
z
" transform="scale(0.015625)"/>
     <path id="AppleSDGothicNeo-Regular-ae30" d="M 4813 -448 
L 4813 5146 
L 4326 5146 
L 4326 -448 
L 4813 -448 
z
M 3168 4550 
L 506 4550 
L 506 4141 
L 2650 4141 
C 2547 2880 1715 1664 301 1043 
L 582 659 
C 2029 1344 3142 2733 3168 4550 
z
" transform="scale(0.015625)"/>
     <path id="AppleSDGothicNeo-Regular-c900" d="M 5050 3091 
C 4211 3168 3072 3674 3027 4422 
L 4832 4422 
L 4832 4832 
L 691 4832 
L 691 4422 
L 2515 4422 
C 2470 3680 1440 3168 506 3085 
L 730 2675 
C 1715 2829 2547 3315 2765 3827 
C 3046 3322 3891 2835 4826 2675 
L 5050 3091 
z
M 3008 774 
L 3008 1882 
L 5293 1882 
L 5293 2285 
L 243 2285 
L 243 1882 
L 2522 1882 
L 2522 774 
L 3008 774 
z
M 4774 -275 
L 4774 134 
L 1350 134 
L 1350 1363 
L 864 1363 
L 864 -275 
L 4774 -275 
z
" transform="scale(0.015625)"/>
     <path id="AppleSDGothicNeo-Regular-bd80" d="M 4678 2464 
L 4678 4928 
L 4192 4928 
L 4192 4102 
L 1344 4102 
L 1344 4928 
L 851 4928 
L 851 2464 
L 4678 2464 
z
M 3002 -454 
L 3002 1389 
L 5293 1389 
L 5293 1798 
L 243 1798 
L 243 1389 
L 2515 1389 
L 2515 -454 
L 3002 -454 
z
M 4192 2867 
L 1344 2867 
L 1344 3706 
L 4192 3706 
L 4192 2867 
z
" transform="scale(0.015625)"/>
     <path id="AppleSDGothicNeo-Regular-bd84" d="M 4653 2829 
L 4653 4966 
L 4160 4966 
L 4160 4275 
L 1363 4275 
L 1363 4966 
L 877 4966 
L 877 2829 
L 4653 2829 
z
M 3002 723 
L 3002 1798 
L 5293 1798 
L 5293 2202 
L 243 2202 
L 243 1798 
L 2515 1798 
L 2515 723 
L 3002 723 
z
M 4730 -269 
L 4730 134 
L 1370 134 
L 1370 1248 
L 883 1248 
L 883 -269 
L 4730 -269 
z
M 4160 3238 
L 1363 3238 
L 1363 3872 
L 4160 3872 
L 4160 3238 
z
" transform="scale(0.015625)"/>
     <path id="AppleSDGothicNeo-Regular-c7a0" d="M 4544 -365 
L 4544 1568 
L 1030 1568 
L 1030 -365 
L 4544 -365 
z
M 275 4314 
L 1562 4314 
C 1562 4173 1555 4070 1555 4013 
C 1530 3270 819 2566 115 2298 
L 397 1920 
C 998 2176 1651 2778 1805 3302 
C 2035 2797 2605 2291 3142 2074 
L 3411 2464 
C 2771 2675 2106 3290 2061 4006 
C 2054 4070 2054 4173 2054 4314 
L 3328 4314 
L 3328 4723 
L 275 4723 
L 275 4314 
z
M 4058 38 
L 1517 38 
L 1517 1171 
L 4058 1171 
L 4058 38 
z
M 5389 3302 
L 5389 3712 
L 4538 3712 
L 4538 5146 
L 4051 5146 
L 4051 1862 
L 4538 1862 
L 4538 3302 
L 5389 3302 
z
" transform="scale(0.015625)"/>
     <path id="AppleSDGothicNeo-Regular-c815" d="M 4858 614 
C 4858 1274 4179 1683 2976 1683 
C 1779 1683 1107 1274 1107 614 
C 1107 -38 1779 -448 2976 -448 
C 4179 -448 4858 -38 4858 614 
z
M 390 4269 
L 1664 4269 
C 1664 4166 1664 4032 1658 3968 
C 1632 3174 922 2464 218 2195 
L 480 1805 
C 1082 2067 1754 2739 1907 3264 
C 2138 2758 2739 2234 3322 2003 
L 3610 2394 
C 2925 2598 2208 3206 2163 3968 
C 2157 4032 2157 4160 2157 4269 
L 3418 4269 
L 3418 4678 
L 390 4678 
L 390 4269 
z
M 2976 1274 
C 3853 1274 4358 1037 4358 614 
C 4358 198 3853 -38 2976 -38 
C 2118 -38 1600 198 1600 614 
C 1600 1037 2118 1274 2976 1274 
z
M 4326 3283 
L 4326 1670 
L 4813 1670 
L 4813 5146 
L 4326 5146 
L 4326 3693 
L 3200 3693 
L 3200 3283 
L 4326 3283 
z
" transform="scale(0.015625)"/>
    </defs>
    <use xlink:href="#AppleSDGothicNeo-Regular-d65c"/>
    <use xlink:href="#AppleSDGothicNeo-Regular-b3d9" transform="translate(86.499985 0)"/>
    <use xlink:href="#AppleSDGothicNeo-Regular-20" transform="translate(172.999969 0)"/>
    <use xlink:href="#AppleSDGothicNeo-Regular-3d" transform="translate(199.299957 0)"/>
    <use xlink:href="#AppleSDGothicNeo-Regular-20" transform="translate(251.599945 0)"/>
    <use xlink:href="#AppleSDGothicNeo-Regular-adf8" transform="translate(277.899933 0)"/>
    <use xlink:href="#AppleSDGothicNeo-Regular-20" transform="translate(364.399918 0)"/>
    <use xlink:href="#AppleSDGothicNeo-Regular-ad6c" transform="translate(390.699905 0)"/>
    <use xlink:href="#AppleSDGothicNeo-Regular-ac04" transform="translate(477.19989 0)"/>
    <use xlink:href="#AppleSDGothicNeo-Regular-20" transform="translate(563.699875 0)"/>
    <use xlink:href="#AppleSDGothicNeo-Regular-ac8c" transform="translate(589.999863 0)"/>
    <use xlink:href="#AppleSDGothicNeo-Regular-c7ac" transform="translate(676.499847 0)"/>
    <use xlink:href="#AppleSDGothicNeo-Regular-d55c" transform="translate(762.999832 0)"/>
    <use xlink:href="#AppleSDGothicNeo-Regular-20" transform="translate(849.499817 0)"/>
    <use xlink:href="#AppleSDGothicNeo-Regular-d575" transform="translate(875.799805 0)"/>
    <use xlink:href="#AppleSDGothicNeo-Regular-c2ec" transform="translate(962.299789 0)"/>
    <use xlink:href="#AppleSDGothicNeo-Regular-20" transform="translate(1048.799774 0)"/>
    <use xlink:href="#AppleSDGothicNeo-Regular-d544" transform="translate(1075.099762 0)"/>
    <use xlink:href="#AppleSDGothicNeo-Regular-c790" transform="translate(1161.599747 0)"/>
    <use xlink:href="#AppleSDGothicNeo-Regular-20" transform="translate(1248.099731 0)"/>
    <use xlink:href="#AppleSDGothicNeo-Regular-c218" transform="translate(1274.399719 0)"/>
    <use xlink:href="#AppleSDGothicNeo-Regular-20" transform="translate(1360.899704 0)"/>
    <use xlink:href="#AppleSDGothicNeo-Regular-b7" transform="translate(1387.199692 0)"/>
    <use xlink:href="#AppleSDGothicNeo-Regular-20" transform="translate(1417.49968 0)"/>
    <use xlink:href="#AppleSDGothicNeo-Regular-c720" transform="translate(1443.799667 0)"/>
    <use xlink:href="#AppleSDGothicNeo-Regular-c785" transform="translate(1530.299652 0)"/>
    <use xlink:href="#AppleSDGothicNeo-Regular-20" transform="translate(1616.799637 0)"/>
    <use xlink:href="#AppleSDGothicNeo-Regular-3d" transform="translate(1643.099625 0)"/>
    <use xlink:href="#AppleSDGothicNeo-Regular-20" transform="translate(1695.399612 0)"/>
    <use xlink:href="#AppleSDGothicNeo-Regular-33" transform="translate(1721.6996 0)"/>
    <use xlink:href="#AppleSDGothicNeo-Regular-d3b8" transform="translate(1775.299591 0)"/>
    <use xlink:href="#AppleSDGothicNeo-Regular-c9f8" transform="translate(1861.799576 0)"/>
    <use xlink:href="#AppleSDGothicNeo-Regular-20" transform="translate(1948.299561 0)"/>
    <use xlink:href="#AppleSDGothicNeo-Regular-ac8c" transform="translate(1974.599548 0)"/>
    <use xlink:href="#AppleSDGothicNeo-Regular-c7ac" transform="translate(2061.099533 0)"/>
    <use xlink:href="#AppleSDGothicNeo-Regular-20" transform="translate(2147.599518 0)"/>
    <use xlink:href="#AppleSDGothicNeo-Regular-b7" transform="translate(2173.899506 0)"/>
    <use xlink:href="#AppleSDGothicNeo-Regular-20" transform="translate(2204.199493 0)"/>
    <use xlink:href="#AppleSDGothicNeo-Regular-c774" transform="translate(2230.499481 0)"/>
    <use xlink:href="#AppleSDGothicNeo-Regular-d0c8" transform="translate(2316.999466 0)"/>
    <use xlink:href="#AppleSDGothicNeo-Regular-20" transform="translate(2403.499451 0)"/>
    <use xlink:href="#AppleSDGothicNeo-Regular-3d" transform="translate(2429.799438 0)"/>
    <use xlink:href="#AppleSDGothicNeo-Regular-20" transform="translate(2482.099426 0)"/>
    <use xlink:href="#AppleSDGothicNeo-Regular-c774" transform="translate(2508.399414 0)"/>
    <use xlink:href="#AppleSDGothicNeo-Regular-c804" transform="translate(2594.899399 0)"/>
    <use xlink:href="#AppleSDGothicNeo-Regular-20" transform="translate(2681.399384 0)"/>
    <use xlink:href="#AppleSDGothicNeo-Regular-ad6c" transform="translate(2707.699371 0)"/>
    <use xlink:href="#AppleSDGothicNeo-Regular-ac04" transform="translate(2794.199356 0)"/>
    <use xlink:href="#AppleSDGothicNeo-Regular-20" transform="translate(2880.699341 0)"/>
    <use xlink:href="#AppleSDGothicNeo-Regular-b9c8" transform="translate(2906.999329 0)"/>
    <use xlink:href="#AppleSDGothicNeo-Regular-c9c0" transform="translate(2993.499313 0)"/>
    <use xlink:href="#AppleSDGothicNeo-Regular-b9c9" transform="translate(3079.999298 0)"/>
    <use xlink:href="#AppleSDGothicNeo-Regular-20" transform="translate(3166.499283 0)"/>
    <use xlink:href="#AppleSDGothicNeo-Regular-ac8c" transform="translate(3192.799271 0)"/>
    <use xlink:href="#AppleSDGothicNeo-Regular-c7ac" transform="translate(3279.299255 0)"/>
    <use xlink:href="#AppleSDGothicNeo-Regular-20" transform="translate(3365.79924 0)"/>
    <use xlink:href="#AppleSDGothicNeo-Regular-d6c4" transform="translate(3392.099228 0)"/>
    <use xlink:href="#AppleSDGothicNeo-Regular-20" transform="translate(3478.599213 0)"/>
    <use xlink:href="#AppleSDGothicNeo-Regular-bbf8" transform="translate(3504.8992 0)"/>
    <use xlink:href="#AppleSDGothicNeo-Regular-ac8c" transform="translate(3591.399185 0)"/>
    <use xlink:href="#AppleSDGothicNeo-Regular-c7ac" transform="translate(3677.89917 0)"/>
    <use xlink:href="#AppleSDGothicNeo-Regular-20" transform="translate(3764.399155 0)"/>
    <use xlink:href="#AppleSDGothicNeo-Regular-b7" transform="translate(3790.699142 0)"/>
    <use xlink:href="#AppleSDGothicNeo-Regular-20" transform="translate(3820.99913 0)"/>
    <use xlink:href="#AppleSDGothicNeo-Regular-c99d" transform="translate(3847.299118 0)"/>
    <use xlink:href="#AppleSDGothicNeo-Regular-ac10" transform="translate(3933.799103 0)"/>
    <use xlink:href="#AppleSDGothicNeo-Regular-20" transform="translate(4020.299088 0)"/>
    <use xlink:href="#AppleSDGothicNeo-Regular-3d" transform="translate(4046.599075 0)"/>
    <use xlink:href="#AppleSDGothicNeo-Regular-20" transform="translate(4098.899063 0)"/>
    <use xlink:href="#AppleSDGothicNeo-Regular-c720" transform="translate(4125.199051 0)"/>
    <use xlink:href="#AppleSDGothicNeo-Regular-c785" transform="translate(4211.699036 0)"/>
    <use xlink:href="#AppleSDGothicNeo-Regular-20" transform="translate(4298.19902 0)"/>
    <use xlink:href="#AppleSDGothicNeo-Regular-2d" transform="translate(4324.499008 0)"/>
    <use xlink:href="#AppleSDGothicNeo-Regular-20" transform="translate(4367.699005 0)"/>
    <use xlink:href="#AppleSDGothicNeo-Regular-c774" transform="translate(4393.998993 0)"/>
    <use xlink:href="#AppleSDGothicNeo-Regular-d0c8" transform="translate(4480.498978 0)"/>
    <use xlink:href="#AppleSDGothicNeo-Regular-20" transform="translate(4566.998962 0)"/>
    <use xlink:href="#AppleSDGothicNeo-Regular-b7" transform="translate(4593.29895 0)"/>
    <use xlink:href="#AppleSDGothicNeo-Regular-20" transform="translate(4623.598938 0)"/>
    <use xlink:href="#AppleSDGothicNeo-Regular-c8fc" transform="translate(4649.898926 0)"/>
    <use xlink:href="#AppleSDGothicNeo-Regular-c800" transform="translate(4736.398911 0)"/>
    <use xlink:href="#AppleSDGothicNeo-Regular-c790" transform="translate(4822.898895 0)"/>
    <use xlink:href="#AppleSDGothicNeo-Regular-20" transform="translate(4909.39888 0)"/>
    <use xlink:href="#AppleSDGothicNeo-Regular-ae30" transform="translate(4935.698868 0)"/>
    <use xlink:href="#AppleSDGothicNeo-Regular-c900" transform="translate(5022.198853 0)"/>
    <use xlink:href="#AppleSDGothicNeo-Regular-20" transform="translate(5108.698837 0)"/>
    <use xlink:href="#AppleSDGothicNeo-Regular-b7" transform="translate(5134.998825 0)"/>
    <use xlink:href="#AppleSDGothicNeo-Regular-20" transform="translate(5165.298813 0)"/>
    <use xlink:href="#AppleSDGothicNeo-Regular-32" transform="translate(5191.598801 0)"/>
    <use xlink:href="#AppleSDGothicNeo-Regular-30" transform="translate(5244.898788 0)"/>
    <use xlink:href="#AppleSDGothicNeo-Regular-32" transform="translate(5307.898773 0)"/>
    <use xlink:href="#AppleSDGothicNeo-Regular-35" transform="translate(5361.198761 0)"/>
    <use xlink:href="#AppleSDGothicNeo-Regular-2013" transform="translate(5411.098755 0)"/>
    <use xlink:href="#AppleSDGothicNeo-Regular-32" transform="translate(5449.59874 0)"/>
    <use xlink:href="#AppleSDGothicNeo-Regular-36" transform="translate(5502.898727 0)"/>
    <use xlink:href="#AppleSDGothicNeo-Regular-20" transform="translate(5558.298721 0)"/>
    <use xlink:href="#AppleSDGothicNeo-Regular-bd80" transform="translate(5584.598709 0)"/>
    <use xlink:href="#AppleSDGothicNeo-Regular-bd84" transform="translate(5671.098694 0)"/>
    <use xlink:href="#AppleSDGothicNeo-Regular-28" transform="translate(5757.598679 0)"/>
    <use xlink:href="#AppleSDGothicNeo-Regular-c7a0" transform="translate(5789.298676 0)"/>
    <use xlink:href="#AppleSDGothicNeo-Regular-c815" transform="translate(5875.79866 0)"/>
    <use xlink:href="#AppleSDGothicNeo-Regular-29" transform="translate(5962.298645 0)"/>
   </g>
  </g>
 </g>
 <defs>
  <clipPath id="p24fa482121">
   <rect x="10.6848" y="5.67" width="741.8304" height="207.522"/>
  </clipPath>
 </defs>
</svg>
