<svg class="main-svg" xmlns="http://www.w3.org/2000/svg" xmlns:xlink="http://www.w3.org/1999/xlink" width="1080" height="380" style="" viewBox="0 0 1080 380"><rect x="0" y="0" width="1080" height="380" style="fill: rgb(255, 255, 255); fill-opacity: 1;"/><defs id="defs-045210"><g class="clips"><clipPath id="clip045210xyplot" class="plotclip"><rect width="1004" height="284"/></clipPath><clipPath class="axesclip" id="clip045210x"><rect x="56" y="0" width="1004" height="380"/></clipPath><clipPath class="axesclip" id="clip045210y"><rect x="0" y="56" width="1080" height="284"/></clipPath><clipPath class="axesclip" id="clip045210xy"><rect x="56" y="56" width="1004" height="284"/></clipPath></g><g class="gradients"/><g class="patterns"><pattern id="p045210-4354a7-8" width="7.0710678118654755px" height="7.0710678118654755px" patternUnits="userSpaceOnUse" patternTransform=""><rect width="7.0710678118654755px" height="7.0710678118654755px" fill="rgb(216, 213, 204)" fill-opacity="1"/><path d="M-1.7677669529663689,1.7677669529663689l3.5355339059327378,-3.5355339059327378M0,7.0710678118654755L7.0710678118654755,0M5.303300858899107,8.838834764831844l3.5355339059327378,-3.5355339059327378" opacity="0.5" stroke="rgb(255, 255, 255)" stroke-width="2px"/></pattern><pattern id="p045210-4354a7-9" width="7.0710678118654755px" height="7.0710678118654755px" patternUnits="userSpaceOnUse" patternTransform=""><rect width="7.0710678118654755px" height="7.0710678118654755px" fill="rgb(216, 213, 204)" fill-opacity="1"/><path d="M-1.7677669529663689,1.7677669529663689l3.5355339059327378,-3.5355339059327378M0,7.0710678118654755L7.0710678118654755,0M5.303300858899107,8.838834764831844l3.5355339059327378,-3.5355339059327378" opacity="0.5" stroke="rgb(255, 255, 255)" stroke-width="2px"/></pattern><pattern id="p045210-91bf45-8" width="7.0710678118654755px" height="7.0710678118654755px" patternUnits="userSpaceOnUse" patternTransform=""><rect width="7.0710678118654755px" height="7.0710678118654755px" fill="rgb(168, 162, 148)" fill-opacity="1"/><path d="M-1.7677669529663689,1.7677669529663689l3.5355339059327378,-3.5355339059327378M0,7.0710678118654755L7.0710678118654755,0M5.303300858899107,8.838834764831844l3.5355339059327378,-3.5355339059327378" opacity="0.5" stroke="rgb(255, 255, 255)" stroke-width="2px"/></pattern><pattern id="p045210-91bf45-9" width="7.0710678118654755px" height="7.0710678118654755px" patternUnits="userSpaceOnUse" patternTransform=""><rect width="7.0710678118654755px" height="7.0710678118654755px" fill="rgb(168, 162, 148)" fill-opacity="1"/><path d="M-1.7677669529663689,1.7677669529663689l3.5355339059327378,-3.5355339059327378M0,7.0710678118654755L7.0710678118654755,0M5.303300858899107,8.838834764831844l3.5355339059327378,-3.5355339059327378" opacity="0.5" stroke="rgb(255, 255, 255)" stroke-width="2px"/></pattern></g></defs><g class="bglayer"/><g class="layer-below"><g class="imagelayer"/><g class="shapelayer"/></g><g class="cartesianlayer"><g class="subplot xy"><g class="layer-subplot"><g class="shapelayer"><g class="shape-group" data-index="0" clip-path="url(#clip045210xy)"><path data-index="0" fill-rule="evenodd" d="M856.28,340H1055.1399999999999V56H856.28Z" style="opacity: 0.35; stroke: rgb(0, 0, 0); stroke-opacity: 0; fill: rgb(228, 226, 218); fill-opacity: 1; stroke-width: 0px;"/></g></g><g class="imagelayer"/></g><g class="minor-gridlayer"><g class="x"/><g class="y"/></g><g class="gridlayer"><g class="x"/><g class="y"><path class="ygrid crisp" transform="translate(0,290.61)" d="M56,0h1004" style="stroke: rgb(228, 226, 218); stroke-opacity: 1; stroke-width: 1px;"/><path class="ygrid crisp" transform="translate(0,241.22)" d="M56,0h1004" style="stroke: rgb(228, 226, 218); stroke-opacity: 1; stroke-width: 1px;"/><path class="ygrid crisp" transform="translate(0,191.83)" d="M56,0h1004" style="stroke: rgb(228, 226, 218); stroke-opacity: 1; stroke-width: 1px;"/><path class="ygrid crisp" transform="translate(0,142.43)" d="M56,0h1004" style="stroke: rgb(228, 226, 218); stroke-opacity: 1; stroke-width: 1px;"/><path class="ygrid crisp" transform="translate(0,93.03999999999999)" d="M56,0h1004" style="stroke: rgb(228, 226, 218); stroke-opacity: 1; stroke-width: 1px;"/></g></g><g class="zerolinelayer"><path class="yzl zl crisp" transform="translate(0,340)" d="M56,0h1004" style="stroke: rgb(68, 68, 68); stroke-opacity: 1; stroke-width: 1px;"/></g><g class="layer-between"><g class="shapelayer"/><g class="imagelayer"/></g><path class="xlines-below"/><path class="ylines-below"/><g class="overlines-below"/><g class="xaxislayer-below"/><g class="yaxislayer-below"/><g class="overaxes-below"/><g class="overplot"><g class="xy" transform="translate(56,56)" clip-path="url(#clip045210xyplot)"><g class="barlayer mlayer"><g class="trace bars" shape-rendering="crispEdges" style="opacity: 1;"><g class="points"><g class="point"><path d="M19.78,284V175.34H89.37V284Z" style="vector-effect: none; opacity: 1; stroke-width: 0px; fill: rgb(216, 213, 204); fill-opacity: 1;"/></g><g class="point"><path d="M119.2,284V234.61H188.8V284Z" style="vector-effect: none; opacity: 1; stroke-width: 0px; fill: rgb(216, 213, 204); fill-opacity: 1;"/></g><g class="point"><path d="M218.63,284V140.77H288.23V284Z" style="vector-effect: none; opacity: 1; stroke-width: 0px; fill: rgb(216, 213, 204); fill-opacity: 1;"/></g><g class="point"><path d="M318.06,284V175.34H387.66V284Z" style="vector-effect: none; opacity: 1; stroke-width: 0px; fill: rgb(216, 213, 204); fill-opacity: 1;"/></g><g class="point"><path d="M417.49,284V165.46H487.09V284Z" style="vector-effect: none; opacity: 1; stroke-width: 0px; fill: rgb(216, 213, 204); fill-opacity: 1;"/></g><g class="point"><path d="M516.91,284V155.58H586.51V284Z" style="vector-effect: none; opacity: 1; stroke-width: 0px; fill: rgb(216, 213, 204); fill-opacity: 1;"/></g><g class="point"><path d="M616.34,284V116.07H685.94V284Z" style="vector-effect: none; opacity: 1; stroke-width: 0px; fill: rgb(216, 213, 204); fill-opacity: 1;"/></g><g class="point"><path d="M715.77,284V130.89H785.37V284Z" style="vector-effect: none; opacity: 1; stroke-width: 0px; fill: rgb(216, 213, 204); fill-opacity: 1;"/></g><g class="point"><path d="M815.2,284V118.54H884.8V284Z" class="pattern_filled" style="vector-effect: none; opacity: 1; stroke-width: 0px; fill: url('#p045210-4354a7-8');"/></g><g class="point"><path d="M914.63,284V79.03H984.22V284Z" class="pattern_filled" style="vector-effect: none; opacity: 1; stroke-width: 0px; fill: url('#p045210-4354a7-9');"/></g></g></g><g class="trace bars" shape-rendering="crispEdges" style="opacity: 1;"><g class="points"><g class="point"><path d="M19.78,175.34V160.52H89.37V175.34Z" style="vector-effect: none; opacity: 1; stroke-width: 0px; fill: rgb(168, 162, 148); fill-opacity: 1;"/></g><g class="point"><path d="M119.2,234.61V202.5H188.8V234.61Z" style="vector-effect: none; opacity: 1; stroke-width: 0px; fill: rgb(168, 162, 148); fill-opacity: 1;"/></g><g class="point"><path d="M218.63,140.77V118.54H288.23V140.77Z" style="vector-effect: none; opacity: 1; stroke-width: 0px; fill: rgb(168, 162, 148); fill-opacity: 1;"/></g><g class="point"><path d="M318.06,175.34V165.46H387.66V175.34Z" style="vector-effect: none; opacity: 1; stroke-width: 0px; fill: rgb(168, 162, 148); fill-opacity: 1;"/></g><g class="point"><path d="M417.49,165.46V155.58H487.09V165.46Z" style="vector-effect: none; opacity: 1; stroke-width: 0px; fill: rgb(168, 162, 148); fill-opacity: 1;"/></g><g class="point"><path d="M516.91,155.58V118.54H586.51V155.58Z" style="vector-effect: none; opacity: 1; stroke-width: 0px; fill: rgb(168, 162, 148); fill-opacity: 1;"/></g><g class="point"><path d="M616.34,116.07V101.25H685.94V116.07Z" style="vector-effect: none; opacity: 1; stroke-width: 0px; fill: rgb(168, 162, 148); fill-opacity: 1;"/></g><g class="point"><path d="M715.77,130.89V71.62H785.37V130.89Z" style="vector-effect: none; opacity: 1; stroke-width: 0px; fill: rgb(168, 162, 148); fill-opacity: 1;"/></g><g class="point"><path d="M815.2,118.54V46.92H884.8V118.54Z" class="pattern_filled" style="vector-effect: none; opacity: 1; stroke-width: 0px; fill: url('#p045210-91bf45-8');"/></g><g class="point"><path d="M914.63,79.03V37.04H984.22V79.03Z" class="pattern_filled" style="vector-effect: none; opacity: 1; stroke-width: 0px; fill: url('#p045210-91bf45-9');"/></g></g></g></g><g class="scatterlayer mlayer"><g class="trace scatter trace88abde" style="stroke-miterlimit: 2; opacity: 1;"><g class="fills"/><g class="errorbars"/><g class="lines"><path class="js-line" d="M54.58,160.52L154,202.5L253.43,118.54L352.86,165.46L452.29,155.58L551.71,118.54L651.14,101.25L750.57,71.62" style="vector-effect: none; fill: none; stroke: rgb(28, 27, 25); stroke-opacity: 1; stroke-width: 2px; opacity: 1;"/></g><g class="points"><path class="point" transform="translate(54.58,160.52)" d="M3.5,0A3.5,3.5 0 1,1 0,-3.5A3.5,3.5 0 0,1 3.5,0Z" style="opacity: 1; stroke-width: 1.3px; fill: rgb(28, 27, 25); fill-opacity: 1; stroke: rgb(255, 255, 255); stroke-opacity: 1;"/><path class="point" transform="translate(154,202.5)" d="M3.5,0A3.5,3.5 0 1,1 0,-3.5A3.5,3.5 0 0,1 3.5,0Z" style="opacity: 1; stroke-width: 1.3px; fill: rgb(28, 27, 25); fill-opacity: 1; stroke: rgb(255, 255, 255); stroke-opacity: 1;"/><path class="point" transform="translate(253.43,118.54)" d="M3.5,0A3.5,3.5 0 1,1 0,-3.5A3.5,3.5 0 0,1 3.5,0Z" style="opacity: 1; stroke-width: 1.3px; fill: rgb(28, 27, 25); fill-opacity: 1; stroke: rgb(255, 255, 255); stroke-opacity: 1;"/><path class="point" transform="translate(352.86,165.46)" d="M3.5,0A3.5,3.5 0 1,1 0,-3.5A3.5,3.5 0 0,1 3.5,0Z" style="opacity: 1; stroke-width: 1.3px; fill: rgb(28, 27, 25); fill-opacity: 1; stroke: rgb(255, 255, 255); stroke-opacity: 1;"/><path class="point" transform="translate(452.29,155.58)" d="M3.5,0A3.5,3.5 0 1,1 0,-3.5A3.5,3.5 0 0,1 3.5,0Z" style="opacity: 1; stroke-width: 1.3px; fill: rgb(28, 27, 25); fill-opacity: 1; stroke: rgb(255, 255, 255); stroke-opacity: 1;"/><path class="point" transform="translate(551.71,118.54)" d="M3.5,0A3.5,3.5 0 1,1 0,-3.5A3.5,3.5 0 0,1 3.5,0Z" style="opacity: 1; stroke-width: 1.3px; fill: rgb(28, 27, 25); fill-opacity: 1; stroke: rgb(255, 255, 255); stroke-opacity: 1;"/><path class="point" transform="translate(651.14,101.25)" d="M3.5,0A3.5,3.5 0 1,1 0,-3.5A3.5,3.5 0 0,1 3.5,0Z" style="opacity: 1; stroke-width: 1.3px; fill: rgb(28, 27, 25); fill-opacity: 1; stroke: rgb(255, 255, 255); stroke-opacity: 1;"/><path class="point" transform="translate(750.57,71.62)" d="M3.5,0A3.5,3.5 0 1,1 0,-3.5A3.5,3.5 0 0,1 3.5,0Z" style="opacity: 1; stroke-width: 1.3px; fill: rgb(28, 27, 25); fill-opacity: 1; stroke: rgb(255, 255, 255); stroke-opacity: 1;"/></g><g class="text"/></g><g class="trace scatter trace156c1b" style="stroke-miterlimit: 2; opacity: 1;"><g class="fills"/><g class="errorbars"/><g class="lines"><path class="js-line" d="M750.57,71.62L850,46.92L949.43,37.04" style="vector-effect: none; fill: none; stroke: rgb(28, 27, 25); stroke-opacity: 1; stroke-dasharray: 3px, 3px; stroke-width: 2px; opacity: 1;"/></g><g class="points"><path class="point" transform="translate(750.57,71.62)" d="M3.5,0A3.5,3.5 0 1,1 0,-3.5A3.5,3.5 0 0,1 3.5,0Z" style="opacity: 1; stroke-width: 1.3px; fill: rgb(28, 27, 25); fill-opacity: 1; stroke: rgb(28, 27, 25); stroke-opacity: 1;"/><path class="point" transform="translate(850,46.92)" d="M3.5,0A3.5,3.5 0 1,1 0,-3.5A3.5,3.5 0 0,1 3.5,0Z" style="opacity: 1; stroke-width: 1.3px; fill: rgb(255, 255, 255); fill-opacity: 1; stroke: rgb(28, 27, 25); stroke-opacity: 1;"/><path class="point" transform="translate(949.43,37.04)" d="M3.5,0A3.5,3.5 0 1,1 0,-3.5A3.5,3.5 0 0,1 3.5,0Z" style="opacity: 1; stroke-width: 1.3px; fill: rgb(255, 255, 255); fill-opacity: 1; stroke: rgb(28, 27, 25); stroke-opacity: 1;"/></g><g class="text"/></g></g></g></g><path class="xlines-above crisp" d="M0,0" style="fill: none;"/><path class="ylines-above crisp" d="M0,0" style="fill: none;"/><g class="overlines-above"/><g class="xaxislayer-above"><g class="xtick"><text text-anchor="middle" x="0" y="353" transform="translate(110.58,0)" style="font-family: 'Noto Sans KR', sans-serif; font-size: 12px; fill: rgb(28, 27, 25); fill-opacity: 1; white-space: pre; opacity: 1;">1989–92</text></g><g class="xtick"><text text-anchor="middle" x="0" y="353" transform="translate(210,0)" style="font-family: 'Noto Sans KR', sans-serif; font-size: 12px; fill: rgb(28, 27, 25); fill-opacity: 1; white-space: pre; opacity: 1;">1993–96</text></g><g class="xtick"><text text-anchor="middle" x="0" y="353" transform="translate(309.43,0)" style="font-family: 'Noto Sans KR', sans-serif; font-size: 12px; fill: rgb(28, 27, 25); fill-opacity: 1; white-space: pre; opacity: 1;">1997–00</text></g><g class="xtick"><text text-anchor="middle" x="0" y="353" transform="translate(408.86,0)" style="font-family: 'Noto Sans KR', sans-serif; font-size: 12px; fill: rgb(28, 27, 25); fill-opacity: 1; white-space: pre; opacity: 1;">2001–04</text></g><g class="xtick"><text text-anchor="middle" x="0" y="353" transform="translate(508.29,0)" style="font-family: 'Noto Sans KR', sans-serif; font-size: 12px; fill: rgb(28, 27, 25); fill-opacity: 1; white-space: pre; opacity: 1;">2005–08</text></g><g class="xtick"><text text-anchor="middle" x="0" y="353" transform="translate(607.71,0)" style="font-family: 'Noto Sans KR', sans-serif; font-size: 12px; fill: rgb(28, 27, 25); fill-opacity: 1; white-space: pre; opacity: 1;">2009–12</text></g><g class="xtick"><text text-anchor="middle" x="0" y="353" transform="translate(707.14,0)" style="font-family: 'Noto Sans KR', sans-serif; font-size: 12px; fill: rgb(28, 27, 25); fill-opacity: 1; white-space: pre; opacity: 1;">2013–16</text></g><g class="xtick"><text text-anchor="middle" x="0" y="353" transform="translate(806.57,0)" style="font-family: 'Noto Sans KR', sans-serif; font-size: 12px; fill: rgb(28, 27, 25); fill-opacity: 1; white-space: pre; opacity: 1;">2017–20</text></g><g class="xtick"><text text-anchor="middle" x="0" y="353" transform="translate(906,0)" style="font-family: 'Noto Sans KR', sans-serif; font-size: 12px; fill: rgb(28, 27, 25); fill-opacity: 1; white-space: pre; opacity: 1;">2021–24</text></g><g class="xtick"><text text-anchor="middle" x="0" y="353" transform="translate(1005.43,0)" style="font-family: 'Noto Sans KR', sans-serif; font-size: 12px; fill: rgb(28, 27, 25); fill-opacity: 1; white-space: pre; opacity: 1;">2025–26</text></g></g><g class="yaxislayer-above"><g class="ytick"><text text-anchor="end" x="55" y="4.8999999999999995" transform="translate(0,340)" style="font-family: 'Noto Sans KR', sans-serif; font-size: 14px; fill: rgb(110, 103, 92); fill-opacity: 1; white-space: pre; opacity: 1;">0</text></g><g class="ytick"><text text-anchor="end" x="55" y="4.8999999999999995" style="font-family: 'Noto Sans KR', sans-serif; font-size: 14px; fill: rgb(110, 103, 92); fill-opacity: 1; white-space: pre; opacity: 1;" transform="translate(0,290.61)">20</text></g><g class="ytick"><text text-anchor="end" x="55" y="4.8999999999999995" style="font-family: 'Noto Sans KR', sans-serif; font-size: 14px; fill: rgb(110, 103, 92); fill-opacity: 1; white-space: pre; opacity: 1;" transform="translate(0,241.22)">40</text></g><g class="ytick"><text text-anchor="end" x="55" y="4.8999999999999995" style="font-family: 'Noto Sans KR', sans-serif; font-size: 14px; fill: rgb(110, 103, 92); fill-opacity: 1; white-space: pre; opacity: 1;" transform="translate(0,191.83)">60</text></g><g class="ytick"><text text-anchor="end" x="55" y="4.8999999999999995" style="font-family: 'Noto Sans KR', sans-serif; font-size: 14px; fill: rgb(110, 103, 92); fill-opacity: 1; white-space: pre; opacity: 1;" transform="translate(0,142.43)">80</text></g><g class="ytick"><text text-anchor="end" x="55" y="4.8999999999999995" style="font-family: 'Noto Sans KR', sans-serif; font-size: 14px; fill: rgb(110, 103, 92); fill-opacity: 1; white-space: pre; opacity: 1;" transform="translate(0,93.03999999999999)">100</text></g></g><g class="overaxes-above"/></g></g><g class="polarlayer"/><g class="smithlayer"/><g class="ternarylayer"/><g class="geolayer"/><g class="funnelarealayer"/><g class="pielayer"/><g class="iciclelayer"/><g class="treemaplayer"/><g class="sunburstlayer"/><g class="glimages"/><defs id="topdefs-045210"><g class="clips"/><clipPath id="legend045210"><rect width="293" height="30" x="0" y="0"/></clipPath></defs><g class="layer-above"><g class="imagelayer"/><g class="shapelayer"/></g><g class="infolayer"><g class="legend" pointer-events="all" transform="translate(56,14.639999999999986)"><rect class="bg" shape-rendering="crispEdges" width="293" height="30" x="0" y="0" style="stroke: rgb(68, 68, 68); stroke-opacity: 1; fill: rgb(255, 255, 255); fill-opacity: 1; stroke-width: 0px;"/><g class="scrollbox" transform="" clip-path="url(#legend045210)"><g class="groups"><g class="traces" transform="translate(0,14.950000000000001)" style="opacity: 1;"><text class="legendtext" text-anchor="start" x="40" y="5.07" style="font-family: 'Noto Sans KR', sans-serif; font-size: 13px; fill: rgb(110, 103, 92); fill-opacity: 1; white-space: pre;">1편</text><g class="layers" style="opacity: 1;"><g class="legendfill"/><g class="legendlines"/><g class="legendsymbols"><g class="legendpoints"><path class="legendundefined" d="M6,6H-6V-6H6Z" transform="translate(20,0)" style="stroke-width: 0px; fill: rgb(216, 213, 204); fill-opacity: 1;"/></g></g></g><rect class="legendtoggle" x="0" y="-9.950000000000001" width="61.6796875" height="19.900000000000002" style="fill: rgb(0, 0, 0); fill-opacity: 0;"/></g><g class="traces" transform="translate(64.1796875,14.950000000000001)" style="opacity: 1;"><text class="legendtext" text-anchor="start" x="40" y="5.07" style="font-family: 'Noto Sans KR', sans-serif; font-size: 13px; fill: rgb(110, 103, 92); fill-opacity: 1; white-space: pre;">2편</text><g class="layers" style="opacity: 1;"><g class="legendfill"/><g class="legendlines"/><g class="legendsymbols"><g class="legendpoints"><path class="legendundefined" d="M6,6H-6V-6H6Z" transform="translate(20,0)" style="stroke-width: 0px; fill: rgb(168, 162, 148); fill-opacity: 1;"/></g></g></g><rect class="legendtoggle" x="0" y="-9.950000000000001" width="61.6796875" height="19.900000000000002" style="fill: rgb(0, 0, 0); fill-opacity: 0;"/></g><g class="traces" transform="translate(128.359375,14.950000000000001)" style="opacity: 1;"><text class="legendtext" text-anchor="start" x="40" y="5.07" style="font-family: 'Noto Sans KR', sans-serif; font-size: 13px; fill: rgb(110, 103, 92); fill-opacity: 1; white-space: pre;">일회성(3편 미만) 비율</text><g class="layers" style="opacity: 1;"><g class="legendfill"/><g class="legendlines"><path class="js-line" d="M5,0h30" style="fill: none; stroke: rgb(28, 27, 25); stroke-opacity: 1; stroke-width: 2px;"/></g><g class="legendsymbols"><g class="legendpoints"><path class="scatterpts" transform="translate(20,0)" d="M3.5,0A3.5,3.5 0 1,1 0,-3.5A3.5,3.5 0 0,1 3.5,0Z" style="opacity: 1; stroke-width: 1.3px; fill: rgb(28, 27, 25); fill-opacity: 1; stroke: rgb(255, 255, 255); stroke-opacity: 1;"/></g></g></g><rect class="legendtoggle" x="0" y="-9.950000000000001" width="161.4765625" height="19.900000000000002" style="fill: rgb(0, 0, 0); fill-opacity: 0;"/></g></g></g><rect class="scrollbar" rx="20" ry="3" width="0" height="0" x="0" y="0" style="fill: rgb(128, 139, 164); fill-opacity: 1;"/></g><g class="g-gtitle"/><g class="g-xtitle"/><g class="g-ytitle"><text class="ytitle" transform="rotate(-90,22,198)" x="22" y="198" text-anchor="middle" style="opacity: 1; font-family: 'Noto Sans KR', sans-serif; font-size: 12px; fill: rgb(110, 103, 92); fill-opacity: 1; white-space: pre;">데뷔 코호트 중 비율 (%)</text></g><g class="annotation" data-index="0" style="opacity: 1;"><g class="annotation-text-g" transform="rotate(0,110.58,206.52)"><g class="cursor-pointer" transform="translate(103,197)"><rect class="bg" x="0.5" y="0.5" width="15" height="18" style="stroke-width: 1px; stroke: rgb(0, 0, 0); stroke-opacity: 0; fill: rgb(255, 255, 255); fill-opacity: 0.85;"/><text class="annotation-text" text-anchor="middle" x="8.19140625" y="14" style="font-family: 'Noto Sans KR', sans-serif; font-size: 10.5px; fill: rgb(28, 27, 25); fill-opacity: 1; white-space: pre;"><tspan style="font-weight:bold">50</tspan></text></g></g></g><g class="annotation" data-index="1" style="opacity: 1;"><g class="annotation-text-g" transform="rotate(0,210,248.5)"><g class="cursor-pointer" transform="translate(202,239)"><rect class="bg" x="0.5" y="0.5" width="15" height="18" style="stroke-width: 1px; stroke: rgb(0, 0, 0); stroke-opacity: 0; fill: rgb(255, 255, 255); fill-opacity: 0.85;"/><text class="annotation-text" text-anchor="middle" x="8.19140625" y="14" style="font-family: 'Noto Sans KR', sans-serif; font-size: 10.5px; fill: rgb(28, 27, 25); fill-opacity: 1; white-space: pre;"><tspan style="font-weight:bold">33</tspan></text></g></g></g><g class="annotation" data-index="2" style="opacity: 1;"><g class="annotation-text-g" transform="rotate(0,309.43,164.54000000000002)"><g class="cursor-pointer" transform="translate(301,155)"><rect class="bg" x="0.5" y="0.5" width="15" height="18" style="stroke-width: 1px; stroke: rgb(0, 0, 0); stroke-opacity: 0; fill: rgb(255, 255, 255); fill-opacity: 0.85;"/><text class="annotation-text" text-anchor="middle" x="8.19140625" y="14" style="font-family: 'Noto Sans KR', sans-serif; font-size: 10.5px; fill: rgb(28, 27, 25); fill-opacity: 1; white-space: pre;"><tspan style="font-weight:bold">67</tspan></text></g></g></g><g class="annotation" data-index="3" style="opacity: 1;"><g class="annotation-text-g" transform="rotate(0,408.86,211.46)"><g class="cursor-pointer" transform="translate(401,202)"><rect class="bg" x="0.5" y="0.5" width="15" height="18" style="stroke-width: 1px; stroke: rgb(0, 0, 0); stroke-opacity: 0; fill: rgb(255, 255, 255); fill-opacity: 0.85;"/><text class="annotation-text" text-anchor="middle" x="8.19140625" y="14" style="font-family: 'Noto Sans KR', sans-serif; font-size: 10.5px; fill: rgb(28, 27, 25); fill-opacity: 1; white-space: pre;"><tspan style="font-weight:bold">48</tspan></text></g></g></g><g class="annotation" data-index="4" style="opacity: 1;"><g class="annotation-text-g" transform="rotate(0,508.29,201.58)"><g class="cursor-pointer" transform="translate(500,192)"><rect class="bg" x="0.5" y="0.5" width="15" height="18" style="stroke-width: 1px; stroke: rgb(0, 0, 0); stroke-opacity: 0; fill: rgb(255, 255, 255); fill-opacity: 0.85;"/><text class="annotation-text" text-anchor="middle" x="8.19140625" y="14" style="font-family: 'Noto Sans KR', sans-serif; font-size: 10.5px; fill: rgb(28, 27, 25); fill-opacity: 1; white-space: pre;"><tspan style="font-weight:bold">52</tspan></text></g></g></g><g class="annotation" data-index="5" style="opacity: 1;"><g class="annotation-text-g" transform="rotate(0,607.71,164.54000000000002)"><g class="cursor-pointer" transform="translate(600,155)"><rect class="bg" x="0.5" y="0.5" width="15" height="18" style="stroke-width: 1px; stroke: rgb(0, 0, 0); stroke-opacity: 0; fill: rgb(255, 255, 255); fill-opacity: 0.85;"/><text class="annotation-text" text-anchor="middle" x="8.19140625" y="14" style="font-family: 'Noto Sans KR', sans-serif; font-size: 10.5px; fill: rgb(28, 27, 25); fill-opacity: 1; white-space: pre;"><tspan style="font-weight:bold">67</tspan></text></g></g></g><g class="annotation" data-index="6" style="opacity: 1;"><g class="annotation-text-g" transform="rotate(0,707.14,147.25)"><g class="cursor-pointer" transform="translate(699,138)"><rect class="bg" x="0.5" y="0.5" width="15" height="18" style="stroke-width: 1px; stroke: rgb(0, 0, 0); stroke-opacity: 0; fill: rgb(255, 255, 255); fill-opacity: 0.85;"/><text class="annotation-text" text-anchor="middle" x="8.19140625" y="14" style="font-family: 'Noto Sans KR', sans-serif; font-size: 10.5px; fill: rgb(28, 27, 25); fill-opacity: 1; white-space: pre;"><tspan style="font-weight:bold">74</tspan></text></g></g></g><g class="annotation" data-index="7" style="opacity: 1;"><g class="annotation-text-g" transform="rotate(0,806.57,117.62)"><g class="cursor-pointer" transform="translate(799,108)"><rect class="bg" x="0.5" y="0.5" width="15" height="18" style="stroke-width: 1px; stroke: rgb(0, 0, 0); stroke-opacity: 0; fill: rgb(255, 255, 255); fill-opacity: 0.85;"/><text class="annotation-text" text-anchor="middle" x="8.19140625" y="14" style="font-family: 'Noto Sans KR', sans-serif; font-size: 10.5px; fill: rgb(28, 27, 25); fill-opacity: 1; white-space: pre;"><tspan style="font-weight:bold">86</tspan></text></g></g></g><g class="annotation" data-index="8" style="opacity: 1;"><g class="annotation-text-g" transform="rotate(0,906,92.92)"><g class="cursor-pointer" transform="translate(898,83)"><rect class="bg" x="0.5" y="0.5" width="15" height="18" style="stroke-width: 1px; stroke: rgb(0, 0, 0); stroke-opacity: 0; fill: rgb(255, 255, 255); fill-opacity: 0.85;"/><text class="annotation-text" text-anchor="middle" x="8.19140625" y="14" style="font-family: 'Noto Sans KR', sans-serif; font-size: 10.5px; fill: rgb(28, 27, 25); fill-opacity: 1; white-space: pre;"><tspan style="font-weight:bold">96</tspan></text></g></g></g><g class="annotation" data-index="9" style="opacity: 1;"><g class="annotation-text-g" transform="rotate(0,1005.43,83.03999999999999)"><g class="cursor-pointer" transform="translate(994,74)"><rect class="bg" x="0.5" y="0.5" width="22" height="18" style="stroke-width: 1px; stroke: rgb(0, 0, 0); stroke-opacity: 0; fill: rgb(255, 255, 255); fill-opacity: 0.85;"/><text class="annotation-text" text-anchor="middle" x="11.2890625" y="14" style="font-family: 'Noto Sans KR', sans-serif; font-size: 10.5px; fill: rgb(28, 27, 25); fill-opacity: 1; white-space: pre;"><tspan style="font-weight:bold">100</tspan></text></g></g></g></g></svg>