<svg class="main-svg" xmlns="http://www.w3.org/2000/svg" xmlns:xlink="http://www.w3.org/1999/xlink" width="960" height="440" style="" viewBox="0 0 960 440"><rect x="0" y="0" width="960" height="440" style="fill: rgb(255, 255, 255); fill-opacity: 1;"/><defs id="defs-742404"><g class="clips"><clipPath id="clip742404xyplot" class="plotclip"><rect width="884" height="344"/></clipPath><clipPath class="axesclip" id="clip742404x"><rect x="56" y="0" width="884" height="440"/></clipPath><clipPath class="axesclip" id="clip742404y"><rect x="0" y="56" width="960" height="344"/></clipPath><clipPath class="axesclip" id="clip742404xy"><rect x="56" y="56" width="884" height="344"/></clipPath></g><g class="gradients"/><g class="patterns"/></defs><g class="bglayer"/><g class="layer-below"><g class="imagelayer"/><g class="shapelayer"/></g><g class="cartesianlayer"><g class="subplot xy"><g class="layer-subplot"><g class="shapelayer"><g class="shape-group" data-index="0" clip-path="url(#clip742404xy)"><path data-index="0" fill-rule="evenodd" d="M60.17,400H322.87V56H60.17Z" style="opacity: 0.4; stroke: rgb(0, 0, 0); stroke-opacity: 0; fill: rgb(228, 226, 218); fill-opacity: 1; stroke-width: 0px;"/></g></g><g class="imagelayer"/></g><g class="minor-gridlayer"><g class="x"/><g class="y"/></g><g class="gridlayer"><g class="x"><path class="xgrid crisp" transform="translate(103.95,0)" d="M0,56v344" style="stroke: rgb(238, 238, 238); stroke-opacity: 1; stroke-width: 1px;"/><path class="xgrid crisp" transform="translate(191.52,0)" d="M0,56v344" style="stroke: rgb(238, 238, 238); stroke-opacity: 1; stroke-width: 1px;"/><path class="xgrid crisp" transform="translate(279.08000000000004,0)" d="M0,56v344" style="stroke: rgb(238, 238, 238); stroke-opacity: 1; stroke-width: 1px;"/><path class="xgrid crisp" transform="translate(366.65,0)" d="M0,56v344" style="stroke: rgb(238, 238, 238); stroke-opacity: 1; stroke-width: 1px;"/><path class="xgrid crisp" transform="translate(454.22,0)" d="M0,56v344" style="stroke: rgb(238, 238, 238); stroke-opacity: 1; stroke-width: 1px;"/><path class="xgrid crisp" transform="translate(541.78,0)" d="M0,56v344" style="stroke: rgb(238, 238, 238); stroke-opacity: 1; stroke-width: 1px;"/><path class="xgrid crisp" transform="translate(629.35,0)" d="M0,56v344" style="stroke: rgb(238, 238, 238); stroke-opacity: 1; stroke-width: 1px;"/><path class="xgrid crisp" transform="translate(716.92,0)" d="M0,56v344" style="stroke: rgb(238, 238, 238); stroke-opacity: 1; stroke-width: 1px;"/><path class="xgrid crisp" transform="translate(804.48,0)" d="M0,56v344" style="stroke: rgb(238, 238, 238); stroke-opacity: 1; stroke-width: 1px;"/><path class="xgrid crisp" transform="translate(892.05,0)" d="M0,56v344" style="stroke: rgb(238, 238, 238); stroke-opacity: 1; stroke-width: 1px;"/></g><g class="y"><path class="ygrid crisp" transform="translate(0,347.78)" d="M56,0h884" style="stroke: rgb(228, 226, 218); stroke-opacity: 1; stroke-width: 1px;"/><path class="ygrid crisp" transform="translate(0,295.57)" d="M56,0h884" style="stroke: rgb(228, 226, 218); stroke-opacity: 1; stroke-width: 1px;"/><path class="ygrid crisp" transform="translate(0,243.35)" d="M56,0h884" style="stroke: rgb(228, 226, 218); stroke-opacity: 1; stroke-width: 1px;"/><path class="ygrid crisp" transform="translate(0,191.14)" d="M56,0h884" style="stroke: rgb(228, 226, 218); stroke-opacity: 1; stroke-width: 1px;"/><path class="ygrid crisp" transform="translate(0,138.92000000000002)" d="M56,0h884" style="stroke: rgb(228, 226, 218); stroke-opacity: 1; stroke-width: 1px;"/><path class="ygrid crisp" transform="translate(0,86.7)" d="M56,0h884" style="stroke: rgb(228, 226, 218); stroke-opacity: 1; stroke-width: 1px;"/></g></g><g class="zerolinelayer"><path class="yzl zl crisp" transform="translate(0,400)" d="M56,0h884" style="stroke: rgb(68, 68, 68); stroke-opacity: 1; stroke-width: 1px;"/></g><g class="layer-between"><g class="shapelayer"/><g class="imagelayer"/></g><path class="xlines-below"/><path class="ylines-below"/><g class="overlines-below"/><g class="xaxislayer-below"/><g class="yaxislayer-below"/><g class="overaxes-below"/><g class="overplot"><g class="xy" transform="translate(56,56)" clip-path="url(#clip742404xyplot)"><g class="scatterlayer mlayer"><g class="trace scatter traceb352c6" style="stroke-miterlimit: 2;"><g class="fills"><g><path class="js-fill" d="M47.95,344L135.52,302.23L223.08,291.78L310.65,276.12L398.22,223.9L485.78,166.47L573.35,114.25L660.92,62.03L748.48,72.48L836.05,145.58L836.05,302.23L748.48,229.12L660.92,145.58L573.35,176.91L485.78,197.79L398.22,239.57L310.65,281.34L223.08,297.01L135.52,302.23L47.95,344Z" style="fill: rgb(205, 199, 184); fill-opacity: 0.6; stroke-width: 0;"/></g></g><g class="errorbars"/><g class="lines"><path class="js-line" d="M47.95,344L135.52,302.23L223.08,297.01L310.65,281.34L398.22,239.57L485.78,197.79L573.35,176.91L660.92,145.58L748.48,229.12L836.05,302.23" style="vector-effect: none; fill: none; stroke: rgb(31, 119, 180); stroke-opacity: 1; stroke-width: 0px; opacity: 1;"/></g><g class="points"/><g class="text"/></g><g class="trace scatter tracea2de49" style="stroke-miterlimit: 2;"><g class="fills"/><g class="errorbars"/><g class="lines"><path class="js-line" d="M47.95,344L135.52,302.23L223.08,291.78L310.65,276.12L398.22,223.9L485.78,166.47L573.35,114.25L660.92,62.03L748.48,72.48L836.05,145.58" style="vector-effect: none; fill: none; stroke: rgb(255, 127, 14); stroke-opacity: 1; stroke-width: 0px; opacity: 1;"/></g><g class="points"/><g class="text"/></g><g class="trace scatter traceec6ad9" style="stroke-miterlimit: 2; opacity: 1;"><g class="fills"/><g class="errorbars"/><g class="lines"><path class="js-line" d="M47.95,344L135.52,302.23L223.08,291.78L310.65,276.12L398.22,223.9L485.78,166.47L573.35,114.25L660.92,62.03L748.48,72.48" style="vector-effect: none; fill: none; stroke: rgb(28, 27, 25); stroke-opacity: 1; stroke-width: 1.9px; opacity: 1;"/></g><g class="points"><path class="point" transform="translate(47.95,344)" d="M3,0A3,3 0 1,1 0,-3A3,3 0 0,1 3,0Z" style="opacity: 1; stroke-width: 1px; fill: rgb(28, 27, 25); fill-opacity: 1; stroke: rgb(255, 255, 255); stroke-opacity: 1;"/><path class="point" transform="translate(135.52,302.23)" d="M3,0A3,3 0 1,1 0,-3A3,3 0 0,1 3,0Z" style="opacity: 1; stroke-width: 1px; fill: rgb(28, 27, 25); fill-opacity: 1; stroke: rgb(255, 255, 255); stroke-opacity: 1;"/><path class="point" transform="translate(223.08,291.78)" d="M3,0A3,3 0 1,1 0,-3A3,3 0 0,1 3,0Z" style="opacity: 1; stroke-width: 1px; fill: rgb(28, 27, 25); fill-opacity: 1; stroke: rgb(255, 255, 255); stroke-opacity: 1;"/><path class="point" transform="translate(310.65,276.12)" d="M3,0A3,3 0 1,1 0,-3A3,3 0 0,1 3,0Z" style="opacity: 1; stroke-width: 1px; fill: rgb(28, 27, 25); fill-opacity: 1; stroke: rgb(255, 255, 255); stroke-opacity: 1;"/><path class="point" transform="translate(398.22,223.9)" d="M3,0A3,3 0 1,1 0,-3A3,3 0 0,1 3,0Z" style="opacity: 1; stroke-width: 1px; fill: rgb(28, 27, 25); fill-opacity: 1; stroke: rgb(255, 255, 255); stroke-opacity: 1;"/><path class="point" transform="translate(485.78,166.47)" d="M3,0A3,3 0 1,1 0,-3A3,3 0 0,1 3,0Z" style="opacity: 1; stroke-width: 1px; fill: rgb(28, 27, 25); fill-opacity: 1; stroke: rgb(255, 255, 255); stroke-opacity: 1;"/><path class="point" transform="translate(573.35,114.25)" d="M3,0A3,3 0 1,1 0,-3A3,3 0 0,1 3,0Z" style="opacity: 1; stroke-width: 1px; fill: rgb(28, 27, 25); fill-opacity: 1; stroke: rgb(255, 255, 255); stroke-opacity: 1;"/><path class="point" transform="translate(660.92,62.03)" d="M3,0A3,3 0 1,1 0,-3A3,3 0 0,1 3,0Z" style="opacity: 1; stroke-width: 1px; fill: rgb(28, 27, 25); fill-opacity: 1; stroke: rgb(255, 255, 255); stroke-opacity: 1;"/><path class="point" transform="translate(748.48,72.48)" d="M3,0A3,3 0 1,1 0,-3A3,3 0 0,1 3,0Z" style="opacity: 1; stroke-width: 1px; fill: rgb(28, 27, 25); fill-opacity: 1; stroke: rgb(255, 255, 255); stroke-opacity: 1;"/></g><g class="text"/></g><g class="trace scatter trace4170a4" style="stroke-miterlimit: 2; opacity: 1;"><g class="fills"/><g class="errorbars"/><g class="lines"><path class="js-line" d="M748.48,72.48L836.05,145.58" style="vector-effect: none; fill: none; stroke: rgb(28, 27, 25); stroke-opacity: 1; stroke-dasharray: 3px, 3px; stroke-width: 1.9px; opacity: 1;"/></g><g class="points"><path class="point" transform="translate(748.48,72.48)" d="M3,0A3,3 0 1,1 0,-3A3,3 0 0,1 3,0Z" style="opacity: 1; stroke-width: 1.2px; fill: rgb(0, 0, 0); fill-opacity: 0; stroke: rgb(28, 27, 25); stroke-opacity: 1;"/><path class="point" transform="translate(836.05,145.58)" d="M3,0A3,3 0 1,1 0,-3A3,3 0 0,1 3,0Z" style="opacity: 1; stroke-width: 1.2px; fill: rgb(255, 255, 255); fill-opacity: 1; stroke: rgb(28, 27, 25); stroke-opacity: 1;"/></g><g class="text"/></g><g class="trace scatter trace777085" style="stroke-miterlimit: 2; opacity: 1;"><g class="fills"/><g class="errorbars"/><g class="lines"><path class="js-line" d="M47.95,344L135.52,302.23L223.08,297.01L310.65,281.34L398.22,239.57L485.78,197.79L573.35,176.91L660.92,145.58L748.48,229.12" style="vector-effect: none; fill: none; stroke: rgb(184, 145, 31); stroke-opacity: 1; stroke-width: 2.3px; opacity: 1;"/></g><g class="points"><path class="point" transform="translate(47.95,344)" d="M3,0A3,3 0 1,1 0,-3A3,3 0 0,1 3,0Z" style="opacity: 1; stroke-width: 1px; fill: rgb(184, 145, 31); fill-opacity: 1; stroke: rgb(255, 255, 255); stroke-opacity: 1;"/><path class="point" transform="translate(135.52,302.23)" d="M3,0A3,3 0 1,1 0,-3A3,3 0 0,1 3,0Z" style="opacity: 1; stroke-width: 1px; fill: rgb(184, 145, 31); fill-opacity: 1; stroke: rgb(255, 255, 255); stroke-opacity: 1;"/><path class="point" transform="translate(223.08,297.01)" d="M3,0A3,3 0 1,1 0,-3A3,3 0 0,1 3,0Z" style="opacity: 1; stroke-width: 1px; fill: rgb(184, 145, 31); fill-opacity: 1; stroke: rgb(255, 255, 255); stroke-opacity: 1;"/><path class="point" transform="translate(310.65,281.34)" d="M3,0A3,3 0 1,1 0,-3A3,3 0 0,1 3,0Z" style="opacity: 1; stroke-width: 1px; fill: rgb(184, 145, 31); fill-opacity: 1; stroke: rgb(255, 255, 255); stroke-opacity: 1;"/><path class="point" transform="translate(398.22,239.57)" d="M3,0A3,3 0 1,1 0,-3A3,3 0 0,1 3,0Z" style="opacity: 1; stroke-width: 1px; fill: rgb(184, 145, 31); fill-opacity: 1; stroke: rgb(255, 255, 255); stroke-opacity: 1;"/><path class="point" transform="translate(485.78,197.79)" d="M3,0A3,3 0 1,1 0,-3A3,3 0 0,1 3,0Z" style="opacity: 1; stroke-width: 1px; fill: rgb(184, 145, 31); fill-opacity: 1; stroke: rgb(255, 255, 255); stroke-opacity: 1;"/><path class="point" transform="translate(573.35,176.91)" d="M3,0A3,3 0 1,1 0,-3A3,3 0 0,1 3,0Z" style="opacity: 1; stroke-width: 1px; fill: rgb(184, 145, 31); fill-opacity: 1; stroke: rgb(255, 255, 255); stroke-opacity: 1;"/><path class="point" transform="translate(660.92,145.58)" d="M3,0A3,3 0 1,1 0,-3A3,3 0 0,1 3,0Z" style="opacity: 1; stroke-width: 1px; fill: rgb(184, 145, 31); fill-opacity: 1; stroke: rgb(255, 255, 255); stroke-opacity: 1;"/><path class="point" transform="translate(748.48,229.12)" d="M3,0A3,3 0 1,1 0,-3A3,3 0 0,1 3,0Z" style="opacity: 1; stroke-width: 1px; fill: rgb(184, 145, 31); fill-opacity: 1; stroke: rgb(255, 255, 255); stroke-opacity: 1;"/></g><g class="text"/></g><g class="trace scatter trace426c7d" style="stroke-miterlimit: 2; opacity: 1;"><g class="fills"/><g class="errorbars"/><g class="lines"><path class="js-line" d="M748.48,229.12L836.05,302.23" style="vector-effect: none; fill: none; stroke: rgb(184, 145, 31); stroke-opacity: 1; stroke-dasharray: 3px, 3px; stroke-width: 2.3px; opacity: 1;"/></g><g class="points"><path class="point" transform="translate(748.48,229.12)" d="M3,0A3,3 0 1,1 0,-3A3,3 0 0,1 3,0Z" style="opacity: 1; stroke-width: 1.2px; fill: rgb(0, 0, 0); fill-opacity: 0; stroke: rgb(184, 145, 31); stroke-opacity: 1;"/><path class="point" transform="translate(836.05,302.23)" d="M3,0A3,3 0 1,1 0,-3A3,3 0 0,1 3,0Z" style="opacity: 1; stroke-width: 1.2px; fill: rgb(255, 255, 255); fill-opacity: 1; stroke: rgb(184, 145, 31); stroke-opacity: 1;"/></g><g class="text"/></g></g></g></g><path class="xlines-above crisp" d="M0,0" style="fill: none;"/><path class="ylines-above crisp" d="M0,0" style="fill: none;"/><g class="overlines-above"/><g class="xaxislayer-above"><g class="xtick"><text text-anchor="middle" x="0" y="413" transform="translate(103.95,0)" style="font-family: 'Noto Sans KR', sans-serif; font-size: 12px; fill: rgb(28, 27, 25); fill-opacity: 1; white-space: pre; opacity: 1;">1989–92</text></g><g class="xtick"><text text-anchor="middle" x="0" y="413" transform="translate(191.52,0)" style="font-family: 'Noto Sans KR', sans-serif; font-size: 12px; fill: rgb(28, 27, 25); fill-opacity: 1; white-space: pre; opacity: 1;">1993–96</text></g><g class="xtick"><text text-anchor="middle" x="0" y="413" transform="translate(279.08000000000004,0)" style="font-family: 'Noto Sans KR', sans-serif; font-size: 12px; fill: rgb(28, 27, 25); fill-opacity: 1; white-space: pre; opacity: 1;">1997–00</text></g><g class="xtick"><text text-anchor="middle" x="0" y="413" transform="translate(366.65,0)" style="font-family: 'Noto Sans KR', sans-serif; font-size: 12px; fill: rgb(28, 27, 25); fill-opacity: 1; white-space: pre; opacity: 1;">2001–04</text></g><g class="xtick"><text text-anchor="middle" x="0" y="413" transform="translate(454.22,0)" style="font-family: 'Noto Sans KR', sans-serif; font-size: 12px; fill: rgb(28, 27, 25); fill-opacity: 1; white-space: pre; opacity: 1;">2005–08</text></g><g class="xtick"><text text-anchor="middle" x="0" y="413" transform="translate(541.78,0)" style="font-family: 'Noto Sans KR', sans-serif; font-size: 12px; fill: rgb(28, 27, 25); fill-opacity: 1; white-space: pre; opacity: 1;">2009–12</text></g><g class="xtick"><text text-anchor="middle" x="0" y="413" transform="translate(629.35,0)" style="font-family: 'Noto Sans KR', sans-serif; font-size: 12px; fill: rgb(28, 27, 25); fill-opacity: 1; white-space: pre; opacity: 1;">2013–16</text></g><g class="xtick"><text text-anchor="middle" x="0" y="413" transform="translate(716.92,0)" style="font-family: 'Noto Sans KR', sans-serif; font-size: 12px; fill: rgb(28, 27, 25); fill-opacity: 1; white-space: pre; opacity: 1;">2017–20</text></g><g class="xtick"><text text-anchor="middle" x="0" y="413" transform="translate(804.48,0)" style="font-family: 'Noto Sans KR', sans-serif; font-size: 12px; fill: rgb(28, 27, 25); fill-opacity: 1; white-space: pre; opacity: 1;">2021–24</text></g><g class="xtick"><text text-anchor="middle" x="0" y="413" transform="translate(892.05,0)" style="font-family: 'Noto Sans KR', sans-serif; font-size: 12px; fill: rgb(28, 27, 25); fill-opacity: 1; white-space: pre; opacity: 1;">2025–26</text></g></g><g class="yaxislayer-above"><g class="ytick"><text text-anchor="end" x="55" y="4.8999999999999995" transform="translate(0,400)" style="font-family: 'Noto Sans KR', sans-serif; font-size: 14px; fill: rgb(110, 103, 92); fill-opacity: 1; white-space: pre; opacity: 1;">0</text></g><g class="ytick"><text text-anchor="end" x="55" y="4.8999999999999995" style="font-family: 'Noto Sans KR', sans-serif; font-size: 14px; fill: rgb(110, 103, 92); fill-opacity: 1; white-space: pre; opacity: 1;" transform="translate(0,347.78)">10</text></g><g class="ytick"><text text-anchor="end" x="55" y="4.8999999999999995" style="font-family: 'Noto Sans KR', sans-serif; font-size: 14px; fill: rgb(110, 103, 92); fill-opacity: 1; white-space: pre; opacity: 1;" transform="translate(0,295.57)">20</text></g><g class="ytick"><text text-anchor="end" x="55" y="4.8999999999999995" style="font-family: 'Noto Sans KR', sans-serif; font-size: 14px; fill: rgb(110, 103, 92); fill-opacity: 1; white-space: pre; opacity: 1;" transform="translate(0,243.35)">30</text></g><g class="ytick"><text text-anchor="end" x="55" y="4.8999999999999995" style="font-family: 'Noto Sans KR', sans-serif; font-size: 14px; fill: rgb(110, 103, 92); fill-opacity: 1; white-space: pre; opacity: 1;" transform="translate(0,191.14)">40</text></g><g class="ytick"><text text-anchor="end" x="55" y="4.8999999999999995" style="font-family: 'Noto Sans KR', sans-serif; font-size: 14px; fill: rgb(110, 103, 92); fill-opacity: 1; white-space: pre; opacity: 1;" transform="translate(0,138.92000000000002)">50</text></g><g class="ytick"><text text-anchor="end" x="55" y="4.8999999999999995" style="font-family: 'Noto Sans KR', sans-serif; font-size: 14px; fill: rgb(110, 103, 92); fill-opacity: 1; white-space: pre; opacity: 1;" transform="translate(0,86.7)">60</text></g></g><g class="overaxes-above"/></g></g><g class="polarlayer"/><g class="smithlayer"/><g class="ternarylayer"/><g class="geolayer"/><g class="funnelarealayer"/><g class="pielayer"/><g class="iciclelayer"/><g class="treemaplayer"/><g class="sunburstlayer"/><g class="glimages"/><defs id="topdefs-742404"><g class="clips"/><clipPath id="legend742404"><rect width="244" height="30" x="0" y="0"/></clipPath></defs><g class="layer-above"><g class="imagelayer"/><g class="shapelayer"/></g><g class="infolayer"><g class="legend" pointer-events="all" transform="translate(56,12.239999999999988)"><rect class="bg" shape-rendering="crispEdges" width="244" height="30" x="0" y="0" style="stroke: rgb(68, 68, 68); stroke-opacity: 1; fill: rgb(255, 255, 255); fill-opacity: 1; stroke-width: 0px;"/><g class="scrollbox" transform="" clip-path="url(#legend742404)"><g class="groups"><g class="traces" transform="translate(0,14.625)" style="opacity: 1;"><text class="legendtext" text-anchor="start" x="40" y="4.875" style="font-family: 'Noto Sans KR', sans-serif; font-size: 12.5px; fill: rgb(110, 103, 92); fill-opacity: 1; white-space: pre;">KCI 활동 핵심</text><g class="layers" style="opacity: 1;"><g class="legendfill"/><g class="legendlines"><path class="js-line" d="M5,0h30" style="fill: none; stroke: rgb(28, 27, 25); stroke-opacity: 1; stroke-width: 1.9px;"/></g><g class="legendsymbols"><g class="legendpoints"><path class="scatterpts" transform="translate(20,0)" d="M3,0A3,3 0 1,1 0,-3A3,3 0 0,1 3,0Z" style="opacity: 1; stroke-width: 1px; fill: rgb(28, 27, 25); fill-opacity: 1; stroke: rgb(255, 255, 255); stroke-opacity: 1;"/></g></g></g><rect class="legendtoggle" x="0" y="-9.625" width="114.9140625" height="19.25" style="fill: rgb(0, 0, 0); fill-opacity: 0;"/></g><g class="traces" transform="translate(117.4140625,14.625)" style="opacity: 1;"><text class="legendtext" text-anchor="start" x="40" y="4.875" style="font-family: 'Noto Sans KR', sans-serif; font-size: 12.5px; fill: rgb(110, 103, 92); fill-opacity: 1; white-space: pre;">『인도철학』 게재</text><g class="layers" style="opacity: 1;"><g class="legendfill"/><g class="legendlines"><path class="js-line" d="M5,0h30" style="fill: none; stroke: rgb(184, 145, 31); stroke-opacity: 1; stroke-width: 2.3px;"/></g><g class="legendsymbols"><g class="legendpoints"><path class="scatterpts" transform="translate(20,0)" d="M3,0A3,3 0 1,1 0,-3A3,3 0 0,1 3,0Z" style="opacity: 1; stroke-width: 1px; fill: rgb(184, 145, 31); fill-opacity: 1; stroke: rgb(255, 255, 255); stroke-opacity: 1;"/></g></g></g><rect class="legendtoggle" x="0" y="-9.625" width="123.5" height="19.25" style="fill: rgb(0, 0, 0); fill-opacity: 0;"/></g></g></g><rect class="scrollbar" rx="20" ry="3" width="0" height="0" x="0" y="0" style="fill: rgb(128, 139, 164); fill-opacity: 1;"/></g><g class="g-gtitle"/><g class="g-xtitle"/><g class="g-ytitle"><text class="ytitle" transform="rotate(-90,22,228)" x="22" y="228" text-anchor="middle" style="opacity: 1; font-family: 'Noto Sans KR', sans-serif; font-size: 12px; fill: rgb(110, 103, 92); fill-opacity: 1; white-space: pre;">핵심 필진 수 (명)</text></g><g class="annotation" data-index="0" style="opacity: 1;"><g class="annotation-text-g" transform="rotate(0,191.52,347.23)"><g class="cursor-pointer" transform="translate(187,338)"><rect class="bg" x="0.5" y="0.5" width="9" height="18" style="stroke-width: 1px; stroke: rgb(0, 0, 0); stroke-opacity: 0; fill: rgb(255, 255, 255); fill-opacity: 0.85;"/><text class="annotation-text" text-anchor="middle" x="5.09765625" y="14" style="font-family: 'Noto Sans KR', sans-serif; font-size: 10.5px; fill: rgb(28, 27, 25); fill-opacity: 1; white-space: pre;"><tspan style="font-weight:bold">8</tspan></text></g></g></g><g class="annotation" data-index="1" style="opacity: 1;"><g class="annotation-text-g" transform="rotate(0,279.08000000000004,336.78)"><g class="cursor-pointer" transform="translate(271,327)"><rect class="bg" x="0.5" y="0.5" width="15" height="18" style="stroke-width: 1px; stroke: rgb(0, 0, 0); stroke-opacity: 0; fill: rgb(255, 255, 255); fill-opacity: 0.85;"/><text class="annotation-text" text-anchor="middle" x="8.19140625" y="14" style="font-family: 'Noto Sans KR', sans-serif; font-size: 10.5px; fill: rgb(28, 27, 25); fill-opacity: 1; white-space: pre;"><tspan style="font-weight:bold">10</tspan></text></g></g></g><g class="annotation" data-index="2" style="opacity: 1;"><g class="annotation-text-g" transform="rotate(0,279.08000000000004,364.01)"><g class="cursor-pointer" transform="translate(274,355)"><rect class="bg" x="0.5" y="0.5" width="9" height="18" style="stroke-width: 1px; stroke: rgb(0, 0, 0); stroke-opacity: 0; fill: rgb(255, 255, 255); fill-opacity: 0.85;"/><text class="annotation-text" text-anchor="middle" x="5.09765625" y="14" style="font-family: 'Noto Sans KR', sans-serif; font-size: 10.5px; fill: rgb(184, 145, 31); fill-opacity: 1; white-space: pre;"><tspan style="font-weight:bold">9</tspan></text></g></g></g><g class="annotation" data-index="3" style="opacity: 1;"><g class="annotation-text-g" transform="rotate(0,366.65,321.12)"><g class="cursor-pointer" transform="translate(359,312)"><rect class="bg" x="0.5" y="0.5" width="15" height="18" style="stroke-width: 1px; stroke: rgb(0, 0, 0); stroke-opacity: 0; fill: rgb(255, 255, 255); fill-opacity: 0.85;"/><text class="annotation-text" text-anchor="middle" x="8.19140625" y="14" style="font-family: 'Noto Sans KR', sans-serif; font-size: 10.5px; fill: rgb(28, 27, 25); fill-opacity: 1; white-space: pre;"><tspan style="font-weight:bold">13</tspan></text></g></g></g><g class="annotation" data-index="4" style="opacity: 1;"><g class="annotation-text-g" transform="rotate(0,366.65,348.34)"><g class="cursor-pointer" transform="translate(359,339)"><rect class="bg" x="0.5" y="0.5" width="15" height="18" style="stroke-width: 1px; stroke: rgb(0, 0, 0); stroke-opacity: 0; fill: rgb(255, 255, 255); fill-opacity: 0.85;"/><text class="annotation-text" text-anchor="middle" x="8.19140625" y="14" style="font-family: 'Noto Sans KR', sans-serif; font-size: 10.5px; fill: rgb(184, 145, 31); fill-opacity: 1; white-space: pre;"><tspan style="font-weight:bold">12</tspan></text></g></g></g><g class="annotation" data-index="5" style="opacity: 1;"><g class="annotation-text-g" transform="rotate(0,454.22,268.9)"><g class="cursor-pointer" transform="translate(446,259)"><rect class="bg" x="0.5" y="0.5" width="15" height="18" style="stroke-width: 1px; stroke: rgb(0, 0, 0); stroke-opacity: 0; fill: rgb(255, 255, 255); fill-opacity: 0.85;"/><text class="annotation-text" text-anchor="middle" x="8.19140625" y="14" style="font-family: 'Noto Sans KR', sans-serif; font-size: 10.5px; fill: rgb(28, 27, 25); fill-opacity: 1; white-space: pre;"><tspan style="font-weight:bold">23</tspan></text></g></g></g><g class="annotation" data-index="6" style="opacity: 1;"><g class="annotation-text-g" transform="rotate(0,454.22,306.57)"><g class="cursor-pointer" transform="translate(446,297)"><rect class="bg" x="0.5" y="0.5" width="15" height="18" style="stroke-width: 1px; stroke: rgb(0, 0, 0); stroke-opacity: 0; fill: rgb(255, 255, 255); fill-opacity: 0.85;"/><text class="annotation-text" text-anchor="middle" x="8.19140625" y="14" style="font-family: 'Noto Sans KR', sans-serif; font-size: 10.5px; fill: rgb(184, 145, 31); fill-opacity: 1; white-space: pre;"><tspan style="font-weight:bold">20</tspan></text></g></g></g><g class="annotation" data-index="7" style="opacity: 1;"><g class="annotation-text-g" transform="rotate(0,541.78,211.47)"><g class="cursor-pointer" transform="translate(534,202)"><rect class="bg" x="0.5" y="0.5" width="15" height="18" style="stroke-width: 1px; stroke: rgb(0, 0, 0); stroke-opacity: 0; fill: rgb(255, 255, 255); fill-opacity: 0.85;"/><text class="annotation-text" text-anchor="middle" x="8.19140625" y="14" style="font-family: 'Noto Sans KR', sans-serif; font-size: 10.5px; fill: rgb(28, 27, 25); fill-opacity: 1; white-space: pre;"><tspan style="font-weight:bold">34</tspan></text></g></g></g><g class="annotation" data-index="8" style="opacity: 1;"><g class="annotation-text-g" transform="rotate(0,541.78,264.78999999999996)"><g class="cursor-pointer" transform="translate(534,255)"><rect class="bg" x="0.5" y="0.5" width="15" height="18" style="stroke-width: 1px; stroke: rgb(0, 0, 0); stroke-opacity: 0; fill: rgb(255, 255, 255); fill-opacity: 0.85;"/><text class="annotation-text" text-anchor="middle" x="8.19140625" y="14" style="font-family: 'Noto Sans KR', sans-serif; font-size: 10.5px; fill: rgb(184, 145, 31); fill-opacity: 1; white-space: pre;"><tspan style="font-weight:bold">28</tspan></text></g></g></g><g class="annotation" data-index="9" style="opacity: 1;"><g class="annotation-text-g" transform="rotate(0,629.35,159.25)"><g class="cursor-pointer" transform="translate(621,150)"><rect class="bg" x="0.5" y="0.5" width="15" height="18" style="stroke-width: 1px; stroke: rgb(0, 0, 0); stroke-opacity: 0; fill: rgb(255, 255, 255); fill-opacity: 0.85;"/><text class="annotation-text" text-anchor="middle" x="8.19140625" y="14" style="font-family: 'Noto Sans KR', sans-serif; font-size: 10.5px; fill: rgb(28, 27, 25); fill-opacity: 1; white-space: pre;"><tspan style="font-weight:bold">44</tspan></text></g></g></g><g class="annotation" data-index="10" style="opacity: 1;"><g class="annotation-text-g" transform="rotate(0,629.35,243.91)"><g class="cursor-pointer" transform="translate(621,234)"><rect class="bg" x="0.5" y="0.5" width="15" height="18" style="stroke-width: 1px; stroke: rgb(0, 0, 0); stroke-opacity: 0; fill: rgb(255, 255, 255); fill-opacity: 0.85;"/><text class="annotation-text" text-anchor="middle" x="8.19140625" y="14" style="font-family: 'Noto Sans KR', sans-serif; font-size: 10.5px; fill: rgb(184, 145, 31); fill-opacity: 1; white-space: pre;"><tspan style="font-weight:bold">32</tspan></text></g></g></g><g class="annotation" data-index="11" style="opacity: 1;"><g class="annotation-text-g" transform="rotate(0,716.92,107.03)"><g class="cursor-pointer" transform="translate(709,98)"><rect class="bg" x="0.5" y="0.5" width="15" height="18" style="stroke-width: 1px; stroke: rgb(0, 0, 0); stroke-opacity: 0; fill: rgb(255, 255, 255); fill-opacity: 0.85;"/><text class="annotation-text" text-anchor="middle" x="8.19140625" y="14" style="font-family: 'Noto Sans KR', sans-serif; font-size: 10.5px; fill: rgb(28, 27, 25); fill-opacity: 1; white-space: pre;"><tspan style="font-weight:bold">54</tspan></text></g></g></g><g class="annotation" data-index="12" style="opacity: 1;"><g class="annotation-text-g" transform="rotate(0,716.92,212.58)"><g class="cursor-pointer" transform="translate(709,203)"><rect class="bg" x="0.5" y="0.5" width="15" height="18" style="stroke-width: 1px; stroke: rgb(0, 0, 0); stroke-opacity: 0; fill: rgb(255, 255, 255); fill-opacity: 0.85;"/><text class="annotation-text" text-anchor="middle" x="8.19140625" y="14" style="font-family: 'Noto Sans KR', sans-serif; font-size: 10.5px; fill: rgb(184, 145, 31); fill-opacity: 1; white-space: pre;"><tspan style="font-weight:bold">38</tspan></text></g></g></g><g class="annotation" data-index="13" style="opacity: 1;"><g class="annotation-text-g" transform="rotate(0,804.48,117.48000000000002)"><g class="cursor-pointer" transform="translate(797,109)"><rect class="bg" x="0.5" y="0.5" width="14" height="16" style="stroke-width: 1px; stroke: rgb(0, 0, 0); stroke-opacity: 0; fill: rgb(255, 255, 255); fill-opacity: 0.85;"/><text class="annotation-text" text-anchor="middle" x="7.50390625" y="11.5" style="font-family: 'Noto Sans KR', sans-serif; font-size: 10.5px; fill: rgb(28, 27, 25); fill-opacity: 1; white-space: pre;"><tspan style="font-weight:bold">52</tspan></text></g></g></g><g class="annotation" data-index="14" style="opacity: 1;"><g class="annotation-text-g" transform="rotate(0,804.48,296.12)"><g class="cursor-pointer" transform="translate(796,287)"><rect class="bg" x="0.5" y="0.5" width="15" height="18" style="stroke-width: 1px; stroke: rgb(0, 0, 0); stroke-opacity: 0; fill: rgb(255, 255, 255); fill-opacity: 0.85;"/><text class="annotation-text" text-anchor="middle" x="8.19140625" y="14" style="font-family: 'Noto Sans KR', sans-serif; font-size: 10.5px; fill: rgb(184, 145, 31); fill-opacity: 1; white-space: pre;"><tspan style="font-weight:bold">22</tspan></text></g></g></g><g class="annotation" data-index="15" style="opacity: 1;"><g class="annotation-text-g" transform="rotate(0,892.05,190.58)"><g class="cursor-pointer" transform="translate(884,181)"><rect class="bg" x="0.5" y="0.5" width="15" height="18" style="stroke-width: 1px; stroke: rgb(0, 0, 0); stroke-opacity: 0; fill: rgb(255, 255, 255); fill-opacity: 0.85;"/><text class="annotation-text" text-anchor="middle" x="8.19140625" y="14" style="font-family: 'Noto Sans KR', sans-serif; font-size: 10.5px; fill: rgb(28, 27, 25); fill-opacity: 1; white-space: pre;"><tspan style="font-weight:bold">38</tspan></text></g></g></g><g class="annotation" data-index="16" style="opacity: 1;"><g class="annotation-text-g" transform="rotate(0,892.05,369.23)"><g class="cursor-pointer" transform="translate(887,360)"><rect class="bg" x="0.5" y="0.5" width="9" height="18" style="stroke-width: 1px; stroke: rgb(0, 0, 0); stroke-opacity: 0; fill: rgb(255, 255, 255); fill-opacity: 0.85;"/><text class="annotation-text" text-anchor="middle" x="5.09765625" y="14" style="font-family: 'Noto Sans KR', sans-serif; font-size: 10.5px; fill: rgb(184, 145, 31); fill-opacity: 1; white-space: pre;"><tspan style="font-weight:bold">8</tspan></text></g></g></g><g class="annotation" data-index="17" style="opacity: 1;"><g class="annotation-text-g" transform="rotate(0,804.48,206.8)"><g class="cursor-pointer" transform="translate(790,197)"><rect class="bg" x="0.5" y="0.5" width="27" height="19" style="stroke-width: 1px; stroke: rgb(0, 0, 0); stroke-opacity: 0; fill: rgb(0, 0, 0); fill-opacity: 0;"/><text class="annotation-text" text-anchor="middle" x="13.78125" y="15" style="font-family: 'Noto Sans KR', sans-serif; font-size: 11px; fill: rgb(110, 103, 92); fill-opacity: 1; white-space: pre;"><tspan style="font-weight:bold">58%</tspan></text></g></g></g><g class="annotation" data-index="18" style="opacity: 1;"><g class="annotation-text-g" transform="rotate(0,892.05,279.9)"><g class="cursor-pointer" transform="translate(878,270)"><rect class="bg" x="0.5" y="0.5" width="27" height="19" style="stroke-width: 1px; stroke: rgb(0, 0, 0); stroke-opacity: 0; fill: rgb(0, 0, 0); fill-opacity: 0;"/><text class="annotation-text" text-anchor="middle" x="13.78125" y="15" style="font-family: 'Noto Sans KR', sans-serif; font-size: 11px; fill: rgb(110, 103, 92); fill-opacity: 1; white-space: pre;"><tspan style="font-weight:bold">79%</tspan></text></g></g></g><g class="annotation" data-index="19" style="opacity: 1;"><g class="annotation-text-g" transform="rotate(0,191.52,76.64)"><g class="cursor-pointer" transform="translate(124,67)"><rect class="bg" x="0.5" y="0.5" width="134" height="18" style="stroke-width: 1px; stroke: rgb(0, 0, 0); stroke-opacity: 0; fill: rgb(0, 0, 0); fill-opacity: 0;"/><text class="annotation-text" text-anchor="middle" x="67.4140625" y="14" style="font-family: 'Noto Sans KR', sans-serif; font-size: 10.5px; fill: rgb(110, 103, 92); fill-opacity: 1; white-space: pre;">KCI 초기 미커버(밖=0 인공값)</text></g></g></g><g class="annotation" data-index="20" style="opacity: 1;"><g class="annotation-text-g" transform="rotate(0,668.92,107.81)"><g class="cursor-pointer" transform="translate(613,98)"><rect class="bg" x="0.5" y="0.5" width="110" height="19" style="stroke-width: 1px; stroke: rgb(0, 0, 0); stroke-opacity: 0; fill: rgb(255, 255, 255); fill-opacity: 0.8;"/><text class="annotation-text" text-anchor="middle" x="55.68359375" y="15" style="font-family: 'Noto Sans KR', sans-serif; font-size: 11px; fill: rgb(110, 103, 92); fill-opacity: 1; white-space: pre;">인도철학 밖에서만 활동</text></g></g><g class="annotation-arrow-g" style="opacity: 1;"><path d="M677.6892307692307,117.31L716.92,159.81" style="stroke-width: 1px; stroke: rgb(110, 103, 92); stroke-opacity: 1; stroke-dasharray: 0px, 0px, 56.5386px, 57.8386px;"/><path d="M-3.7,-2.5V2.5L1.3,0Z" transform="translate(716.0382080078125,158.85475158691406)rotate(47.30049407847636)" style="fill: rgb(110, 103, 92); stroke-width: 0;"/></g></g></g></svg>