<svg class="main-svg" xmlns="http://www.w3.org/2000/svg" xmlns:xlink="http://www.w3.org/1999/xlink" width="960" height="440" style="" viewBox="0 0 960 440"><rect x="0" y="0" width="960" height="440" style="fill: rgb(255, 255, 255); fill-opacity: 1;"/><defs id="defs-7ac54e"><g class="clips"><clipPath id="clip7ac54exyplot" class="plotclip"><rect width="884" height="344"/></clipPath><clipPath class="axesclip" id="clip7ac54ex"><rect x="56" y="0" width="884" height="440"/></clipPath><clipPath class="axesclip" id="clip7ac54ey"><rect x="0" y="56" width="960" height="344"/></clipPath><clipPath class="axesclip" id="clip7ac54exy"><rect x="56" y="56" width="884" height="344"/></clipPath></g><g class="gradients"/><g class="patterns"/></defs><g class="bglayer"/><g class="layer-below"><g class="imagelayer"/><g class="shapelayer"/></g><g class="cartesianlayer"><g class="subplot xy"><g class="layer-subplot"><g class="shapelayer"/><g class="imagelayer"/></g><g class="minor-gridlayer"><g class="x"/><g class="y"/></g><g class="gridlayer"><g class="x"><path class="xgrid crisp" transform="translate(104.58,0)" d="M0,56v344" style="stroke: rgb(238, 238, 238); stroke-opacity: 1; stroke-width: 1px;"/><path class="xgrid crisp" transform="translate(192,0)" d="M0,56v344" style="stroke: rgb(238, 238, 238); stroke-opacity: 1; stroke-width: 1px;"/><path class="xgrid crisp" transform="translate(279.43,0)" d="M0,56v344" style="stroke: rgb(238, 238, 238); stroke-opacity: 1; stroke-width: 1px;"/><path class="xgrid crisp" transform="translate(366.86,0)" d="M0,56v344" style="stroke: rgb(238, 238, 238); stroke-opacity: 1; stroke-width: 1px;"/><path class="xgrid crisp" transform="translate(454.29,0)" d="M0,56v344" style="stroke: rgb(238, 238, 238); stroke-opacity: 1; stroke-width: 1px;"/><path class="xgrid crisp" transform="translate(541.71,0)" d="M0,56v344" style="stroke: rgb(238, 238, 238); stroke-opacity: 1; stroke-width: 1px;"/><path class="xgrid crisp" transform="translate(629.14,0)" d="M0,56v344" style="stroke: rgb(238, 238, 238); stroke-opacity: 1; stroke-width: 1px;"/><path class="xgrid crisp" transform="translate(716.57,0)" d="M0,56v344" style="stroke: rgb(238, 238, 238); stroke-opacity: 1; stroke-width: 1px;"/><path class="xgrid crisp" transform="translate(804,0)" d="M0,56v344" style="stroke: rgb(238, 238, 238); stroke-opacity: 1; stroke-width: 1px;"/><path class="xgrid crisp" transform="translate(891.43,0)" d="M0,56v344" style="stroke: rgb(238, 238, 238); stroke-opacity: 1; stroke-width: 1px;"/></g><g class="y"><path class="ygrid crisp" transform="translate(0,331.2)" d="M56,0h884" style="stroke: rgb(228, 226, 218); stroke-opacity: 1; stroke-width: 1px;"/><path class="ygrid crisp" transform="translate(0,262.4)" d="M56,0h884" style="stroke: rgb(228, 226, 218); stroke-opacity: 1; stroke-width: 1px;"/><path class="ygrid crisp" transform="translate(0,193.6)" d="M56,0h884" style="stroke: rgb(228, 226, 218); stroke-opacity: 1; stroke-width: 1px;"/><path class="ygrid crisp" transform="translate(0,124.8)" d="M56,0h884" style="stroke: rgb(228, 226, 218); stroke-opacity: 1; stroke-width: 1px;"/></g></g><g class="zerolinelayer"><path class="yzl zl crisp" transform="translate(0,400)" d="M56,0h884" style="stroke: rgb(68, 68, 68); stroke-opacity: 1; stroke-width: 1px;"/></g><g class="layer-between"><g class="shapelayer"/><g class="imagelayer"/></g><path class="xlines-below"/><path class="ylines-below"/><g class="overlines-below"/><g class="xaxislayer-below"/><g class="yaxislayer-below"/><g class="overaxes-below"/><g class="overplot"><g class="xy" transform="translate(56,56)" clip-path="url(#clip7ac54exyplot)"><g class="scatterlayer mlayer"><g class="trace scatter trace403658" style="stroke-miterlimit: 2; opacity: 1;"><g class="fills"/><g class="errorbars"/><g class="lines"><path class="js-line" d="M48.58,344L136,154.8L223.43,134.16L310.86,196.08L398.29,134.16L485.71,134.16L573.14,123.84L660.57,72.24L748,158.24" style="vector-effect: none; fill: none; stroke: rgb(184, 180, 168); stroke-opacity: 1; stroke-width: 1.8px; opacity: 1;"/></g><g class="points"><path class="point" transform="translate(48.58,344)" d="M2.5,0A2.5,2.5 0 1,1 0,-2.5A2.5,2.5 0 0,1 2.5,0Z" style="opacity: 1; stroke-width: 1.1px; fill: rgb(184, 180, 168); fill-opacity: 1; stroke: rgb(255, 255, 255); stroke-opacity: 1;"/><path class="point" transform="translate(136,154.8)" d="M2.5,0A2.5,2.5 0 1,1 0,-2.5A2.5,2.5 0 0,1 2.5,0Z" style="opacity: 1; stroke-width: 1.1px; fill: rgb(184, 180, 168); fill-opacity: 1; stroke: rgb(255, 255, 255); stroke-opacity: 1;"/><path class="point" transform="translate(223.43,134.16)" d="M2.5,0A2.5,2.5 0 1,1 0,-2.5A2.5,2.5 0 0,1 2.5,0Z" style="opacity: 1; stroke-width: 1.1px; fill: rgb(184, 180, 168); fill-opacity: 1; stroke: rgb(255, 255, 255); stroke-opacity: 1;"/><path class="point" transform="translate(310.86,196.08)" d="M2.5,0A2.5,2.5 0 1,1 0,-2.5A2.5,2.5 0 0,1 2.5,0Z" style="opacity: 1; stroke-width: 1.1px; fill: rgb(184, 180, 168); fill-opacity: 1; stroke: rgb(255, 255, 255); stroke-opacity: 1;"/><path class="point" transform="translate(398.29,134.16)" d="M2.5,0A2.5,2.5 0 1,1 0,-2.5A2.5,2.5 0 0,1 2.5,0Z" style="opacity: 1; stroke-width: 1.1px; fill: rgb(184, 180, 168); fill-opacity: 1; stroke: rgb(255, 255, 255); stroke-opacity: 1;"/><path class="point" transform="translate(485.71,134.16)" d="M2.5,0A2.5,2.5 0 1,1 0,-2.5A2.5,2.5 0 0,1 2.5,0Z" style="opacity: 1; stroke-width: 1.1px; fill: rgb(184, 180, 168); fill-opacity: 1; stroke: rgb(255, 255, 255); stroke-opacity: 1;"/><path class="point" transform="translate(573.14,123.84)" d="M2.5,0A2.5,2.5 0 1,1 0,-2.5A2.5,2.5 0 0,1 2.5,0Z" style="opacity: 1; stroke-width: 1.1px; fill: rgb(184, 180, 168); fill-opacity: 1; stroke: rgb(255, 255, 255); stroke-opacity: 1;"/><path class="point" transform="translate(660.57,72.24)" d="M2.5,0A2.5,2.5 0 1,1 0,-2.5A2.5,2.5 0 0,1 2.5,0Z" style="opacity: 1; stroke-width: 1.1px; fill: rgb(184, 180, 168); fill-opacity: 1; stroke: rgb(255, 255, 255); stroke-opacity: 1;"/><path class="point" transform="translate(748,158.24)" d="M2.5,0A2.5,2.5 0 1,1 0,-2.5A2.5,2.5 0 0,1 2.5,0Z" style="opacity: 1; stroke-width: 1.1px; fill: rgb(184, 180, 168); fill-opacity: 1; stroke: rgb(255, 255, 255); stroke-opacity: 1;"/></g><g class="text"/></g><g class="trace scatter tracebefaee" style="stroke-miterlimit: 2; opacity: 1;"><g class="fills"/><g class="errorbars"/><g class="lines"><path class="js-line" d="M748,158.24L835.43,196.08" style="vector-effect: none; fill: none; stroke: rgb(184, 180, 168); stroke-opacity: 1; stroke-dasharray: 3px, 3px; stroke-width: 1.8px; opacity: 1;"/></g><g class="points"><path class="point" transform="translate(748,158.24)" d="M2.5,0A2.5,2.5 0 1,1 0,-2.5A2.5,2.5 0 0,1 2.5,0Z" style="opacity: 1; stroke-width: 1.2px; fill: rgb(0, 0, 0); fill-opacity: 0; stroke: rgb(184, 180, 168); stroke-opacity: 1;"/><path class="point" transform="translate(835.43,196.08)" d="M2.5,0A2.5,2.5 0 1,1 0,-2.5A2.5,2.5 0 0,1 2.5,0Z" style="opacity: 1; stroke-width: 1.2px; fill: rgb(255, 255, 255); fill-opacity: 1; stroke: rgb(184, 180, 168); stroke-opacity: 1;"/></g><g class="text"/></g><g class="trace scatter trace0ea373" style="stroke-miterlimit: 2; opacity: 1;"><g class="fills"/><g class="errorbars"/><g class="lines"><path class="js-line" d="M48.58,344L136,172L223.43,134.16L310.86,199.52L398.29,192.64L485.71,209.84L573.14,172L660.57,158.24L748,223.6" style="vector-effect: none; fill: none; stroke: rgb(184, 145, 31); stroke-opacity: 1; stroke-width: 2.2px; opacity: 1;"/></g><g class="points"><path class="point" transform="translate(48.58,344)" d="M3.5,0A3.5,3.5 0 1,1 0,-3.5A3.5,3.5 0 0,1 3.5,0Z" style="opacity: 1; stroke-width: 1.1px; fill: rgb(184, 145, 31); fill-opacity: 1; stroke: rgb(255, 255, 255); stroke-opacity: 1;"/><path class="point" transform="translate(136,172)" d="M3.5,0A3.5,3.5 0 1,1 0,-3.5A3.5,3.5 0 0,1 3.5,0Z" style="opacity: 1; stroke-width: 1.1px; fill: rgb(184, 145, 31); fill-opacity: 1; stroke: rgb(255, 255, 255); stroke-opacity: 1;"/><path class="point" transform="translate(223.43,134.16)" d="M3.5,0A3.5,3.5 0 1,1 0,-3.5A3.5,3.5 0 0,1 3.5,0Z" style="opacity: 1; stroke-width: 1.1px; fill: rgb(184, 145, 31); fill-opacity: 1; stroke: rgb(255, 255, 255); stroke-opacity: 1;"/><path class="point" transform="translate(310.86,199.52)" d="M3.5,0A3.5,3.5 0 1,1 0,-3.5A3.5,3.5 0 0,1 3.5,0Z" style="opacity: 1; stroke-width: 1.1px; fill: rgb(184, 145, 31); fill-opacity: 1; stroke: rgb(255, 255, 255); stroke-opacity: 1;"/><path class="point" transform="translate(398.29,192.64)" d="M3.5,0A3.5,3.5 0 1,1 0,-3.5A3.5,3.5 0 0,1 3.5,0Z" style="opacity: 1; stroke-width: 1.1px; fill: rgb(184, 145, 31); fill-opacity: 1; stroke: rgb(255, 255, 255); stroke-opacity: 1;"/><path class="point" transform="translate(485.71,209.84)" d="M3.5,0A3.5,3.5 0 1,1 0,-3.5A3.5,3.5 0 0,1 3.5,0Z" style="opacity: 1; stroke-width: 1.1px; fill: rgb(184, 145, 31); fill-opacity: 1; stroke: rgb(255, 255, 255); stroke-opacity: 1;"/><path class="point" transform="translate(573.14,172)" d="M3.5,0A3.5,3.5 0 1,1 0,-3.5A3.5,3.5 0 0,1 3.5,0Z" style="opacity: 1; stroke-width: 1.1px; fill: rgb(184, 145, 31); fill-opacity: 1; stroke: rgb(255, 255, 255); stroke-opacity: 1;"/><path class="point" transform="translate(660.57,158.24)" d="M3.5,0A3.5,3.5 0 1,1 0,-3.5A3.5,3.5 0 0,1 3.5,0Z" style="opacity: 1; stroke-width: 1.1px; fill: rgb(184, 145, 31); fill-opacity: 1; stroke: rgb(255, 255, 255); stroke-opacity: 1;"/><path class="point" transform="translate(748,223.6)" d="M3.5,0A3.5,3.5 0 1,1 0,-3.5A3.5,3.5 0 0,1 3.5,0Z" style="opacity: 1; stroke-width: 1.1px; fill: rgb(184, 145, 31); fill-opacity: 1; stroke: rgb(255, 255, 255); stroke-opacity: 1;"/></g><g class="text"/></g><g class="trace scatter tracee9ee1a" style="stroke-miterlimit: 2; opacity: 1;"><g class="fills"/><g class="errorbars"/><g class="lines"><path class="js-line" d="M748,223.6L835.43,230.48" style="vector-effect: none; fill: none; stroke: rgb(184, 145, 31); stroke-opacity: 1; stroke-dasharray: 3px, 3px; stroke-width: 2.2px; opacity: 1;"/></g><g class="points"><path class="point" transform="translate(748,223.6)" d="M3.5,0A3.5,3.5 0 1,1 0,-3.5A3.5,3.5 0 0,1 3.5,0Z" style="opacity: 1; stroke-width: 1.2px; fill: rgb(0, 0, 0); fill-opacity: 0; stroke: rgb(184, 145, 31); stroke-opacity: 1;"/><path class="point" transform="translate(835.43,230.48)" d="M3.5,0A3.5,3.5 0 1,1 0,-3.5A3.5,3.5 0 0,1 3.5,0Z" style="opacity: 1; stroke-width: 1.2px; fill: rgb(255, 255, 255); fill-opacity: 1; stroke: rgb(184, 145, 31); stroke-opacity: 1;"/></g><g class="text"/></g><g class="trace scatter trace0a601c" style="stroke-miterlimit: 2; opacity: 1;"><g class="fills"/><g class="errorbars"/><g class="lines"><path class="js-line" d="M48.58,344L136,326.8L223.43,344L310.86,337.12L398.29,285.52L485.71,268.32L573.14,295.84L660.57,258L748,278.64" style="vector-effect: none; fill: none; stroke: rgb(28, 27, 25); stroke-opacity: 1; stroke-width: 2.2px; opacity: 1;"/></g><g class="points"><path class="point" transform="translate(48.58,344)" d="M3.5,3.5H-3.5V-3.5H3.5Z" style="opacity: 1; stroke-width: 1.1px; fill: rgb(28, 27, 25); fill-opacity: 1; stroke: rgb(255, 255, 255); stroke-opacity: 1;"/><path class="point" transform="translate(136,326.8)" d="M3.5,3.5H-3.5V-3.5H3.5Z" style="opacity: 1; stroke-width: 1.1px; fill: rgb(28, 27, 25); fill-opacity: 1; stroke: rgb(255, 255, 255); stroke-opacity: 1;"/><path class="point" transform="translate(223.43,344)" d="M3.5,3.5H-3.5V-3.5H3.5Z" style="opacity: 1; stroke-width: 1.1px; fill: rgb(28, 27, 25); fill-opacity: 1; stroke: rgb(255, 255, 255); stroke-opacity: 1;"/><path class="point" transform="translate(310.86,337.12)" d="M3.5,3.5H-3.5V-3.5H3.5Z" style="opacity: 1; stroke-width: 1.1px; fill: rgb(28, 27, 25); fill-opacity: 1; stroke: rgb(255, 255, 255); stroke-opacity: 1;"/><path class="point" transform="translate(398.29,285.52)" d="M3.5,3.5H-3.5V-3.5H3.5Z" style="opacity: 1; stroke-width: 1.1px; fill: rgb(28, 27, 25); fill-opacity: 1; stroke: rgb(255, 255, 255); stroke-opacity: 1;"/><path class="point" transform="translate(485.71,268.32)" d="M3.5,3.5H-3.5V-3.5H3.5Z" style="opacity: 1; stroke-width: 1.1px; fill: rgb(28, 27, 25); fill-opacity: 1; stroke: rgb(255, 255, 255); stroke-opacity: 1;"/><path class="point" transform="translate(573.14,295.84)" d="M3.5,3.5H-3.5V-3.5H3.5Z" style="opacity: 1; stroke-width: 1.1px; fill: rgb(28, 27, 25); fill-opacity: 1; stroke: rgb(255, 255, 255); stroke-opacity: 1;"/><path class="point" transform="translate(660.57,258)" d="M3.5,3.5H-3.5V-3.5H3.5Z" style="opacity: 1; stroke-width: 1.1px; fill: rgb(28, 27, 25); fill-opacity: 1; stroke: rgb(255, 255, 255); stroke-opacity: 1;"/><path class="point" transform="translate(748,278.64)" d="M3.5,3.5H-3.5V-3.5H3.5Z" style="opacity: 1; stroke-width: 1.1px; fill: rgb(28, 27, 25); fill-opacity: 1; stroke: rgb(255, 255, 255); stroke-opacity: 1;"/></g><g class="text"/></g><g class="trace scatter tracea88678" style="stroke-miterlimit: 2; opacity: 1;"><g class="fills"/><g class="errorbars"/><g class="lines"><path class="js-line" d="M748,278.64L835.43,309.6" style="vector-effect: none; fill: none; stroke: rgb(28, 27, 25); stroke-opacity: 1; stroke-dasharray: 3px, 3px; stroke-width: 2.2px; opacity: 1;"/></g><g class="points"><path class="point" transform="translate(748,278.64)" d="M3.5,3.5H-3.5V-3.5H3.5Z" style="opacity: 1; stroke-width: 1.2px; fill: rgb(0, 0, 0); fill-opacity: 0; stroke: rgb(28, 27, 25); stroke-opacity: 1;"/><path class="point" transform="translate(835.43,309.6)" d="M3.5,3.5H-3.5V-3.5H3.5Z" style="opacity: 1; stroke-width: 1.2px; fill: rgb(255, 255, 255); fill-opacity: 1; stroke: rgb(28, 27, 25); stroke-opacity: 1;"/></g><g class="text"/></g></g></g></g><path class="xlines-above crisp" d="M0,0" style="fill: none;"/><path class="ylines-above crisp" d="M0,0" style="fill: none;"/><g class="overlines-above"/><g class="xaxislayer-above"><g class="xtick"><text text-anchor="middle" x="0" y="413" transform="translate(104.58,0)" style="font-family: 'Noto Sans KR', sans-serif; font-size: 12px; fill: rgb(28, 27, 25); fill-opacity: 1; white-space: pre; opacity: 1;">1989–92</text></g><g class="xtick"><text text-anchor="middle" x="0" y="413" transform="translate(192,0)" style="font-family: 'Noto Sans KR', sans-serif; font-size: 12px; fill: rgb(28, 27, 25); fill-opacity: 1; white-space: pre; opacity: 1;">1993–96</text></g><g class="xtick"><text text-anchor="middle" x="0" y="413" transform="translate(279.43,0)" style="font-family: 'Noto Sans KR', sans-serif; font-size: 12px; fill: rgb(28, 27, 25); fill-opacity: 1; white-space: pre; opacity: 1;">1997–00</text></g><g class="xtick"><text text-anchor="middle" x="0" y="413" transform="translate(366.86,0)" style="font-family: 'Noto Sans KR', sans-serif; font-size: 12px; fill: rgb(28, 27, 25); fill-opacity: 1; white-space: pre; opacity: 1;">2001–04</text></g><g class="xtick"><text text-anchor="middle" x="0" y="413" transform="translate(454.29,0)" style="font-family: 'Noto Sans KR', sans-serif; font-size: 12px; fill: rgb(28, 27, 25); fill-opacity: 1; white-space: pre; opacity: 1;">2005–08</text></g><g class="xtick"><text text-anchor="middle" x="0" y="413" transform="translate(541.71,0)" style="font-family: 'Noto Sans KR', sans-serif; font-size: 12px; fill: rgb(28, 27, 25); fill-opacity: 1; white-space: pre; opacity: 1;">2009–12</text></g><g class="xtick"><text text-anchor="middle" x="0" y="413" transform="translate(629.14,0)" style="font-family: 'Noto Sans KR', sans-serif; font-size: 12px; fill: rgb(28, 27, 25); fill-opacity: 1; white-space: pre; opacity: 1;">2013–16</text></g><g class="xtick"><text text-anchor="middle" x="0" y="413" transform="translate(716.57,0)" style="font-family: 'Noto Sans KR', sans-serif; font-size: 12px; fill: rgb(28, 27, 25); fill-opacity: 1; white-space: pre; opacity: 1;">2017–20</text></g><g class="xtick"><text text-anchor="middle" x="0" y="413" transform="translate(804,0)" style="font-family: 'Noto Sans KR', sans-serif; font-size: 12px; fill: rgb(28, 27, 25); fill-opacity: 1; white-space: pre; opacity: 1;">2021–24</text></g><g class="xtick"><text text-anchor="middle" x="0" y="413" transform="translate(891.43,0)" style="font-family: 'Noto Sans KR', sans-serif; font-size: 12px; fill: rgb(28, 27, 25); fill-opacity: 1; white-space: pre; opacity: 1;">2025–26</text></g></g><g class="yaxislayer-above"><g class="ytick"><text text-anchor="end" x="55" y="4.8999999999999995" transform="translate(0,400)" style="font-family: 'Noto Sans KR', sans-serif; font-size: 14px; fill: rgb(110, 103, 92); fill-opacity: 1; white-space: pre; opacity: 1;">0</text></g><g class="ytick"><text text-anchor="end" x="55" y="4.8999999999999995" style="font-family: 'Noto Sans KR', sans-serif; font-size: 14px; fill: rgb(110, 103, 92); fill-opacity: 1; white-space: pre; opacity: 1;" transform="translate(0,331.2)">20</text></g><g class="ytick"><text text-anchor="end" x="55" y="4.8999999999999995" style="font-family: 'Noto Sans KR', sans-serif; font-size: 14px; fill: rgb(110, 103, 92); fill-opacity: 1; white-space: pre; opacity: 1;" transform="translate(0,262.4)">40</text></g><g class="ytick"><text text-anchor="end" x="55" y="4.8999999999999995" style="font-family: 'Noto Sans KR', sans-serif; font-size: 14px; fill: rgb(110, 103, 92); fill-opacity: 1; white-space: pre; opacity: 1;" transform="translate(0,193.6)">60</text></g><g class="ytick"><text text-anchor="end" x="55" y="4.8999999999999995" style="font-family: 'Noto Sans KR', sans-serif; font-size: 14px; fill: rgb(110, 103, 92); fill-opacity: 1; white-space: pre; opacity: 1;" transform="translate(0,124.8)">80</text></g><g class="ytick"><text text-anchor="end" x="55" y="4.8999999999999995" style="font-family: 'Noto Sans KR', sans-serif; font-size: 14px; fill: rgb(110, 103, 92); fill-opacity: 1; white-space: pre; opacity: 1;" transform="translate(0,56)">100</text></g></g><g class="overaxes-above"/></g></g><g class="polarlayer"/><g class="smithlayer"/><g class="ternarylayer"/><g class="geolayer"/><g class="funnelarealayer"/><g class="pielayer"/><g class="iciclelayer"/><g class="treemaplayer"/><g class="sunburstlayer"/><g class="glimages"/><defs id="topdefs-7ac54e"><g class="clips"/><clipPath id="legend7ac54e"><rect width="473" height="30" x="0" y="0"/></clipPath></defs><g class="layer-above"><g class="imagelayer"/><g class="shapelayer"/></g><g class="infolayer"><g class="legend" pointer-events="all" transform="translate(56,12.239999999999988)"><rect class="bg" shape-rendering="crispEdges" width="473" height="30" x="0" y="0" style="stroke: rgb(68, 68, 68); stroke-opacity: 1; fill: rgb(255, 255, 255); fill-opacity: 1; stroke-width: 0px;"/><g class="scrollbox" transform="" clip-path="url(#legend7ac54e)"><g class="groups"><g class="traces" transform="translate(0,14.625)" style="opacity: 1;"><text class="legendtext" text-anchor="start" x="40" y="4.875" style="font-family: 'Noto Sans KR', sans-serif; font-size: 12.5px; fill: rgb(110, 103, 92); fill-opacity: 1; white-space: pre;">핵심 필진 전체</text><g class="layers" style="opacity: 1;"><g class="legendfill"/><g class="legendlines"><path class="js-line" d="M5,0h30" style="fill: none; stroke: rgb(184, 180, 168); stroke-opacity: 1; stroke-width: 1.8px;"/></g><g class="legendsymbols"><g class="legendpoints"><path class="scatterpts" transform="translate(20,0)" d="M2.5,0A2.5,2.5 0 1,1 0,-2.5A2.5,2.5 0 0,1 2.5,0Z" style="opacity: 1; stroke-width: 1.1px; fill: rgb(184, 180, 168); fill-opacity: 1; stroke: rgb(255, 255, 255); stroke-opacity: 1;"/></g></g></g><rect class="legendtoggle" x="0" y="-9.625" width="118.5" height="19.25" style="fill: rgb(0, 0, 0); fill-opacity: 0;"/></g><g class="traces" transform="translate(121,14.625)" style="opacity: 1;"><text class="legendtext" text-anchor="start" x="40" y="4.875" style="font-family: 'Noto Sans KR', sans-serif; font-size: 12.5px; fill: rgb(110, 103, 92); fill-opacity: 1; white-space: pre;">인철과 출신 핵심 (43명)</text><g class="layers" style="opacity: 1;"><g class="legendfill"/><g class="legendlines"><path class="js-line" d="M5,0h30" style="fill: none; stroke: rgb(184, 145, 31); stroke-opacity: 1; stroke-width: 2.2px;"/></g><g class="legendsymbols"><g class="legendpoints"><path class="scatterpts" transform="translate(20,0)" d="M3.5,0A3.5,3.5 0 1,1 0,-3.5A3.5,3.5 0 0,1 3.5,0Z" style="opacity: 1; stroke-width: 1.1px; fill: rgb(184, 145, 31); fill-opacity: 1; stroke: rgb(255, 255, 255); stroke-opacity: 1;"/></g></g></g><rect class="legendtoggle" x="0" y="-9.625" width="167.34375" height="19.25" style="fill: rgb(0, 0, 0); fill-opacity: 0;"/></g><g class="traces" transform="translate(290.84375,14.625)" style="opacity: 1;"><text class="legendtext" text-anchor="start" x="40" y="4.875" style="font-family: 'Noto Sans KR', sans-serif; font-size: 12.5px; fill: rgb(110, 103, 92); fill-opacity: 1; white-space: pre;">비인철과 출신 핵심 (27명)</text><g class="layers" style="opacity: 1;"><g class="legendfill"/><g class="legendlines"><path class="js-line" d="M5,0h30" style="fill: none; stroke: rgb(28, 27, 25); stroke-opacity: 1; stroke-width: 2.2px;"/></g><g class="legendsymbols"><g class="legendpoints"><path class="scatterpts" transform="translate(20,0)" d="M3.5,3.5H-3.5V-3.5H3.5Z" style="opacity: 1; stroke-width: 1.1px; fill: rgb(28, 27, 25); fill-opacity: 1; stroke: rgb(255, 255, 255); stroke-opacity: 1;"/></g></g></g><rect class="legendtoggle" x="0" y="-9.625" width="178.84375" height="19.25" style="fill: rgb(0, 0, 0); fill-opacity: 0;"/></g></g></g><rect class="scrollbar" rx="20" ry="3" width="0" height="0" x="0" y="0" style="fill: rgb(128, 139, 164); fill-opacity: 1;"/></g><g class="g-gtitle"/><g class="g-xtitle"/><g class="g-ytitle"><text class="ytitle" transform="rotate(-90,22,228)" x="22" y="228" text-anchor="middle" style="opacity: 1; font-family: 'Noto Sans KR', sans-serif; font-size: 12px; fill: rgb(110, 103, 92); fill-opacity: 1; white-space: pre;">전체 논문 중 비중 (%)</text></g><g class="annotation" data-index="0" style="opacity: 1;"><g class="annotation-text-g" transform="rotate(0,192,217)"><g class="cursor-pointer" transform="translate(179,208)"><rect class="bg" x="0.5" y="0.5" width="25" height="18" style="stroke-width: 1px; stroke: rgb(0, 0, 0); stroke-opacity: 0; fill: rgb(255, 255, 255); fill-opacity: 0.85;"/><text class="annotation-text" text-anchor="middle" x="13.24609375" y="14" style="font-family: 'Noto Sans KR', sans-serif; font-size: 10.5px; fill: rgb(184, 145, 31); fill-opacity: 1; white-space: pre;"><tspan style="font-weight:bold">50%</tspan></text></g></g></g><g class="annotation" data-index="1" style="opacity: 1;"><g class="annotation-text-g" transform="rotate(0,192,370.8)"><g class="cursor-pointer" transform="translate(182,361)"><rect class="bg" x="0.5" y="0.5" width="19" height="18" style="stroke-width: 1px; stroke: rgb(0, 0, 0); stroke-opacity: 0; fill: rgb(255, 255, 255); fill-opacity: 0.85;"/><text class="annotation-text" text-anchor="middle" x="10.15234375" y="14" style="font-family: 'Noto Sans KR', sans-serif; font-size: 10.5px; fill: rgb(28, 27, 25); fill-opacity: 1; white-space: pre;"><tspan style="font-weight:bold">5%</tspan></text></g></g></g><g class="annotation" data-index="2" style="opacity: 1;"><g class="annotation-text-g" transform="rotate(0,192,195.8)"><g class="cursor-pointer" transform="translate(180,186)"><rect class="bg" x="0.5" y="0.5" width="23" height="18" style="stroke-width: 1px; stroke: rgb(0, 0, 0); stroke-opacity: 0; fill: rgb(255, 255, 255); fill-opacity: 0.85;"/><text class="annotation-text" text-anchor="middle" x="12.16015625" y="13.5" style="font-family: 'Noto Sans KR', sans-serif; font-size: 10px; fill: rgb(138, 134, 123); fill-opacity: 1; white-space: pre;">55%</text></g></g></g><g class="annotation" data-index="3" style="opacity: 1;"><g class="annotation-text-g" transform="rotate(0,279.43,179.16)"><g class="cursor-pointer" transform="translate(266,170)"><rect class="bg" x="0.5" y="0.5" width="25" height="18" style="stroke-width: 1px; stroke: rgb(0, 0, 0); stroke-opacity: 0; fill: rgb(255, 255, 255); fill-opacity: 0.85;"/><text class="annotation-text" text-anchor="middle" x="13.24609375" y="14" style="font-family: 'Noto Sans KR', sans-serif; font-size: 10.5px; fill: rgb(184, 145, 31); fill-opacity: 1; white-space: pre;"><tspan style="font-weight:bold">61%</tspan></text></g></g></g><g class="annotation" data-index="4" style="opacity: 1;"><g class="annotation-text-g" transform="rotate(0,279.43,388)"><g class="cursor-pointer" transform="translate(269,379)"><rect class="bg" x="0.5" y="0.5" width="19" height="18" style="stroke-width: 1px; stroke: rgb(0, 0, 0); stroke-opacity: 0; fill: rgb(255, 255, 255); fill-opacity: 0.85;"/><text class="annotation-text" text-anchor="middle" x="10.15234375" y="14" style="font-family: 'Noto Sans KR', sans-serif; font-size: 10.5px; fill: rgb(28, 27, 25); fill-opacity: 1; white-space: pre;"><tspan style="font-weight:bold">0%</tspan></text></g></g></g><g class="annotation" data-index="5" style="opacity: 1;"><g class="annotation-text-g" transform="rotate(0,366.86,244.52)"><g class="cursor-pointer" transform="translate(354,235)"><rect class="bg" x="0.5" y="0.5" width="25" height="18" style="stroke-width: 1px; stroke: rgb(0, 0, 0); stroke-opacity: 0; fill: rgb(255, 255, 255); fill-opacity: 0.85;"/><text class="annotation-text" text-anchor="middle" x="13.24609375" y="14" style="font-family: 'Noto Sans KR', sans-serif; font-size: 10.5px; fill: rgb(184, 145, 31); fill-opacity: 1; white-space: pre;"><tspan style="font-weight:bold">42%</tspan></text></g></g></g><g class="annotation" data-index="6" style="opacity: 1;"><g class="annotation-text-g" transform="rotate(0,366.86,381.12)"><g class="cursor-pointer" transform="translate(357,372)"><rect class="bg" x="0.5" y="0.5" width="19" height="18" style="stroke-width: 1px; stroke: rgb(0, 0, 0); stroke-opacity: 0; fill: rgb(255, 255, 255); fill-opacity: 0.85;"/><text class="annotation-text" text-anchor="middle" x="10.15234375" y="14" style="font-family: 'Noto Sans KR', sans-serif; font-size: 10.5px; fill: rgb(28, 27, 25); fill-opacity: 1; white-space: pre;"><tspan style="font-weight:bold">2%</tspan></text></g></g></g><g class="annotation" data-index="7" style="opacity: 1;"><g class="annotation-text-g" transform="rotate(0,454.29,237.64)"><g class="cursor-pointer" transform="translate(441,228)"><rect class="bg" x="0.5" y="0.5" width="25" height="18" style="stroke-width: 1px; stroke: rgb(0, 0, 0); stroke-opacity: 0; fill: rgb(255, 255, 255); fill-opacity: 0.85;"/><text class="annotation-text" text-anchor="middle" x="13.24609375" y="14" style="font-family: 'Noto Sans KR', sans-serif; font-size: 10.5px; fill: rgb(184, 145, 31); fill-opacity: 1; white-space: pre;"><tspan style="font-weight:bold">44%</tspan></text></g></g></g><g class="annotation" data-index="8" style="opacity: 1;"><g class="annotation-text-g" transform="rotate(0,454.29,353.52)"><g class="cursor-pointer" transform="translate(441,344)"><rect class="bg" x="0.5" y="0.5" width="25" height="18" style="stroke-width: 1px; stroke: rgb(0, 0, 0); stroke-opacity: 0; fill: rgb(255, 255, 255); fill-opacity: 0.85;"/><text class="annotation-text" text-anchor="middle" x="13.24609375" y="14" style="font-family: 'Noto Sans KR', sans-serif; font-size: 10.5px; fill: rgb(28, 27, 25); fill-opacity: 1; white-space: pre;"><tspan style="font-weight:bold">17%</tspan></text></g></g></g><g class="annotation" data-index="9" style="opacity: 1;"><g class="annotation-text-g" transform="rotate(0,454.29,180.16)"><g class="cursor-pointer" transform="translate(442,171)"><rect class="bg" x="0.5" y="0.5" width="23" height="18" style="stroke-width: 1px; stroke: rgb(0, 0, 0); stroke-opacity: 0; fill: rgb(255, 255, 255); fill-opacity: 0.85;"/><text class="annotation-text" text-anchor="middle" x="12.16015625" y="13.5" style="font-family: 'Noto Sans KR', sans-serif; font-size: 10px; fill: rgb(138, 134, 123); fill-opacity: 1; white-space: pre;">61%</text></g></g></g><g class="annotation" data-index="10" style="opacity: 1;"><g class="annotation-text-g" transform="rotate(0,541.71,254.84000000000003)"><g class="cursor-pointer" transform="translate(529,245)"><rect class="bg" x="0.5" y="0.5" width="25" height="18" style="stroke-width: 1px; stroke: rgb(0, 0, 0); stroke-opacity: 0; fill: rgb(255, 255, 255); fill-opacity: 0.85;"/><text class="annotation-text" text-anchor="middle" x="13.24609375" y="14" style="font-family: 'Noto Sans KR', sans-serif; font-size: 10.5px; fill: rgb(184, 145, 31); fill-opacity: 1; white-space: pre;"><tspan style="font-weight:bold">39%</tspan></text></g></g></g><g class="annotation" data-index="11" style="opacity: 1;"><g class="annotation-text-g" transform="rotate(0,541.71,336.32)"><g class="cursor-pointer" transform="translate(529,327)"><rect class="bg" x="0.5" y="0.5" width="25" height="18" style="stroke-width: 1px; stroke: rgb(0, 0, 0); stroke-opacity: 0; fill: rgb(255, 255, 255); fill-opacity: 0.85;"/><text class="annotation-text" text-anchor="middle" x="13.24609375" y="14" style="font-family: 'Noto Sans KR', sans-serif; font-size: 10.5px; fill: rgb(28, 27, 25); fill-opacity: 1; white-space: pre;"><tspan style="font-weight:bold">22%</tspan></text></g></g></g><g class="annotation" data-index="12" style="opacity: 1;"><g class="annotation-text-g" transform="rotate(0,541.71,180.16)"><g class="cursor-pointer" transform="translate(530,171)"><rect class="bg" x="0.5" y="0.5" width="23" height="18" style="stroke-width: 1px; stroke: rgb(0, 0, 0); stroke-opacity: 0; fill: rgb(255, 255, 255); fill-opacity: 0.85;"/><text class="annotation-text" text-anchor="middle" x="12.16015625" y="13.5" style="font-family: 'Noto Sans KR', sans-serif; font-size: 10px; fill: rgb(138, 134, 123); fill-opacity: 1; white-space: pre;">61%</text></g></g></g><g class="annotation" data-index="13" style="opacity: 1;"><g class="annotation-text-g" transform="rotate(0,629.14,217)"><g class="cursor-pointer" transform="translate(616,208)"><rect class="bg" x="0.5" y="0.5" width="25" height="18" style="stroke-width: 1px; stroke: rgb(0, 0, 0); stroke-opacity: 0; fill: rgb(255, 255, 255); fill-opacity: 0.85;"/><text class="annotation-text" text-anchor="middle" x="13.24609375" y="14" style="font-family: 'Noto Sans KR', sans-serif; font-size: 10.5px; fill: rgb(184, 145, 31); fill-opacity: 1; white-space: pre;"><tspan style="font-weight:bold">50%</tspan></text></g></g></g><g class="annotation" data-index="14" style="opacity: 1;"><g class="annotation-text-g" transform="rotate(0,629.14,339.84)"><g class="cursor-pointer" transform="translate(616,330)"><rect class="bg" x="0.5" y="0.5" width="25" height="18" style="stroke-width: 1px; stroke: rgb(0, 0, 0); stroke-opacity: 0; fill: rgb(255, 255, 255); fill-opacity: 0.85;"/><text class="annotation-text" text-anchor="middle" x="13.24609375" y="14" style="font-family: 'Noto Sans KR', sans-serif; font-size: 10.5px; fill: rgb(28, 27, 25); fill-opacity: 1; white-space: pre;"><tspan style="font-weight:bold">14%</tspan></text></g></g></g><g class="annotation" data-index="15" style="opacity: 1;"><g class="annotation-text-g" transform="rotate(0,629.14,169.84)"><g class="cursor-pointer" transform="translate(617,160)"><rect class="bg" x="0.5" y="0.5" width="23" height="18" style="stroke-width: 1px; stroke: rgb(0, 0, 0); stroke-opacity: 0; fill: rgb(255, 255, 255); fill-opacity: 0.85;"/><text class="annotation-text" text-anchor="middle" x="12.16015625" y="13.5" style="font-family: 'Noto Sans KR', sans-serif; font-size: 10px; fill: rgb(138, 134, 123); fill-opacity: 1; white-space: pre;">64%</text></g></g></g><g class="annotation" data-index="16" style="opacity: 1;"><g class="annotation-text-g" transform="rotate(0,716.57,203.24)"><g class="cursor-pointer" transform="translate(704,194)"><rect class="bg" x="0.5" y="0.5" width="25" height="18" style="stroke-width: 1px; stroke: rgb(0, 0, 0); stroke-opacity: 0; fill: rgb(255, 255, 255); fill-opacity: 0.85;"/><text class="annotation-text" text-anchor="middle" x="13.24609375" y="14" style="font-family: 'Noto Sans KR', sans-serif; font-size: 10.5px; fill: rgb(184, 145, 31); fill-opacity: 1; white-space: pre;"><tspan style="font-weight:bold">54%</tspan></text></g></g></g><g class="annotation" data-index="17" style="opacity: 1;"><g class="annotation-text-g" transform="rotate(0,716.57,326)"><g class="cursor-pointer" transform="translate(704,317)"><rect class="bg" x="0.5" y="0.5" width="25" height="18" style="stroke-width: 1px; stroke: rgb(0, 0, 0); stroke-opacity: 0; fill: rgb(255, 255, 255); fill-opacity: 0.85;"/><text class="annotation-text" text-anchor="middle" x="13.24609375" y="14" style="font-family: 'Noto Sans KR', sans-serif; font-size: 10.5px; fill: rgb(28, 27, 25); fill-opacity: 1; white-space: pre;"><tspan style="font-weight:bold">25%</tspan></text></g></g></g><g class="annotation" data-index="18" style="opacity: 1;"><g class="annotation-text-g" transform="rotate(0,716.57,118.24000000000001)"><g class="cursor-pointer" transform="translate(705,109)"><rect class="bg" x="0.5" y="0.5" width="23" height="18" style="stroke-width: 1px; stroke: rgb(0, 0, 0); stroke-opacity: 0; fill: rgb(255, 255, 255); fill-opacity: 0.85;"/><text class="annotation-text" text-anchor="middle" x="12.16015625" y="13.5" style="font-family: 'Noto Sans KR', sans-serif; font-size: 10px; fill: rgb(138, 134, 123); fill-opacity: 1; white-space: pre;">79%</text></g></g></g><g class="annotation" data-index="19" style="opacity: 1;"><g class="annotation-text-g" transform="rotate(0,804,268.6)"><g class="cursor-pointer" transform="translate(791,259)"><rect class="bg" x="0.5" y="0.5" width="25" height="18" style="stroke-width: 1px; stroke: rgb(0, 0, 0); stroke-opacity: 0; fill: rgb(255, 255, 255); fill-opacity: 0.85;"/><text class="annotation-text" text-anchor="middle" x="13.24609375" y="14" style="font-family: 'Noto Sans KR', sans-serif; font-size: 10.5px; fill: rgb(184, 145, 31); fill-opacity: 1; white-space: pre;"><tspan style="font-weight:bold">35%</tspan></text></g></g></g><g class="annotation" data-index="20" style="opacity: 1;"><g class="annotation-text-g" transform="rotate(0,804,346.64)"><g class="cursor-pointer" transform="translate(791,337)"><rect class="bg" x="0.5" y="0.5" width="25" height="18" style="stroke-width: 1px; stroke: rgb(0, 0, 0); stroke-opacity: 0; fill: rgb(255, 255, 255); fill-opacity: 0.85;"/><text class="annotation-text" text-anchor="middle" x="13.24609375" y="14" style="font-family: 'Noto Sans KR', sans-serif; font-size: 10.5px; fill: rgb(28, 27, 25); fill-opacity: 1; white-space: pre;"><tspan style="font-weight:bold">19%</tspan></text></g></g></g><g class="annotation" data-index="21" style="opacity: 1;"><g class="annotation-text-g" transform="rotate(0,804,204.24)"><g class="cursor-pointer" transform="translate(792,195)"><rect class="bg" x="0.5" y="0.5" width="23" height="18" style="stroke-width: 1px; stroke: rgb(0, 0, 0); stroke-opacity: 0; fill: rgb(255, 255, 255); fill-opacity: 0.85;"/><text class="annotation-text" text-anchor="middle" x="12.16015625" y="13.5" style="font-family: 'Noto Sans KR', sans-serif; font-size: 10px; fill: rgb(138, 134, 123); fill-opacity: 1; white-space: pre;">54%</text></g></g></g><g class="annotation" data-index="22" style="opacity: 1;"><g class="annotation-text-g" transform="rotate(0,891.43,275.48)"><g class="cursor-pointer" transform="translate(878,266)"><rect class="bg" x="0.5" y="0.5" width="25" height="18" style="stroke-width: 1px; stroke: rgb(0, 0, 0); stroke-opacity: 0; fill: rgb(255, 255, 255); fill-opacity: 0.85;"/><text class="annotation-text" text-anchor="middle" x="13.24609375" y="14" style="font-family: 'Noto Sans KR', sans-serif; font-size: 10.5px; fill: rgb(184, 145, 31); fill-opacity: 1; white-space: pre;"><tspan style="font-weight:bold">33%</tspan></text></g></g></g><g class="annotation" data-index="23" style="opacity: 1;"><g class="annotation-text-g" transform="rotate(0,891.43,353.6)"><g class="cursor-pointer" transform="translate(878,344)"><rect class="bg" x="0.5" y="0.5" width="25" height="18" style="stroke-width: 1px; stroke: rgb(0, 0, 0); stroke-opacity: 0; fill: rgb(255, 255, 255); fill-opacity: 0.85;"/><text class="annotation-text" text-anchor="middle" x="13.24609375" y="14" style="font-family: 'Noto Sans KR', sans-serif; font-size: 10.5px; fill: rgb(28, 27, 25); fill-opacity: 1; white-space: pre;"><tspan style="font-weight:bold">10%</tspan></text></g></g></g><g class="annotation" data-index="24" style="opacity: 1;"><g class="annotation-text-g" transform="rotate(0,891.43,242.08)"><g class="cursor-pointer" transform="translate(879,233)"><rect class="bg" x="0.5" y="0.5" width="23" height="18" style="stroke-width: 1px; stroke: rgb(0, 0, 0); stroke-opacity: 0; fill: rgb(255, 255, 255); fill-opacity: 0.85;"/><text class="annotation-text" text-anchor="middle" x="12.16015625" y="13.5" style="font-family: 'Noto Sans KR', sans-serif; font-size: 10px; fill: rgb(138, 134, 123); fill-opacity: 1; white-space: pre;">43%</text></g></g></g></g></svg>